<svg width="300" height="420" fill="none" xmlns="http://www.w3.org/2000/svg"><g clip-path="url(#a)"><path d="M76.022 51.025a37.192 37.192 0 0 0-37.277 37.267v243.411a37.193 37.193 0 0 0 37.277 37.268h147.961a37.185 37.185 0 0 0 26.378-10.891 37.209 37.209 0 0 0 8.078-12.102 37.204 37.204 0 0 0 2.816-14.275V88.293a37.186 37.186 0 0 0-22.993-34.456 37.19 37.19 0 0 0-14.275-2.817l-147.965.005zM72.35 69.94h155.304a12.392 12.392 0 0 1 11.484 7.665c.624 1.509.942 3.126.939 4.758v255.27a12.39 12.39 0 0 1-3.631 8.791 12.397 12.397 0 0 1-8.792 3.631H72.35a12.387 12.387 0 0 1-8.791-3.631 12.4 12.4 0 0 1-3.631-8.791V82.367a12.399 12.399 0 0 1 7.664-11.484 12.401 12.401 0 0 1 4.758-.943zm7.343 8.052a12.677 12.677 0 0 0-12.709 12.704V329.3a12.68 12.68 0 0 0 12.71 12.708h140.618a12.684 12.684 0 0 0 8.995-3.713 12.68 12.68 0 0 0 3.714-8.995V90.696a12.696 12.696 0 0 0-3.715-8.992 12.685 12.685 0 0 0-8.994-3.712H79.693zm2.822 9.455h14.83l-19.347 19.027V91.968a4.508 4.508 0 0 1 4.517-4.52zm29.084 0h75.603l34.237 33.674v177.856l-34.421 33.853h-75.235l-33.785-33.225V120.489L111.6 87.447zm89.857 0h15.466a4.51 4.51 0 0 1 4.521 4.521v15.138l-19.987-19.659zm19.987 225.545v15.322a4.508 4.508 0 0 1-4.521 4.516h-15.654l20.175-19.838zm-143.445.628 19.535 19.21H82.515a4.52 4.52 0 0 1-1.73-.341 4.51 4.51 0 0 1-2.787-4.175V313.62z" fill="#1E39CD"/></g><defs><clipPath id="a"><path fill="#fff" transform="translate(38.745 51.024)" d="M0 0h222.51v317.952H0z"/></clipPath></defs></svg>