<svg width="296" height="420" fill="none" xmlns="http://www.w3.org/2000/svg"><g clip-path="url(#a)"><path d="M182.806 83.107c-1.741-.072-3.714.491-5.515.764-2.847.436-3.62-.486-5.268.12-1.127.414-1.597 2.327-2.8 2.275-1.439-.055-1.682-3.01-3.125-2.988-1.665.026-2.156 2.57-3.496 3.556-1.943 1.43-5.379-.29-6.434 3.321-1.054 3.612 6.421 5.251 9.383 9.14 1.644 2.165 1.879 2.519-.426 8.248-2.31 5.725-17.482 14.95-18.05 19.85-.691 5.939 10.972 16.769 9.422 19.484-1.725 3.031-27.023 14.971-27.398 15.714-1.187 2.331-.572 6.207 1.528 8.286 2.63 2.604 17.383-2.907 21.481-4.593 9.832-4.047 11.595-6.335 15.241-5.678 9.652 1.75 39.248 53.78 53.609 57.43 14.365 3.65 49.17-4.482 53.516-6.382 4.341-1.904-1.255-7.765-1.255-7.765s-30.271-8.35-42.233-16.077c-11.962-7.727-44.124-34.075-43.403-38.224.726-4.15 12.603-7.778 15.262-7.275 2.66.5 13.042 13.618 16.862 10.933 1.482-1.041 3.971-5.891 2.425-11.923-2.433-9.52-7.684-14.664-14.992-25.494-7.305-10.831-23.3-11.437-25.315-15.689-2.007-4.256 7.906-12.299 3.756-16.017-.781-.7-1.737-.969-2.775-1.016zm-77.067 8.368c-4.491-.052 2.015 6.522-2.971 10.138-5.601 4.069-18.886 3.407-16.675 7.62 4.29 8.175 23.134 9.191 24.44 13.021 1.311 3.829-16.94 35.799-22.271 36.969-5.332 1.174-24.051-14.045-26.335-10.707-4.61 6.745 14.19 24.449 14.582 29.695.393 5.251-56.09 77.542-56.09 77.542s-3.141 2.655 2.173 4.879c5.315 2.224 51.996-38.502 68.97-61.729 16.969-23.228 37.285-51.441 44.239-68.615 6.958-17.174-22.549-37.67-29.008-38.711-.348-.06-.7-.094-1.054-.102zm76.009 26.616c5.396.03 12.132 6.011 12.06 8.304-.043 1.357-17.35 11.615-18.472 11.38-1.119-.234-6.66-6.762-6.386-8.683.268-1.921 6.804-10.608 12.277-10.984.171-.012.341-.017.521-.017zm-38.306 59.894a5.926 5.926 0 0 0-2.441.469c-7.181 2.869 1.357 26.831-1.606 37.064-2.962 10.232-13.95 22.736-13.95 22.736s-.965 8.35.589 10.369c1.558 2.02 19.479-10.373 25.293-18.792 5.815-8.418.658-23.534 6.293-28.909s7.85-6.762 10.775-3.27c1.421 1.699-3.134 6.228-6.4 12.948-3.449 7.086-5.575 16.478-2.151 21.878 6.664 10.515 33.041 13.631 38.48 9.934 5.435-3.701 2.476-18.391-3.005-22.301s-17.9 7.983-19.437.696c-1.537-7.283 14.378-19.001 13.05-26.681-1.323-7.684-10.608-13.388-16.158-13.456-5.545-.073-16.734 8.461-19.889 7.206-2.757-1.097-4.29-9.682-9.443-9.891zm-22.454 8.764c-3.706.145-5.58 3.731-8.543 5.311-3.159 1.682-17.246 2.736-17.472 5.169-.227 2.434 2.134 6.173 6.642 8.466 4.448 2.262 11.411.922 11.415 1.451 0 1.063-4.879 2.758-7.671 6.126-3.65 4.401-6.403 9.541-9.106 11.804-4.78 3.991-23.633 6.331-24.358 9.613-.726 3.283 1.323 6.182 4.452 7.962 4.61 2.625 10.984.521 12.039 2.177 1.758 2.792-14.933 26.613-15.023 29.298-.085 2.685 1.964 5.486 5.102 6.002 3.133.517 13.805-8.064 18.399-9.289 4.593-1.221 3.419 13.631 3.133 15.757-.281 2.126-7.71 14.446-13.942 16.282-6.233 1.835-18.011-26.267-21.234-20.769-3.227 5.499 7.454 34.92 7.454 34.92s3.67 11.334 11.261 12.017c7.595.683 18.156-7.782 24.017-14.173 5.862-6.395 13.494-20.047 15.497-26.403 2.002-6.357.025-10.818-3.313-16.308-3.343-5.485-14.207-10.638-16.128-12.986-.82-1.003.269-4.354 1.43-7.641 1.554-4.419 3.769-9.477 6.788-15.859 5.272-11.142 21.955-23.642 20.802-33.725-1.153-10.079-6.642-14.826-10.873-15.185a6.79 6.79 0 0 0-.768-.017zm44.367 56.265c-9.584.435-41.358 4.867-42.126 9.157-.769 4.294 8.598 14.16 14.852 15.355 6.249 1.196 20.478-8.282 24.119-7.752 3.646.529 2.801-.845 2.34 2.881-.461 3.727-3.539 12.56-7.719 12.615-4.183.056-27.125-11.419-30.8-4.913-3.672 6.501 19.364 15.308 17.776 20.661-1.584 5.362-36.893 34.643-36.893 34.643s-1.746 5.486 1.345 7.488c3.091 2.006 16.564-3.484 29.353-11.296 12.594-7.697 21.401-19.723 23.373-19.714 3.974.03 29.652 30.088 33.738 33.264 4.085 3.176 10.779 1.084 13.571-4.449 2.792-5.532 1.524-12.512-3.621-21.238-5.144-8.721-27.009-24.785-27.009-24.785s8.055-9.614 16.709-16.773c4.294-3.552-1.281-12.99-2.652-14.472-3.842-4.158-16.777-11.099-26.356-10.672z" fill="#006F00"/></g><defs><clipPath id="a"><path fill="#fff" transform="translate(19.497 83.103)" d="M0 0h256.63v253.794H0z"/></clipPath></defs></svg>