<svg width="301" height="420" fill="none" xmlns="http://www.w3.org/2000/svg"><g clip-path="url(#a)"><path d="M136.722 38.032c-2.438-.52-3.501 5.336-7.493 9.136-3.47 3.3-8.819 4.435-8.802 7.082.038 5.695 14.13 8.29 14.13 8.29s-.683 26.622-1.31 63.25a167.309 167.309 0 0 0-6.122 2.22c-19.484 7.556-31.21 15.539-39.6 18.049-3.265.978-6.04-1.929-8.252-2.843-2.236-.926-6.207-1.989-8.623-1.439-1.848.419-2.485 1.9-2.527 4.415.858 5.306 4.154 9.02 8.282 15.714 3.547 5.763 4.58 13.883 7.509 22.267 2.062 5.908 5.315 13.208 8.461 18.626 6.16 10.621 12.88 17.58 17.042 16.939 6.288-.969 1.951-6.331 6.493-12.922 1.639-2.374 8.406-4.453 16.5-6.019-.504 88.052 1.016 184.677 10.608 180.639 9.836-4.141 14.25-100.023 17.55-183.611 3.552 0 6.088.256 6.703.858 2.898 2.831-.662 8.696 1.545 12.082 2.203 3.381 6.544 6.019 15.219 5.392 4.192-.304 22.05-9.683 35.083-23.386 13.947-14.664 16.965-30.75 22.344-33.772 5.379-3.027 14.707.153 16.495-6.899 1.388-5.481-22.331-19.232-38.788-33.815-5.059-4.482-18.596-3.97-23.684-4.427a33.611 33.611 0 0 0-2.558-.124c-6.706-.085-17.289 1.324-28.832 3.714 1.366-25.059 2.604-42.28 2.604-42.28s15.261-1.857 16.606-9.563c.414-2.365-2.963-4.824-9.58-6.992-5.216-1.708-13.037-2.971-18.57-5.695-11.432-5.635-13.874-13.917-18.433-14.886zm55.061 97.035c9.119.072 15.642 1.379 18.443 3.312 11.193 7.727-5.986 29.397-5.986 29.397s-18.327 28.303-21.831 27.855c-1.742-.222-1.653-2.728-3.642-6.075-2.011-3.377-6.117-7.607-11.185-8.905-1.963-.504-3.897-1.101-6.271-1.46.261-6.711.572-14.13.82-20.491.294-7.398.623-13.909.939-20.679 1.097-.214 2.194-.427 3.27-.619 9.691-1.712 18.348-2.395 25.443-2.335zm-58.84 10.557c-.179 12.393-.303 24.76-.422 38.383-9.802 2.8-18.933 5.4-19.433 3.363-1.426-5.81-9.485-25.72-9.178-30.216.102-1.511 12.875-6.634 29.033-11.53z" fill="#B93C3C"/></g><defs><clipPath id="a"><path fill="#fff" transform="translate(43.123 38)" d="M0 0h215v344H0z"/></clipPath></defs></svg>