<svg width="300" height="420" fill="none" xmlns="http://www.w3.org/2000/svg"><g clip-path="url(#a)"><path d="M132.659 59.582c-4.909 1.213-2.331 11.215-6.988 15.164-2.707 2.292-5.669-.128-8.538 4.405-7.923 12.538 20.188 4.756 16.192 9.768-6.105 7.658 1.678 11.829-3.974 13.503-13.951 4.119-31.194 1.238-32.7 7.948-.615 2.767 5.177 12.585 14.215 14.523 5.904 1.268 15.215-5.886 18.015-2.352 2.083 2.626.145 12.304.145 12.304s-31.343 15.056-35.061 15.227c-3.718.171-21.704-13.191-22.42-7.394-.236 1.891 2.287 7.876 7.188 18.506 3.95 8.572 7.215 29.567 12.534 38.156 8.978 14.498 23.296 17.226 23.296 17.226s-19.565 24.23-41.614 43.684c-22.9 20.205-48.274 35.745-46.203 40.462 2.138 4.875 34.792-8.205 60.96-25.7 23.544-15.739 39.284-35.009 39.284-35.009s-2.455 25.528-2.818 37.836c-.367 12.311.619 36.017.619 36.017s-29.844-15.172-32.751-10.604c-2.912 4.572 19.671 18.246 29.136 34.643 6.937 12.021 3.551 23.961 7.206 22.403 2.996-1.28 10.8-6.19 18.156-21.789 4.149-8.789 5.455-30.924 5.379-50.638-.099-26.993.648-55.39.648-55.39s46.242 50.608 61.448 49.452c17.311-1.32 56.18-14.835 59.211-18.554 2.843-3.483-35.637-10.403-58.165-12.456-10.092-.918-42.835-29.085-42.835-29.085s18.549-11.467 26.562-21.529c8.013-10.062 15.979-32.935 19.466-37.626 3.488-4.696 16.799-5.204 15.65-11.638-.371-2.096-7.364-8.123-18.839-13.916-7.043-3.552-14.109-12.863-22.352-14.797-18.766-4.401-34.212 5.294-36.026 3.522-1.81-1.772-1.631-10.532-.213-13.951.333-.803 2.971-2.835 6.954-3.014 3.816-.171 9.887.918 13.78 1.793 9.4 2.122 19.509 1.575 19.437-3.851-.12-8.96-8.743-20.12-19.108-20.192-8.38-.06-17.661 12-20.991 8.58-3.838-3.94 14.813-8.38 13.529-11.803-3.736-9.95-15.236-2.211-24.739-8.329-7.813-5.024-10.34-16.081-12.675-15.505zm44.06 82.52c3.953-.069 7.813.555 10.98 2.314 11.262 6.262-27.343 63.313-32.333 62.408-4.986-.909-1.469-17.601-1.691-27.535-.047-2.092 9.823-1.673 17.729-2.036 5.461-.252 7.241-.991 8.321-7.697.418-2.609-4.722-9.473-9.721-10.758-5.071-1.306-9.972 3.078-13.631 1.093-5.72-3.1-2.39-10.75-1.852-11.381 1.379-1.601 12.098-6.246 22.198-6.408zm-52.854 15.564c1.43-.042 2.583.171 3.266.726.619.508 4.085 7.249-.244 7.343-9.361.209-16.926 4.115-18.702 7.962-.7 1.519 3.086 7.261 4.043 8.273 2.83 3.001 5.643 8.593 15.586 5.272 6.399-2.139 1.81 12.713 1.434 13.366-1.259 2.19-15.103-1.046-19.624-11.014-4.525-9.964-6.216-20.888-4.662-24.141 1.264-2.647 12.7-7.611 18.903-7.787z" fill="#1E39CD"/></g><defs><clipPath id="a"><path fill="#fff" transform="translate(26.625 59.56)" d="M0 0h246.75v300.878H0z"/></clipPath></defs></svg>