<svg width="300" height="420" fill="none" xmlns="http://www.w3.org/2000/svg"><g clip-path="url(#a)"><path d="M132.745 72.637a5.885 5.885 0 0 0-1.076.12c-1.98.392-2.531 5.447-4.499 9.054-2.877 5.272-7.889 4.363-7.757 7.812.129 3.45 8.32 3.79 15.112 8.943 6.796 5.153-9.933 65.245-10.745 67.397-.418 1.109-8.623 3.043-17.476 3.859-8.303.764-17.37-.308-18.198 1.314-1.708 3.356 6.809 12.197 11.7 14.395 4.897 2.203 18.557-.79 19.855.35 1.298 1.136-1.375 10.437-3.936 13.178-2.561 2.745-5.029 5.041-7.257 2.903-2.224-2.143-16.81-17.033-18.527-13.02-1.724 4.008 9.127 20.243 4.61 19.841-4.524-.401-22.893 11.219-24.353 11.513-1.456.291-5.789-5.088-8.85-3.184-3.747 2.339-2.885 6.856-6.8 10.33-3.859 3.424-9.05 3.548-8.623 6.587.854 6.122 6.382 6.8 6.493 10.408.043 1.489 3.82 17.523 10.476 31.316 9.481 19.649 23.372 38.249 28.337 33.647 8.443-7.833-12.918-65.979-10.993-71.708 1.921-5.729 19.095-16.213 22.066-14.873 2.971 1.341 12.888 10.779 10.023 12.184-2.86 1.404-14.352 1.605-14.702 6.885-.354 5.281 21.067 10.728 21.067 10.728s1.874 6.275.043 6.847c-1.836.572-25.46-.124-26.083 3.458-.632 3.581 6.873 10.13 11.513 12.328 4.64 2.199 15.24-.755 17.14.914 1.903 1.669 2.885 48.921 8.486 48.438 5.596-.482 10.915-49.014 11.15-51.776.231-2.758 28.794-.722 31.274-3.044 2.48-2.327-.811-14.036-4.858-15.436-4.043-1.4-22.595 3.761-23.688 2.113-1.089-1.648-.739-6.779-.235-7.372.508-.598 8.282-2.212 6.51 1.442-2.177 4.491 13.114-2.847 14.215-3.807 2.178-1.896 1.213-7.121-2.873-11.27-4.081-4.149-13.16 2.284-12.908.299.115-.922 5.079-4.76 9.306-10.049 4.862-6.075 8.601-14.113 9.293-15.586 1.293-2.757 38.014-.58 40.767 10.408 2.749 10.983-9.891 45.463-12.904 58.346-3.01 12.884-27.556 47.529-35.346 45.523-7.791-2.006-19.308-16.221-22.053-14.77-2.741 1.451 8.623 31.662 16.17 36.84 7.547 5.174 33.289-12.836 49.152-29.028 15.858-16.2 31.047-76.587 32.566-78.479 1.52-1.891 19.296-.375 18.758-4.981-.709-6.053-9.234-7.906-18.877-15.782-9.844-8.038-20.584-18.318-28.251-21.771-15.18-6.839-37.361-2.732-39.444-4.401-2.079-1.665 1.101-3.642-1.815-7.94-2.322-3.428-8.832-7.497-8.588-8.897.546-3.15 2.236-2.689 8.311-4.055 4.26-.961 11.628 1.08 16.281.418 4.026-.572 5.567-3.842 6.762-4.623 4.555-2.971-1.443-14.087-10.433-17.686-8.99-3.598-36.144 17.959-34.082 14.241 2.062-3.718 17.997-51.806 19.38-53.373 1.375-1.567 18.958-4.862 15.654-11.436-4.166-8.29-20.234-7.048-30.906-12.824-10.374-5.61-10.318-13.272-15.33-13.204l-.004-.004zm12.777 104.8c.102 0 .2.005.303.013 1.592.141 2.207 5.084 3.496 9.276 1.323 4.299 3.295 7.859 2.997 8.794-.308.982-5.405-1.152-10.177-.674-4.214.418-8.141 3.594-8.739 2.514-1.28-2.305 1.58-9.157 3.813-12.568 2.16-3.299 5.19-7.363 8.307-7.355zm-.521 35.047c.738 0 1.281.073 1.528.265 1.281.969-3.287 5.878-5.601 11.129-2.147 4.875-1.968 10.16-3.15 9.904-1.059-.226-2.958-1.392-5.221-.47-2.988 1.217-6.19 4.282-4.802.333 2.442-6.954-5.311-12.072-3.812-14.826.683-1.255 5.72-4.499 7.282-5.314 1.751-.914 3.872.708 6.737.696 2.403-.009 5.575-1.708 7.039-1.712v-.005z" fill="#1E39CD"/></g><defs><clipPath id="a"><path fill="#fff" transform="translate(45.9 72.637)" d="M0 0h208.2v274.725H0z"/></clipPath></defs></svg>