<svg width="300" height="420" fill="none" xmlns="http://www.w3.org/2000/svg"><g clip-path="url(#a)"><path d="M182.514 88.696c-8.867.504-36.224 15.625-50.961 17.38-15.723 1.87-35.754-5.106-39.503-.372-3.748 4.731 8.633 14.537 18.443 20.313 9.806 5.776 36.083 2.54 39.691 8.59 3.611 6.045-8.803 19.86-11.63 23.331-2.817 3.475-9.861.166-10.673 5.605-.819 5.443 14.059 11.104 16.795 15.121 2.737 4.013-1.174 20.437-3.851 23.669-2.676 3.231-9.225 3.757-11.227 2.138-1.994-1.613-5.034-18.169-9.918-19.761-4.884-1.593-3.462-12.735-9.136-13.722-5.678-.99-9.99 15.715-11.868 16.706-1.878.994-12.965 2.967-13.823 7.061-.854 4.09 13.571 7.129 15.552 8.12 1.977.995 6.891 9.102 5.482 10.502-.671.67-9.994 3.031-18.64 7.441-9.57 4.884-18.583 11.826-20.026 12.001-2.75.333-9.158-5.934-14.52-6.131-5.366-.2-14.694-.64-14.352 4.222.341 4.863 8.265 8.842 11.313 15.31 3.048 6.463 6.045 32.701 13.627 43.067 7.582 10.366 20.868 33.479 27.45 31.549 6.588-1.921 8.83-4.944 20.074-7.834 11.245-2.89 43.934-4.61 47.503-4.926 3.569-.321-.085 19.779 12.872 22.899 12.961 3.121 31.89-15.881 44.95-30.405 13.063-14.523 28.091-51.481 29.133-55.61 1.041-4.128 20.564-5.955 15.574-14.19-4.995-8.24-31.767-11.19-37.727-22.431-5.96-11.236-49.659-14.259-57.083-10.745-3.612 1.708.324-4.035 6.673-9.358 6.715-5.623 16.965-6.967 15.612-13.683-.427-2.122-3.3-3.91-8.376-3.953-7.441-.068-17.854 1.938-19.327-.926-3.799-7.412 3.224-11.254 5.051-20.578 1.272-6.506-.363-14.617.491-16.961 2.075-5.712 33.282-12.957 33.385-23.925.102-10.963-8.838-17.734-15.51-19.411a5.144 5.144 0 0 0-1.52-.103zm2.058 126.495c3.18.081 6.079.338 8.214.841 8.525 2.028 14.677 5.222 18.054 12.526 3.372 7.3-9.888 44.472-9.888 44.472s-22.694 39.43-24.423 35.306c-1.729-4.133-7.471-16.573-12.274-19.288-4.803-2.715-14.515.085-36.745 1.46-22.234 1.375-25.713 9.051-30.332 5.964-4.62-3.082-9.58-12.338-12.923-20.343-3.339-8.004-7.352-14.011-7.13-16.79.107-1.324 2.007-2.656 2.25-5.234.27-2.852-1.106-6.946-.568-8.069 1.025-2.143 28.997-15.326 28.36-12.146-.264 1.349-3.628 14.925-7.048 24.42-4.653 12.927-11.463 18.699-8.47 26.768 2.425 6.544 24.676-21.688 28.885-28.254 4.214-6.566 9.055-29.465 11.343-31.997 2.284-2.532 5.222-1.836 5.222-1.836s-4.193 21.53 1.946 29.645c6.135 8.116 40.89 13.623 43.661 12.103 2.775-1.524 8.56-8.401 7.825-13.802-.734-5.4-7.193-9.315-10.28-10.903-3.091-1.593-19.578 5.729-21.58.977-.641-1.524-1.512-5.165-.496-8.803.777-2.783 3.672-6.275 2.775-8.581-1.558-4.013-.23-5.656.598-6.254 1.426-1.025 13.486-2.408 23.024-2.177v-.005z" fill="#1E39CD"/></g><defs><clipPath id="a"><path fill="#fff" transform="translate(38.34 88.683)" d="M0 0h223.32v242.634H0z"/></clipPath></defs></svg>