<svg width="300" height="420" fill="none" xmlns="http://www.w3.org/2000/svg"><g clip-path="url(#a)"><path d="M168.958 98.838c-3.701-.064-3.765.214-4.909 1.793-1.908 4.248-4.705 10.737-5.99 11.27-1.763.726-6.851 6.625-6.898 7.748-.384 9.136 9.643 8.21 12.922 9.84 5.067 2.519 6.813 26.613 5.101 28.039-7.312 6.083-27.159 36.935-28.909 34.997-1.75-1.934.286-11.326-1.511-16.431-4.743-13.46 5.524-35.488-1.845-32.718-6.177 2.318-21.912 13.601-24.341 15.245-2.434 1.643-17.413 4.653-15.71 9.891 1.708 5.238 10.263 5.861 9.255 10.561-1.012 4.705 6.835 45.435 3.979 51.45-1.255 2.651-8.508 15.616-15.57 25.119-8.964 12.06-15.863 25.208-17.673 23.671-3.231-2.749-17.827-23.415-23.599-19.74-5.767 3.676 6.361 37.491 7.924 43.254 1.562 5.763-4.594 13.763-1.597 17.558 2.997 3.791 23.595-7.445 27.936-11.855 4.342-4.414 24.184-43.526 23.608-35.117-.577 8.41-4.705 40.594 1.912 41.051 2.561.175 7.663-3.765 11.223-10.877 5.635-11.254 9.648-28.346 10.673-33.627 3.253-9.123 3.978-41.431 9.285-48.453 6.117-1.609 24.516-40.624 26.104-36.854 1.588 3.765-10.945 89.973.829 113.794 11.769 23.821 59.326 16.597 71.142 21.716 11.821 5.114 2.497-10.566 2.425-17.435-.068-6.868 3.146-13.814-6.066-16.853-9.217-3.04-40.876 8.751-42.37 5.391-1.571-3.534-5.259-31.009-2.28-34.164 2.984-3.159 12.082-4.44 17.597-7.014 5.511-2.574 11.027-6.318 15.68-9.05 4.653-2.741 15.488-13.973 15.548-13.61 0 0 9.712-4.265-16.329-14.139-9.353-3.547-14.079-20.96-19.091-18.595-1.917.905-2.579 6.352-3.731 8.696-1.153 2.347-1.328 2.646-1.972 5.152-.641 2.506 2.416 15.992 1.314 18.856-1.097 2.865-9.746 22.126-9.242 17.857.15-1.28 1.289-15.389 2.604-27.035.265-25.64 9.388-54.105 8.081-78.216 4.769-7.322 19.172-13.157 12.137-18.139-7.035-4.982-19.193-5.891-25.23-8.922-7.078-3.928-18.715-14.037-22.416-14.105zM68.21 206.1c-1.297.03-2.318.363-2.958 1.042-5.14 5.451 7.949 22.301 9.883 27.249 1.933 4.952-5.708 22.1-2.118 27.389 3.586 5.294 27.842-19.722 27.249-31.342-.52-10.165-23.001-24.547-32.06-24.333l.004-.005z" fill="#1E39CD"/></g><defs><clipPath id="a"><path fill="#fff" transform="translate(51.715 98.83)" d="M0 0h196.57v222.341H0z"/></clipPath></defs></svg>