<svg width="300" height="420" fill="none" xmlns="http://www.w3.org/2000/svg"><g clip-path="url(#a)"><path d="M51.291 102.14c2.609-8.32 21.358 3.466 44.902.397 23.548-3.074 95.571-14.575 112.237-17.768 16.67-3.193 46.011 27.971 39.535 33.943-6.472 5.977-28.269-5.814-54.899-5.259-26.631.555-90.29 17.43-103.64 14.245-13.344-3.18-40.747-17.234-38.135-25.558z" fill="#1E39CD"/><path d="M165.518 180.104a1.284 1.284 0 0 0-.41.026c-3.894 1.042-26.37 22.528-26.37 22.528s-18.737-19.595-20.355-18.233c-.982.828 3.104 20.798 8.684 34.045 3.62 8.589 8.038 12.666 11.526 12.551 2.54-.085 5.558-1.725 8.111-6.331 2.69-4.867 4.926-12.875 7.77-18.711 3.829-7.868 9.05-14.805 9.72-15.151 1.635-.845 7.445 7.108 6.882 9.14-.559 2.032-10.079 15.125-12.679 23.253-.683 2.135-1.4 4.773-2.036 7.506-7.719 1.822-14.968 3.551-17.414 4.012-6.318 1.196-20.013 1.49-20.662 3.894-.657 2.407 13.465 9.477 16.867 9.285 1.298-.077 9.524-1.55 19.509-2.946.193 1.315.611 2.194 1.362 2.348.974.201 2.088-1.012 3.339-2.98a308.69 308.69 0 0 1 9.451-1.088c12.445-1.208 24.534 0 26.131-1.546 3.129-3.031-10.946-15.667-11.97-16.551-.406-.35-6.566.94-14.152 2.664.973-1.391 1.981-2.689 3.048-3.786 7.351-7.565 24.846-19.429 28.077-20.94 1.729-.811-7.334-6.916-16.649-12.914-7.599-4.896-15.347-9.87-17.78-10.075zm6.48 67.664c-12.013.513-52.321 8.714-54.853 8.94-2.698.239-10.194-5.072-10.587-2.165-.393 2.903 14.353 51.186 14.054 52.8-.145.777-19.305 5.191-37.226 8.286-19.309 3.338-37.47 5.421-37.2 7.701.512 4.393 12.755 10.715 17.759 12.274 5.003 1.558 22.34-6.139 23.355-4.479 1.02 1.665 4.641 15.313 11.54 23.066 6.898 7.752 17.648 19.001 21.84 19.958 4.192.952-10.758-44.834-11.765-48.573-.543-2.02 12.136-3.001 20.307-4.893 6.984-1.613 9.461-4.375 10.972-3.667 3.274 1.541 4.866 2.412 5.105 3.872.24 1.465-.981 3.33-1.801 4.525-.811 1.196-23.877 4.013-24.901 7.753-1.029 3.74 7.317 9.49 10.724 10.604 3.406 1.114 24.879-5.392 27.219-6.228 2.344-.837 5.242-4.568 6.544-5.059 1.302-.487 5.187-.162 6.429-.564 1.238-.401 3.552-2.809 5.123-2.062 1.567.743 5.507 20.163 18.344 15.621 12.841-4.542-5.024-28.112-8.307-31.126-3.287-3.014 15.099-1.887 18.608-1.379 3.505.513 5.217 5.7 6.831 10.707 1.609 5.004-21.61 37.025-24.876 38.733-3.27 1.703-25.494-24.167-26.792-19.189-1.298 4.982 11.868 23.672 13.708 28.167 1.835 4.495-.363 6.335.205 7.543.567 1.204 5.776 4.7 8.469 5.055 2.69.354 20.624-7.642 29.999-14.972 9.375-7.33 22.105-24.508 25.14-27.356 3.031-2.843 18.668-5.319 17.819-8.636-.85-3.321-.687-1.486-6.668-7.052-5.977-5.571-20.022-20.79-29.371-24.449-3.518-1.379-8.551-2.963-13.67-3.215-8.474-.409-16.837 1.11-16.448.5.623-.982 10.015-20.205 10.583-24.615.568-4.415 10.6-7.356 13.174-10.314 2.579-2.959-28.901-15.484-37.38-16.107a18.14 18.14 0 0 0-2.006-.005zm-5.58 11.411c2.28-.029 4 .094 4.88.419 5.614 2.062 5.328 2.771 4.948 6.66-.043.426.115 1.664-.329 1.635-2.263-.171-8.653.311-16.282.994.175-4.042.444-7.415.837-9.392 2.202-.17 4.247-.294 5.946-.316zm-20.995 2.092c.444 2.007.743 5.136.914 8.85-6.626.64-13.375 1.311-19.488 1.861-.683-3.103-1.178-5.315-1.178-5.891-.103-1.238 9.374-3.27 19.752-4.82zm23.249 16.052c2.485.008 4.005.102 3.979.299-.136 1.037-1.592 6.984-2.297 6.971-3.651-.025-7.303 0-10.954.073-.014-2.384-.009-4.768.017-7.151 3.084-.11 6.17-.173 9.255-.188v-.004zm-22.152.734c.009 2.322-.021 4.7-.085 7.074-5.503.316-11.181.794-16.205 1.558-.559-2.348-2.036-5.789-1.635-6.98.171-.521 8.538-1.161 17.925-1.652zm16.381 14.557c3.479.009 5.874.129 6.087.38.854.991 1.136 10.344.342 10.434-1.908.213-5.379.491-9.315.764a227 227 0 0 1-.5-11.518c1.102-.013 2.421-.064 3.386-.06zm-16.807.538c-.299 4.893-.735 9.179-1.298 11.847-5.08.188-9.384.256-9.84-.077-1.238-.896-2.72-7.684-2.677-9.789.017-.879 6.416-1.545 13.815-1.981zm19.637 20.022c2.182-.017 4.03.226 4.047.811.043 1.435.056 4.922-.179 5.315-.406.662-2.647.47-5.063.939-2.476.478-5.127 1.605-5.319.858-.154-.593-.444-4.866-.538-6.395-.056-.913 3.859-1.498 7.052-1.528z" fill="#B93C3C"/></g><defs><clipPath id="a"><rect width="300" height="420" rx="40" fill="#fff"/></clipPath></defs></svg>