<svg width="300" height="420" fill="none" xmlns="http://www.w3.org/2000/svg"><g clip-path="url(#a)"><path d="M107.378 55.816c-3.437 3.082 16.342 18.301 25.956 17.968 9.618-.329 22.071-7.47 28.722-6.941 6.651.525 15.893.085 18.203-2.442 2.305-2.532-11.74-22.272-20.363-18.767-8.628 3.5-16.893 7.381-25.773 9.136-8.875 1.759-23.308-2.037-26.745 1.046zm11.582 42.929c-1.716 4.709 16.094 16.653 21.362 16.572 5.268-.081 32.487-3.863 34.144-7.189 1.656-3.321-4.474-18.169-13.576-17.375-4.977.44-15.347 3.774-25.085 5.307-8.064 1.268-16.068.55-16.845 2.685zm-55.113 45.324c-.97 4.581 20.948 22.216 32.35 20.965 11.399-1.25 71.827-10.681 95.264-10.544 23.437.128 40.889 12.978 44.304 5.755 3.415-7.232-14.639-32.146-31.945-30.554-17.307 1.597-56.138 8.76-79.707 11.219-23.574 2.459-59.297-1.426-60.266 3.159z" fill="#1E39CD"/><path d="M165.522 180.104a1.278 1.278 0 0 0-.414.026c-3.889 1.042-26.37 22.528-26.37 22.528s-18.732-19.595-20.355-18.233c-.982.828 3.104 20.798 8.683 34.045 3.621 8.589 8.043 12.666 11.527 12.551 2.544-.085 5.558-1.725 8.111-6.331 2.694-4.867 4.931-12.875 7.77-18.711 3.833-7.868 9.05-14.805 9.72-15.151 1.639-.845 7.45 7.108 6.886 9.14-.563 2.032-10.079 15.125-12.679 23.253-.683 2.135-1.404 4.773-2.04 7.506-7.719 1.822-14.963 3.551-17.41 4.012-6.318 1.196-20.013 1.49-20.666 3.894-.653 2.407 13.469 9.477 16.871 9.285 1.294-.077 9.52-1.55 19.51-2.946.188 1.315.606 2.195 1.357 2.348.978.201 2.088-1.012 3.343-2.98 3.143-.411 6.293-.774 9.447-1.088 12.449-1.208 24.534 0 26.135-1.546 3.129-3.031-10.95-15.667-11.97-16.551-.41-.35-6.57.94-14.156 2.664.973-1.391 1.985-2.689 3.048-3.786 7.355-7.565 24.846-19.429 28.082-20.94 1.728-.811-7.339-6.916-16.65-12.914-7.603-4.896-15.351-9.87-17.78-10.075zm6.48 67.664c-12.013.513-52.321 8.714-54.857 8.94-2.698.239-10.19-5.072-10.587-2.165-.393 2.903 14.357 51.186 14.054 52.8-.145.777-19.305 5.191-37.222 8.286-19.313 3.338-37.47 5.421-37.205 7.701.513 4.393 12.76 10.715 17.76 12.274 5.007 1.558 22.34-6.139 23.36-4.479 1.016 1.665 4.64 15.313 11.535 23.066 6.898 7.752 17.648 19.001 21.84 19.958 4.196.952-10.758-44.834-11.765-48.573-.543-2.02 12.136-3.001 20.312-4.893 6.979-1.613 9.46-4.375 10.971-3.667 3.274 1.541 4.867 2.412 5.101 3.872.24 1.465-.981 3.33-1.797 4.525-.815 1.196-23.876 4.013-24.905 7.753-1.025 3.74 7.317 9.49 10.728 10.604 3.406 1.114 24.875-5.392 27.219-6.228 2.34-.837 5.242-4.568 6.544-5.059 1.303-.487 5.183-.162 6.425-.564 1.243-.401 3.552-2.809 5.123-2.062 1.567.743 5.507 20.163 18.348 15.621 12.837-4.542-5.024-28.112-8.311-31.126-3.287-3.014 15.104-1.887 18.613-1.378 3.5.512 5.212 5.699 6.826 10.706 1.614 5.004-21.61 37.025-24.876 38.733-3.266 1.703-25.494-24.167-26.792-19.189-1.294 4.982 11.868 23.672 13.712 28.167 1.836 4.495-.363 6.335.205 7.543.568 1.204 5.776 4.7 8.47 5.055 2.689.354 20.619-7.642 29.994-14.972 9.379-7.33 22.105-24.508 25.14-27.356 3.035-2.843 18.668-5.319 17.819-8.636-.845-3.321-.687-1.486-6.664-7.052-5.977-5.571-20.022-20.79-29.371-24.449-3.522-1.379-8.551-2.963-13.674-3.215-8.469-.409-16.837 1.11-16.448.5.623-.982 10.015-20.205 10.587-24.615.564-4.415 10.596-7.356 13.174-10.314 2.574-2.959-28.901-15.484-37.379-16.107a18.158 18.158 0 0 0-2.007-.005zm-5.584 11.411c2.28-.029 4.005.094 4.88.419 5.614 2.062 5.328 2.771 4.952 6.66-.043.427.115 1.665-.329 1.635-2.262-.171-8.653.311-16.282.994.171-4.042.444-7.415.837-9.392 2.198-.17 4.243-.294 5.942-.316zm-20.995 2.092c.444 2.007.743 5.136.918 8.85-6.63.64-13.375 1.311-19.492 1.861-.679-3.103-1.178-5.315-1.178-5.891-.099-1.238 9.374-3.27 19.752-4.82zm23.249 16.052c2.489.008 4.005.102 3.979.299-.137 1.037-1.592 6.984-2.297 6.971-3.651-.025-7.303 0-10.954.073-.013-2.391-.008-4.794.017-7.151 3.084-.11 6.17-.173 9.255-.188v-.004zm-22.147.734c.008 2.322-.026 4.7-.086 7.074-5.507.316-11.185.794-16.209 1.558-.555-2.348-2.036-5.789-1.635-6.98.171-.521 8.542-1.161 17.93-1.652zm16.376 14.557c3.479.009 5.878.129 6.092.381.849.99 1.131 10.343.341 10.433-3.1.31-6.206.565-9.315.764a228.174 228.174 0 0 1-.504-11.518c1.106-.013 2.425-.064 3.386-.06zm-16.803.538c-.299 4.893-.739 9.179-1.302 11.847-5.08.188-9.379.256-9.84-.077-1.238-.896-2.716-7.684-2.677-9.789.017-.879 6.416-1.545 13.819-1.981zm19.633 20.022c2.186-.017 4.034.226 4.051.811.039 1.435.056 4.922-.183 5.315-.402.662-2.647.47-5.063.939-2.476.478-5.127 1.605-5.319.858-.15-.593-.444-4.866-.534-6.395-.056-.913 3.859-1.498 7.048-1.528z" fill="#B93C3C"/></g><defs><clipPath id="a"><rect width="300" height="420" rx="40" fill="#fff"/></clipPath></defs></svg>