<svg width="300" height="420" fill="none" xmlns="http://www.w3.org/2000/svg"><g clip-path="url(#a)"><path d="M178.272 52.737c-10.442.154-22.984 1.827-33.896 4.414-26.502 6.275-49.456 17.033-57.303 17.306-13.02.462-27.108-8.43-23.543 1.11 3.56 9.542 20.517 46.533 27.535 56.334 2.988 4.184 10.455 14.579 15.249 17.217 6.57 3.616 12.922-.534 14.66-3.812 1.127-2.122 5.805-3.701 11.466-4.824 1.682 2.625 3.27 3.791 4.649 2.715.871-.683 1.452-1.994 1.806-3.757 7.91-1.046 15.906-1.374 18.224-1.152 4.735.444 3.394 13.874 13.362 17.938 9.977 4.064 22.003-6.818 33.392-17.123 11.386-10.305 26.712-34.489 32.189-41.794 2.945-3.927-.939-11.948-10.067-21.52-7.837-8.213-19.761-18.092-32-21.58-3.949-1.122-9.456-1.57-15.723-1.477v.005zm3.714 14.753c4.525-.17 8.402.462 11.296 2.57 9.26 6.754 11.488 9.81 13.272 21.888 1.781 12.072-32.453 49.58-34.809 44.487-2.16-4.662-5.904-9.063-14.139-11.936a130.112 130.112 0 0 0 12.807-10.942c10.173-9.836 18.352-21.046 18.352-21.046s2.195-9.571-1.694-14.258c-3.894-4.692-20.91-9.82-23.437-4.521-2.532 5.302 5.345 14.365 3.048 18.25-1.067 1.805-8.709 8.324-14.647 16.009-4.419 5.711-8.051 11.983-9.281 16.606-1.276.307-2.561.628-3.872.99-1.742-17.434-7.641-41.623-7.018-45.08.935-5.166-19.574-1.05-17.789 3.534 1.131 2.903 7.057 28.265 13.157 44.944-4.781 1.367-8.922 2.306-11.181 1.648-6.689-1.951-16.166-38.382-16.235-42.784-.072-4.397 28.005-13.6 46.443-14.869 12.679-.87 25.768-5.114 35.727-5.49z" fill="#1E39CD"/><path d="M165.518 180.105a1.278 1.278 0 0 0-.414.026c-3.889 1.041-26.37 22.527-26.37 22.527s-18.732-19.594-20.35-18.232c-.982.828 3.103 20.798 8.683 34.045 3.616 8.589 8.038 12.666 11.526 12.551 2.54-.086 5.558-1.725 8.107-6.331 2.698-4.867 4.931-12.876 7.774-18.711 3.829-7.868 9.05-14.805 9.716-15.151 1.639-.845 7.449 7.108 6.886 9.14-.559 2.032-10.079 15.125-12.679 23.253-.683 2.135-1.404 4.773-2.041 7.505-7.718 1.823-14.962 3.552-17.408 4.013-6.319 1.195-20.014 1.49-20.667 3.893-.653 2.408 13.469 9.477 16.871 9.285 1.294-.076 9.52-1.549 19.51-2.945.188 1.315.61 2.194 1.357 2.348.978.2 2.092-1.012 3.343-2.98 3.143-.412 6.293-.775 9.447-1.089 12.449-1.208 24.534 0 26.135-1.545 3.129-3.031-10.95-15.667-11.97-16.551-.41-.35-6.566.939-14.152 2.664.969-1.392 1.981-2.69 3.048-3.787 7.351-7.564 24.846-19.428 28.077-20.939 1.729-.811-7.338-6.916-16.649-12.914-7.603-4.896-15.351-9.87-17.78-10.075zm6.48 67.664c-12.013.512-52.321 8.713-54.857 8.939-2.698.239-10.19-5.071-10.587-2.164-.388 2.903 14.357 51.185 14.058 52.799-.145.777-19.309 5.191-37.226 8.286-19.308 3.339-37.469 5.422-37.2 7.701.513 4.393 12.756 10.716 17.76 12.274 5.003 1.558 22.339-6.139 23.355-4.478 1.016 1.664 4.64 15.313 11.54 23.065 6.894 7.753 17.643 19.001 21.839 19.958 4.193.952-10.757-44.833-11.765-48.573-.546-2.019 12.137-3.001 20.308-4.892 6.979-1.614 9.46-4.376 10.971-3.667 3.274 1.541 4.867 2.412 5.106 3.872.235 1.464-.982 3.329-1.802 4.525-.815 1.195-23.876 4.012-24.905 7.752-1.025 3.74 7.321 9.49 10.728 10.604 3.407 1.115 24.88-5.391 27.219-6.228 2.344-.837 5.242-4.568 6.544-5.059 1.302-.486 5.183-.162 6.425-.563 1.243-.402 3.556-2.809 5.123-2.062 1.571.742 5.507 20.162 18.348 15.62s-5.024-28.111-8.311-31.125c-3.288-3.014 15.103-1.887 18.612-1.379 3.501.512 5.217 5.699 6.831 10.706 1.609 5.004-21.614 37.026-24.88 38.733-3.266 1.703-25.494-24.167-26.788-19.189-1.298 4.982 11.868 23.672 13.703 28.167 1.845 4.495-.358 6.335.21 7.543.567 1.204 5.776 4.7 8.469 5.055 2.69.354 20.62-7.642 29.999-14.972 9.374-7.33 22.1-24.508 25.136-27.355 3.035-2.844 18.668-5.32 17.823-8.637-.854-3.321-.692-1.485-6.668-7.052-5.977-5.571-20.022-20.79-29.371-24.449-3.518-1.379-8.551-2.962-13.674-3.214-8.47-.41-16.837 1.11-16.448.499.627-.982 10.015-20.205 10.587-24.615.563-4.414 10.595-7.355 13.174-10.314 2.574-2.958-28.901-15.483-37.38-16.107a18.14 18.14 0 0 0-2.006-.004zm-5.584 11.411c2.28-.03 4.005.094 4.88.418 5.614 2.062 5.328 2.771 4.952 6.66-.043.427.115 1.665-.329 1.635-2.263-.171-8.653.312-16.282.995.171-4.043.444-7.415.837-9.392 2.198-.171 4.243-.295 5.942-.316zm-20.99 2.092c.444 2.006.738 5.136.913 8.85-6.63.64-13.375 1.31-19.488 1.861-.683-3.104-1.178-5.315-1.178-5.891-.103-1.238 9.375-3.27 19.753-4.82zm23.244 16.051c2.489.009 4.009.103 3.983.299-.141 1.038-1.592 6.984-2.296 6.971-3.653-.024-7.307 0-10.959.073-.013-2.391-.009-4.794.017-7.151 3.084-.11 6.169-.172 9.255-.187v-.005zm-22.147.735c.008 2.322-.026 4.7-.086 7.073-5.507.316-11.185.794-16.209 1.558-.555-2.347-2.036-5.788-1.635-6.979.175-.521 8.546-1.162 17.93-1.652zm16.376 14.557c3.479.008 5.878.128 6.091.38.85.99 1.132 10.344.342 10.433-3.1.31-6.206.565-9.315.764a228.134 228.134 0 0 1-.504-11.517c1.106-.013 2.425-.064 3.386-.06zm-16.803.538c-.299 4.892-.734 9.178-1.302 11.846-5.08.188-9.379.256-9.836-.077-1.238-.896-2.719-7.684-2.681-9.788.017-.88 6.421-1.546 13.819-1.981zm19.633 20.021c2.186-.017 4.034.227 4.051.812.039 1.434.056 4.922-.183 5.314-.402.662-2.647.47-5.063.94-2.476.478-5.123 1.605-5.32.858-.149-.594-.439-4.867-.533-6.395-.056-.914 3.855-1.499 7.048-1.529z" fill="#B93C3C"/></g><defs><clipPath id="a"><rect width="300" height="420" rx="40" fill="#fff"/></clipPath></defs></svg>