<svg width="300" height="420" fill="none" xmlns="http://www.w3.org/2000/svg"><g clip-path="url(#a)"><path d="M115.369 34.204c-.223.041-.427.15-.585.312-3.091 2.885-2.946 7.543-4.854 10.288s-7.317 4.021-5.601 6.254c1.716 2.237 8.209 4.85 12.495 9.537 2.4 2.625-15.744 31.48-33.443 53.589-13.917 17.383-28.397 28.764-26.703 32.346 1.994 4.209 21.06-6.805 42.63-27.45 3.945-3.782 7.109-10.019 11.143-13.631 16.137-14.438 29.366-28.61 30.489-32.747 1.4-5.153 1.874-11.958-1.4-15.825-3.27-3.868-9.691-4.978-13.904-6.31-3.949-1.247-7.317-16.803-10.267-16.363zm77.205 8.359c-13.422.064-35.86 13.02-41.636 15.838-6.164 3.005 14.446 9.4 21.038 6.915.828-.311 2.07-.563 3.628-.772-3.825 7.287-10.536 20.303-17.831 34.412-2.737.256-5.644.47-8.526.546-11.739.316-22.881-.546-24.145 1.537-2.403 3.954 12.645 15.954 16.798 16.235 1.115.077 3.655-.226 6.724-.691-6.89 13.212-13.379 25.465-18.002 33.734-13.618 2.036-16.444 3.078-14.984 8.042 3.56 12.052 10.595 10.118 20.051 10.451 4.201.145 15.983-1.486 29.311-3.262.104.358.267.696.483.999 1.165 1.567 3.449.641 6.463-1.912 14.813-1.925 30.352-3.727 39.283-3.368 18.626.751 28.641 15.654 31.48 7.543 2.843-8.111-2.083-22.733-20.47-29.226-4.013-1.421-15.958-.384-29.917 1.46 6.369-7.897 15.411-17.737 16.363-21.089 2.886-10.16-7.104-17.4-13.977-21.32-3.436-1.954-8.324-2.526-12.751-2.023 6.676-12.627 13.165-24.93 18.493-33.127 7.936-.111 15.134-.213 17.972-.709 6.967-1.208-10.377-18.177-23.291-20.047a17.295 17.295 0 0 0-2.557-.17v.004zm-76.168 61.682c-7.727-.341-24.615 35.864-27.309 51.011-2.826 15.889 21.196 30.062 22.733 16.235 1.199-10.826 7.078-31.121 9.067-46.643 1.315-10.233-.598-18.579-3.419-20.278a2.231 2.231 0 0 0-1.068-.325h-.004zm59.514 3.646c3.757 2.86 8.752 5.751 10.101 8.346 1.157 2.229-7.177 11.074-12.854 21.533a90.506 90.506 0 0 0-3.219 6.561c-5.917.923-11.603 1.823-16.799 2.639a699.894 699.894 0 0 0 20.509-34.852c.751-1.367 1.511-2.831 2.262-4.227z" fill="#1E39CD"/><path d="M165.52 180.105a1.278 1.278 0 0 0-.414.026c-3.889 1.041-26.37 22.527-26.37 22.527s-18.732-19.594-20.35-18.232c-.982.828 3.103 20.798 8.683 34.045 3.616 8.589 8.038 12.666 11.526 12.551 2.54-.086 5.554-1.725 8.107-6.331 2.698-4.867 4.931-12.876 7.77-18.711 3.833-7.868 9.05-14.805 9.72-15.151 1.639-.845 7.45 7.108 6.886 9.14-.563 2.032-10.079 15.125-12.679 23.253-.683 2.135-1.404 4.773-2.04 7.505-7.719 1.823-14.963 3.552-17.409 4.013-6.319 1.195-20.014 1.49-20.667 3.893-.653 2.408 13.469 9.477 16.871 9.285 1.294-.076 9.52-1.549 19.51-2.945.188 1.315.606 2.194 1.357 2.348.978.2 2.092-1.012 3.343-2.98 3.143-.412 6.293-.775 9.447-1.089 12.449-1.208 24.534 0 26.135-1.545 3.129-3.031-10.95-15.667-11.97-16.551-.41-.35-6.566.939-14.156 2.664.973-1.392 1.985-2.69 3.052-3.787 7.351-7.564 24.846-19.428 28.077-20.939 1.729-.811-7.338-6.916-16.649-12.914-7.603-4.896-15.351-9.87-17.78-10.075zm6.48 67.664c-12.013.512-52.321 8.713-54.857 8.939-2.698.239-10.19-5.071-10.587-2.164-.392 2.903 14.357 51.185 14.058 52.799-.145.777-19.309 5.191-37.226 8.286-19.313 3.339-37.469 5.422-37.204 7.701.512 4.393 12.76 10.716 17.76 12.274 5.007 1.558 22.339-6.139 23.359-4.478 1.016 1.664 4.64 15.313 11.54 23.065 6.894 7.753 17.643 19.001 21.839 19.958 4.193.952-10.757-44.833-11.765-48.573-.546-2.019 12.137-3.001 20.308-4.892 6.98-1.614 9.46-4.376 10.971-3.667 3.274 1.541 4.867 2.412 5.106 3.872.235 1.464-.982 3.329-1.802 4.525-.815 1.195-23.876 4.012-24.905 7.752-1.025 3.74 7.317 9.49 10.728 10.604 3.407 1.115 24.88-5.391 27.219-6.228 2.344-.837 5.242-4.568 6.544-5.059 1.303-.486 5.183-.162 6.425-.563 1.243-.402 3.556-2.809 5.123-2.062 1.567.742 5.507 20.162 18.348 15.62s-5.024-28.111-8.311-31.125c-3.288-3.014 15.103-1.887 18.612-1.379 3.501.512 5.213 5.699 6.831 10.706 1.609 5.004-21.614 37.026-24.88 38.733-3.266 1.703-25.494-24.167-26.788-19.189-1.298 4.982 11.868 23.672 13.703 28.167 1.84 4.495-.358 6.335.21 7.543.568 1.204 5.776 4.7 8.469 5.055 2.69.354 20.62-7.642 29.999-14.972 9.374-7.33 22.1-24.508 25.136-27.355 3.035-2.844 18.668-5.32 17.823-8.637-.854-3.321-.692-1.485-6.668-7.052-5.977-5.571-20.022-20.79-29.371-24.449-3.522-1.379-8.551-2.962-13.674-3.214-8.47-.41-16.837 1.11-16.448.499.627-.982 10.015-20.205 10.587-24.615.563-4.414 10.595-7.355 13.174-10.314 2.574-2.958-28.901-15.483-37.379-16.107a18.159 18.159 0 0 0-2.007-.004zm-5.584 11.411c2.28-.03 4.005.094 4.88.418 5.614 2.062 5.328 2.771 4.952 6.66-.043.427.115 1.665-.329 1.635-2.262-.171-8.653.312-16.282.995.171-4.043.444-7.416.837-9.392 2.198-.171 4.243-.295 5.942-.316zm-20.99 2.092c.444 2.006.738 5.136.913 8.85-6.63.64-13.375 1.31-19.492 1.861-.679-3.104-1.178-5.315-1.178-5.891-.099-1.238 9.379-3.27 19.757-4.82zm23.244 16.051c2.489.009 4.009.103 3.979.299-.137 1.038-1.588 6.984-2.292 6.971-3.653-.024-7.307 0-10.959.073-.013-2.391-.009-4.794.017-7.151 3.084-.11 6.169-.173 9.255-.187v-.005zm-22.147.735c.008 2.322-.026 4.7-.086 7.073-5.507.316-11.184.794-16.209 1.558-.555-2.347-2.036-5.788-1.635-6.979.171-.521 8.542-1.162 17.93-1.652zm16.376 14.557c3.479.008 5.878.128 6.091.38.85.99 1.132 10.344.342 10.433-3.1.31-6.206.565-9.315.764a228.134 228.134 0 0 1-.504-11.517c1.106-.013 2.425-.064 3.386-.06zm-16.803.538c-.299 4.892-.739 9.178-1.302 11.846-5.08.188-9.379.256-9.836-.077-1.238-.896-2.719-7.684-2.681-9.788.017-.88 6.421-1.546 13.819-1.981zm19.633 20.021c2.186-.017 4.034.227 4.051.812.039 1.434.056 4.922-.183 5.314-.402.662-2.647.47-5.063.94-2.476.478-5.123 1.605-5.32.858-.149-.594-.444-4.867-.533-6.395-.056-.914 3.859-1.499 7.048-1.529z" fill="#B93C3C"/></g><defs><clipPath id="a"><rect width="300" height="420" rx="40" fill="#fff"/></clipPath></defs></svg>