<svg width="300" height="420" fill="none" xmlns="http://www.w3.org/2000/svg"><g clip-path="url(#a)"><path d="M141.637 30.878c-4.098.056-6.101 10.13-6.318 13.162-.261 3.59 1.823 1.135 6.134 4.892 2.54 2.216.969 17.405-.264 29.554l-3.646.957c-22.045 5.746-75.075 3.714-75.438 6.198-.363 2.48 3.176 14.694 29.508 16.376 26.331 1.682 75.719-12.175 99.433-14.143 23.71-1.972 41.367 10.544 46.276.87 4.91-9.668-21.955-24.239-27.108-24-16.427.756-36.137 5.264-54.203 9.883 8.563-11.599 18.245-24.7 22.433-28.098 6.182-5.012-15.94-6.6-27.731-10.404-3.266-1.054-5.448-3.159-6.575-4.137-.909-.785-1.741-1.118-2.501-1.11zm-18.869 71.899c-2.109.115-5.388 12.145-5.806 16.777-.47 5.11 4.478 3.778 1.942 13.405-2.535 9.631-31.155 43.027-32.23 46.43-1.08 3.406 24.708-6.062 34.869-15.249 10.164-9.183 28.047-26.319 24.849-35.015-3.193-8.696-7.778-11.569-13.438-12.837-5.661-1.263-7.561-10.314-9.576-13.14-.188-.264-.393-.384-.61-.371zm20.478.555c-1.763-.026-2.284.696-1.088 2.356 7.667 10.622 19.774 24.94 29.084 36.71 9.311 11.769 8.564 34.275 25.7 31.906 17.131-2.365 14.899-18.506 7.62-35.014-6.139-13.926-51.8-35.834-61.316-35.958z" fill="#1E39CD"/><path d="M165.52 180.105a1.28 1.28 0 0 0-.414.026c-3.889 1.041-26.37 22.527-26.37 22.527s-18.732-19.594-20.35-18.232c-.982.828 3.103 20.798 8.683 34.045 3.616 8.589 8.038 12.666 11.526 12.551 2.54-.086 5.554-1.725 8.107-6.331 2.698-4.867 4.931-12.876 7.77-18.711 3.833-7.868 9.05-14.805 9.72-15.151 1.64-.845 7.45 7.108 6.886 9.14-.563 2.032-10.079 15.125-12.679 23.253-.683 2.135-1.404 4.773-2.04 7.505-7.719 1.823-14.963 3.552-17.409 4.013-6.319 1.195-20.014 1.49-20.667 3.893-.653 2.408 13.469 9.477 16.871 9.285 1.294-.076 9.52-1.549 19.51-2.945.188 1.315.606 2.194 1.357 2.348.978.2 2.092-1.012 3.343-2.98 3.143-.412 6.293-.775 9.447-1.089 12.449-1.208 24.534 0 26.135-1.545 3.129-3.031-10.95-15.667-11.97-16.551-.41-.35-6.566.939-14.156 2.664.973-1.392 1.985-2.69 3.052-3.787 7.351-7.564 24.846-19.428 28.077-20.939 1.729-.811-7.338-6.916-16.649-12.914-7.603-4.896-15.351-9.87-17.78-10.075zm6.48 67.664c-12.013.512-52.321 8.713-54.857 8.939-2.698.239-10.19-5.071-10.587-2.164-.392 2.903 14.357 51.185 14.058 52.799-.145.777-19.308 5.191-37.226 8.286-19.313 3.339-37.469 5.422-37.204 7.701.512 4.393 12.76 10.716 17.76 12.274 5.007 1.558 22.343-6.139 23.36-4.478 1.015 1.664 4.64 15.313 11.538 23.065 6.895 7.753 17.644 19.001 21.841 19.958 4.192.952-10.758-44.833-11.766-48.573-.546-2.019 12.137-3.001 20.308-4.892 6.98-1.614 9.46-4.376 10.971-3.667 3.274 1.541 4.867 2.412 5.106 3.872.235 1.464-.982 3.329-1.802 4.525-.815 1.195-23.876 4.012-24.905 7.752-1.025 3.74 7.317 9.49 10.728 10.604 3.407 1.115 24.88-5.391 27.219-6.228 2.344-.837 5.242-4.568 6.544-5.059 1.303-.486 5.183-.162 6.425-.563 1.243-.402 3.556-2.809 5.123-2.062 1.567.742 5.507 20.162 18.348 15.62s-5.024-28.111-8.311-31.125c-3.287-3.014 15.103-1.887 18.613-1.379 3.5.512 5.212 5.699 6.83 10.706 1.609 5.004-21.614 37.026-24.88 38.733-3.266 1.703-25.494-24.167-26.788-19.189-1.298 4.982 11.868 23.672 13.704 28.167 1.844 4.495-.359 6.335.209 7.543.568 1.204 5.776 4.7 8.469 5.055 2.69.354 20.62-7.642 29.999-14.972 9.374-7.33 22.1-24.508 25.136-27.355 3.035-2.844 18.668-5.32 17.823-8.637-.854-3.321-.692-1.485-6.668-7.052-5.977-5.571-20.022-20.79-29.371-24.449-3.522-1.379-8.551-2.962-13.674-3.214-8.469-.41-16.837 1.11-16.448.499.627-.982 10.015-20.205 10.587-24.615.563-4.414 10.596-7.355 13.174-10.314 2.574-2.958-28.901-15.483-37.379-16.107a18.158 18.158 0 0 0-2.007-.004zm-5.584 11.411c2.28-.03 4.005.094 4.88.418 5.614 2.062 5.328 2.771 4.952 6.66-.043.427.115 1.665-.329 1.635-2.263-.171-8.653.312-16.282.995.171-4.043.444-7.415.837-9.392 2.198-.171 4.243-.295 5.942-.316zm-20.99 2.092c.444 2.006.738 5.136.913 8.85-6.63.64-13.375 1.31-19.492 1.861-.679-3.104-1.178-5.315-1.178-5.891-.098-1.238 9.379-3.27 19.757-4.82zm23.244 16.051c2.489.009 4.009.103 3.983.299-.14 1.038-1.592 6.984-2.296 6.971-3.653-.024-7.307 0-10.959.073-.013-2.391-.008-4.794.017-7.151 3.084-.11 6.169-.172 9.255-.187v-.005zm-22.147.735c.008 2.322-.026 4.7-.086 7.073-5.507.316-11.184.794-16.209 1.558-.555-2.347-2.036-5.788-1.635-6.979.175-.521 8.546-1.162 17.93-1.652zm16.376 14.557c3.479.008 5.878.128 6.091.38.85.99 1.132 10.344.342 10.433-3.1.31-6.206.565-9.315.764a228.134 228.134 0 0 1-.504-11.517c1.106-.013 2.425-.064 3.386-.06zm-16.803.538c-.299 4.892-.739 9.178-1.302 11.846-5.08.188-9.379.256-9.836-.077-1.238-.896-2.719-7.684-2.681-9.788.017-.88 6.421-1.546 13.819-1.981zm19.633 20.021c2.186-.017 4.034.227 4.051.812.039 1.434.056 4.922-.183 5.314-.401.662-2.647.47-5.063.94-2.476.478-5.123 1.605-5.319.858-.15-.594-.444-4.867-.534-6.395-.056-.914 3.855-1.499 7.044-1.529h.004z" fill="#B93C3C"/></g><defs><clipPath id="a"><rect width="300" height="420" rx="40" fill="#fff"/></clipPath></defs></svg>