<svg width="300" height="420" fill="none" xmlns="http://www.w3.org/2000/svg"><g clip-path="url(#a)"><path d="M129.774 30.5c-1.878.162-4.67 6.907-6.958 8.888-2.604 2.262-4.547 2.07-7.454 4.867-2.911 2.791 8.683 4.606 14.865 12.158 4.405 5.383-1.87 41.657.269 69.584-1.981 1.781-4.013 3.646-5.943 5.35-12.294 10.881-24.794 20.235-31.565 24.802-25.298 17.059-24.034 8.056-27.689 13.17-3.65 5.119 20.108 13.956 31.05 9.618 4.823-1.908 19.286-18.25 37.045-35.936 1.23 4.008 2.869 7.466 5.038 10.135 16.879 20.781 53.542 18.796 60.705 18.07 7.172-.726 11.654-8.179 11.125-17.473-.525-9.289-10.882-13.328-17.947-12.15-7.065 1.179-24.5 12.167-34.088 6.959-6.659-3.624-9.434-10.566-10.865-18.98 19.386-17.81 41.884-32.965 47.668-38.626 12.91-12.645 34.05-8.803 38.195-14.258 4.15-5.448.786-11.736-4.721-15.992-5.503-4.26-17.815-5.785-23.202-3.684-3.083 1.204-30.097 27.718-57.82 53.469 1.469-3.296 3.753-6.536 5.567-11.074 3.069-7.663 4.751-19.014 5.481-24.538 1.46-11.031 10.331-19.936 10.118-23.95-.214-4-17.853-1.165-24.479-4.973-6.625-3.807-11.825-12.845-13.648-15.07-.226-.28-.478-.392-.747-.366z" fill="#1E39CD"/><path d="M165.518 180.105a1.284 1.284 0 0 0-.41.026c-3.893 1.041-26.37 22.527-26.37 22.527s-18.736-19.594-20.354-18.232c-.982.828 3.103 20.798 8.683 34.045 3.62 8.589 8.043 12.666 11.526 12.551 2.54-.086 5.558-1.725 8.111-6.331 2.694-4.867 4.931-12.876 7.77-18.711 3.829-7.868 9.05-14.805 9.72-15.151 1.635-.845 7.445 7.108 6.886 9.14-.563 2.032-10.083 15.125-12.679 23.253-.687 2.135-1.409 4.773-2.04 7.505-7.719 1.823-14.968 3.552-17.414 4.013-6.318 1.195-20.009 1.49-20.662 3.893-.657 2.408 13.465 9.477 16.871 9.285 1.294-.076 9.52-1.549 19.505-2.945.193 1.315.611 2.194 1.362 2.348.974.2 2.088-1.012 3.339-2.98 3.144-.412 6.295-.775 9.451-1.089 12.444-1.208 24.534 0 26.131-1.545 3.129-3.031-10.946-15.667-11.97-16.551-.406-.35-6.566.939-14.152 2.664.973-1.392 1.981-2.69 3.048-3.787 7.351-7.564 24.845-19.428 28.077-20.939 1.729-.811-7.334-6.916-16.649-12.914-7.599-4.896-15.347-9.87-17.78-10.075zm6.48 67.664c-12.013.512-52.321 8.713-54.853 8.939-2.698.239-10.194-5.071-10.587-2.164-.392 2.903 14.353 51.185 14.054 52.799-.145.777-19.304 5.191-37.226 8.286-19.308 3.339-37.469 5.422-37.2 7.701.513 4.393 12.756 10.716 17.76 12.274 5.002 1.558 22.339-6.139 23.355-4.478 1.02 1.664 4.64 15.313 11.539 23.065 6.899 7.753 17.648 19.001 21.84 19.958 4.192.952-10.758-44.833-11.765-48.573-.542-2.019 12.137-3.001 20.308-4.892 6.984-1.614 9.46-4.376 10.971-3.667 3.274 1.541 4.867 2.412 5.106 3.872.239 1.464-.982 3.329-1.802 4.525-.811 1.195-23.876 4.012-24.901 7.752-1.029 3.74 7.317 9.49 10.724 10.604 3.406 1.115 24.879-5.391 27.219-6.228 2.344-.837 5.242-4.568 6.544-5.059 1.302-.486 5.187-.162 6.429-.563 1.238-.402 3.552-2.809 5.123-2.062 1.567.742 5.507 20.162 18.344 15.62 12.841-4.542-5.024-28.111-8.307-31.125-3.287-3.014 15.099-1.887 18.608-1.379 3.505.512 5.217 5.699 6.831 10.706 1.609 5.004-21.61 37.026-24.876 38.733-3.27 1.703-25.494-24.167-26.792-19.189-1.298 4.982 11.868 23.672 13.708 28.167 1.835 4.495-.363 6.335.205 7.543.567 1.204 5.776 4.7 8.469 5.055 2.69.354 20.624-7.642 29.999-14.972 9.374-7.33 22.104-24.508 25.14-27.355 3.031-2.844 18.668-5.32 17.819-8.637-.85-3.321-.688-1.485-6.669-7.052-5.976-5.571-20.021-20.79-29.37-24.449-3.518-1.379-8.551-2.962-13.67-3.214-8.474-.41-16.837 1.11-16.448.499.623-.982 10.015-20.205 10.583-24.615.567-4.414 10.6-7.355 13.174-10.314 2.578-2.958-28.901-15.483-37.38-16.107a18.14 18.14 0 0 0-2.006-.004zm-5.58 11.411c2.28-.03 4 .094 4.88.418 5.613 2.062 5.327 2.771 4.947 6.66-.042.427.116 1.665-.328 1.635-2.263-.171-8.653.312-16.278.995.171-4.043.44-7.416.833-9.392 2.203-.171 4.247-.295 5.946-.316zm-20.995 2.092c.444 2.006.743 5.136.914 8.85-6.626.64-13.375 1.31-19.488 1.861-.683-3.104-1.178-5.315-1.178-5.891-.103-1.238 9.374-3.27 19.752-4.82zm23.249 16.051c2.485.009 4.005.103 3.979.299-.137 1.038-1.592 6.984-2.297 6.971-3.651-.024-7.303 0-10.954.073-.013-2.391-.008-4.794.017-7.151 3.084-.11 6.169-.172 9.255-.187v-.005zm-22.151.735c.008 2.322-.026 4.7-.086 7.073-5.503.316-11.18.794-16.209 1.558-.555-2.347-2.032-5.788-1.631-6.979.171-.521 8.534-1.162 17.926-1.652zm16.38 14.557c3.479.008 5.874.128 6.087.38.854.99 1.136 10.344.342 10.433-3.101.31-6.206.565-9.315.764-.264-3.834-.43-7.674-.5-11.517 1.102-.013 2.421-.064 3.386-.06zm-16.807.538c-.299 4.892-.735 9.178-1.298 11.846-5.08.188-9.384.256-9.84-.077-1.238-.896-2.72-7.684-2.677-9.788.017-.88 6.416-1.546 13.815-1.981zm19.637 20.021c2.182-.017 4.03.227 4.047.812.043 1.434.056 4.922-.179 5.314-.406.662-2.647.47-5.063.94-2.476.478-5.127 1.605-5.319.858-.154-.594-.445-4.867-.538-6.395-.056-.914 3.854-1.499 7.048-1.529h.004z" fill="#B93C3C"/></g><defs><clipPath id="a"><rect width="300" height="420" rx="40" fill="#fff"/></clipPath></defs></svg>