<svg width="300" height="420" fill="none" xmlns="http://www.w3.org/2000/svg"><g clip-path="url(#a)"><path d="M127.051 41.236c-7.373 2.143-3.658 8.163.743 17.52 7.33 15.6 21.571 37.721 26.297 46.387 7.565 13.866 25.349 46.336 36.355 50.229 6.711 2.378 25.324-.883 39.68-3.334 9.187-1.571 16.965-1.806 17.674-3.3 1.806-3.825-30.677-14.352-52.244-25.614-21.563-11.261-48.833-87.6-68.505-81.888zM84.745 90.1c.615 3.287 14.464 7.778 15.258 18.613.422 5.797-15.544 27.898-28.705 41.141-11.441 11.509-18.797 13.968-19.164 17.716-.508 5.187 28.645-3.689 41.393-13.55 12.747-9.866 32.133-34.707 31.206-42.139-.922-7.428-10.387-11.373-13.998-18.225-3.612-6.851-4.414-22.638-6.903-22.472-2.493.162-5.776 10.148-9.174 13.251-3.398 3.104-10.523 2.378-9.913 5.665z" fill="#1E39CD"/><path d="M165.522 180.105a1.278 1.278 0 0 0-.414.026c-3.894 1.041-26.37 22.527-26.37 22.527s-18.732-19.594-20.355-18.232c-.982.828 3.104 20.798 8.683 34.045 3.621 8.589 8.043 12.666 11.527 12.551 2.544-.086 5.558-1.725 8.111-6.331 2.694-4.867 4.931-12.876 7.77-18.711 3.833-7.868 9.05-14.805 9.72-15.151 1.639-.845 7.445 7.108 6.886 9.14-.564 2.032-10.083 15.125-12.679 23.253-.683 2.135-1.405 4.773-2.041 7.505-7.718 1.823-14.962 3.552-17.409 4.013-6.318 1.195-20.013 1.49-20.666 3.893-.657 2.408 13.469 9.477 16.871 9.285 1.294-.076 9.52-1.549 19.51-2.945.188 1.315.606 2.194 1.357 2.348.978.2 2.088-1.012 3.343-2.98 3.143-.412 6.292-.775 9.447-1.089 12.448-1.208 24.534 0 26.135-1.545 3.129-3.031-10.95-15.667-11.97-16.551-.41-.35-6.57.939-14.156 2.664.973-1.392 1.985-2.69 3.048-3.787 7.355-7.564 24.845-19.428 28.081-20.939 1.729-.811-7.338-6.916-16.649-12.914-7.603-4.896-15.351-9.87-17.78-10.075zm6.48 67.664c-12.013.512-52.325 8.713-54.857 8.939-2.698.239-10.19-5.071-10.587-2.164-.392 2.903 14.357 51.185 14.054 52.799-.145.777-19.305 5.191-37.221 8.286-19.314 3.339-37.47 5.422-37.205 7.701.512 4.393 12.76 10.716 17.759 12.274 5.008 1.558 22.34-6.139 23.36-4.478 1.016 1.664 4.64 15.313 11.535 23.065 6.899 7.753 17.648 19.001 21.84 19.958 4.197.952-10.758-44.833-11.765-48.573-.542-2.019 12.137-3.001 20.312-4.892 6.98-1.614 9.46-4.376 10.971-3.667 3.274 1.541 4.867 2.412 5.101 3.872.239 1.464-.981 3.329-1.797 4.525-.815 1.195-23.876 4.012-24.905 7.752-1.025 3.74 7.317 9.49 10.728 10.604 3.406 1.115 24.875-5.391 27.219-6.228 2.339-.837 5.242-4.568 6.544-5.059 1.302-.486 5.183-.162 6.425-.563 1.242-.402 3.552-2.809 5.123-2.062 1.567.742 5.507 20.162 18.348 15.62 12.837-4.542-5.024-28.111-8.311-31.125-3.288-3.014 15.103-1.887 18.608-1.379 3.505.512 5.217 5.699 6.83 10.706 1.614 5.004-21.609 37.026-24.875 38.733-3.266 1.703-25.494-24.167-26.792-19.189-1.294 4.982 11.868 23.672 13.712 28.167 1.835 4.495-.363 6.335.205 7.543.568 1.204 5.776 4.7 8.465 5.055 2.694.354 20.624-7.642 29.998-14.972 9.375-7.33 22.105-24.508 25.141-27.355 3.035-2.844 18.668-5.32 17.819-8.637-.846-3.321-.688-1.485-6.665-7.052-5.976-5.571-20.021-20.79-29.37-24.449-3.522-1.379-8.551-2.962-13.674-3.214-8.47-.41-16.837 1.11-16.448.499.623-.982 10.015-20.205 10.587-24.615.563-4.414 10.595-7.355 13.174-10.314 2.574-2.958-28.901-15.483-37.379-16.107a18.159 18.159 0 0 0-2.007-.004zm-5.584 11.411c2.28-.03 4.005.094 4.88.418 5.613 2.062 5.327 2.771 4.952 6.66-.043.427.111 1.665-.329 1.635-2.262-.171-8.653.312-16.282.995.171-4.043.44-7.416.837-9.392 2.198-.171 4.243-.295 5.942-.316zm-20.995 2.092c.444 2.006.743 5.136.918 8.85-6.63.64-13.375 1.31-19.492 1.861-.683-3.104-1.178-5.315-1.178-5.891-.099-1.238 9.374-3.27 19.752-4.82zm23.249 16.051c2.489.009 4.005.103 3.979.299-.137 1.038-1.592 6.984-2.297 6.971-3.651-.024-7.303 0-10.954.073-.013-2.391-.009-4.794.017-7.151 3.084-.11 6.169-.173 9.255-.187v-.005zm-22.147.735c.008 2.322-.026 4.7-.086 7.073-5.507.316-11.184.794-16.209 1.558-.555-2.347-2.036-5.788-1.635-6.979.171-.521 8.542-1.162 17.93-1.652zm16.376 14.557c3.479.008 5.878.128 6.087.38.854.99 1.136 10.344.346 10.433-3.1.31-6.206.565-9.315.764a228.134 228.134 0 0 1-.504-11.517c1.102-.013 2.425-.064 3.386-.06zm-16.807.538c-.299 4.892-.735 9.178-1.298 11.846-5.08.188-9.379.256-9.84-.077-1.238-.896-2.715-7.684-2.677-9.788.017-.88 6.416-1.546 13.815-1.981zm19.637 20.021c2.186-.017 4.034.227 4.047.812.043 1.434.06 4.922-.179 5.314-.402.662-2.647.47-5.063.94-2.476.478-5.128 1.605-5.32.858-.149-.594-.444-4.867-.533-6.395-.056-.914 3.859-1.499 7.048-1.529z" fill="#B93C3C"/></g><defs><clipPath id="a"><rect width="300" height="420" rx="40" fill="#fff"/></clipPath></defs></svg>