<svg width="300" height="420" fill="none" xmlns="http://www.w3.org/2000/svg"><g clip-path="url(#a)"><path d="M110.501 39.078c-2.493.167-3.979 8.551-7.377 11.655-3.398 3.108-11.116 4.175-10.51 7.466.61 3.287 21.652 4.081 23.241 13.221.217 1.251-.449 4.935-1.678 9.947-4.568 1.422-8.542 2.57-11.018 3.313-13.021 3.906-20.581-.15-25.324 3.244-4.739 3.394 16.354 15.945 20.897 14.404 1.05-.359 5.208-2.075 10.723-4.41-5.647 18.143-13.9 40.214-20.307 48.983-8.846 12.106-16.397 17.161-16.769 20.918-.508 5.178 17.563-6.387 30.31-16.252 7.317-5.661 21.255-29.299 29.67-50.84 2.002-5.119 3.543-10.122 4.755-14.732 4.866-2.127 9.721-4.277 14.566-6.45a59.822 59.822 0 0 1-.828 6.56c-4.47 23.8-16.406 50.213-7.898 65.351 12.841 22.852 54.357 14.886 68.33 14.262 7.112-.316 16.15-4.269 16.243-7.705.154-5.61.334-9.64-1.041-12.329-.909-1.78-3.291-2.416-3.97-4.525-.956-3.01-6.984-32.816-9.819-29.243-2.946 3.714-5.507 33.606-11.654 34.216-8.641.862-43.335 7.176-45.722-6.028-.905-5.029 4.842-21.076 13.324-34.762 11.245-18.144 26.412-29.012 20.184-30.02-4-.649-12.85-3.616-19.949-7.97-11.193-6.86-20.577-15.283-19.035-9.153a66.7 66.7 0 0 1 .994 4.816c-1.695 2.177-4.461 5.13-10.771 8.47.32-2.515.432-4.406.325-5.286-.926-7.428-21.371-5.78-24.987-12.636-3.611-6.848-2.416-14.647-4.909-14.485h.004z" fill="#1E39CD"/><path d="M165.518 180.105a1.278 1.278 0 0 0-.414.026c-3.889 1.041-26.37 22.527-26.37 22.527s-18.732-19.594-20.35-18.232c-.982.828 3.103 20.798 8.683 34.045 3.62 8.589 8.038 12.666 11.526 12.551 2.54-.086 5.558-1.725 8.107-6.331 2.698-4.867 4.93-12.876 7.774-18.711 3.829-7.868 9.05-14.805 9.716-15.151 1.639-.845 7.449 7.108 6.886 9.14-.559 2.032-10.079 15.125-12.679 23.253-.683 2.135-1.4 4.773-2.041 7.505-7.714 1.823-14.962 3.552-17.409 4.013-6.318 1.195-20.013 1.49-20.662 3.893-.657 2.408 13.465 9.477 16.867 9.285 1.294-.076 9.52-1.549 19.509-2.945.188 1.315.611 2.194 1.358 2.348.978.2 2.092-1.012 3.343-2.98 3.144-.412 6.295-.775 9.451-1.089 12.444-1.208 24.53 0 26.131-1.545 3.129-3.031-10.95-15.667-11.97-16.551-.406-.35-6.566.939-14.152 2.664.969-1.392 1.981-2.69 3.048-3.787 7.351-7.564 24.846-19.428 28.077-20.939 1.729-.811-7.338-6.916-16.649-12.914-7.603-4.896-15.351-9.87-17.78-10.075zm6.48 67.664c-12.013.512-52.321 8.713-54.857 8.939-2.698.239-10.19-5.071-10.587-2.164-.388 2.903 14.357 51.185 14.058 52.799-.145.777-19.309 5.191-37.226 8.286-19.308 3.339-37.469 5.422-37.2 7.701.513 4.393 12.756 10.716 17.76 12.274 5.002 1.558 22.339-6.139 23.355-4.478 1.02 1.664 4.64 15.313 11.539 23.065 6.899 7.753 17.644 19.001 21.84 19.958 4.193.952-10.758-44.833-11.765-48.573-.547-2.019 12.137-3.001 20.308-4.892 6.979-1.614 9.46-4.376 10.971-3.667 3.274 1.541 4.867 2.412 5.106 3.872.239 1.464-.982 3.329-1.802 4.525-.815 1.195-23.876 4.012-24.905 7.752-1.025 3.74 7.321 9.49 10.728 10.604 3.406 1.115 24.879-5.391 27.219-6.228 2.344-.837 5.242-4.568 6.544-5.059 1.302-.486 5.183-.162 6.425-.563 1.242-.402 3.556-2.809 5.123-2.062 1.571.742 5.507 20.162 18.348 15.62s-5.024-28.111-8.307-31.125c-3.287-3.014 15.099-1.887 18.604-1.379 3.509.512 5.221 5.699 6.83 10.706 1.614 5.004-21.605 37.026-24.875 38.733-3.266 1.703-25.494-24.167-26.788-19.189-1.298 4.982 11.868 23.672 13.703 28.167 1.845 4.495-.358 6.335.21 7.543.567 1.204 5.776 4.7 8.469 5.055 2.69.354 20.62-7.642 29.999-14.972 9.374-7.33 22.1-24.508 25.135-27.355 3.036-2.844 18.673-5.32 17.824-8.637-.854-3.321-.692-1.485-6.668-7.052-5.977-5.571-20.022-20.79-29.371-24.449-3.518-1.379-8.551-2.962-13.67-3.214-8.474-.41-16.841 1.11-16.448.499.623-.982 10.011-20.205 10.578-24.615.568-4.414 10.605-7.355 13.179-10.314 2.578-2.958-28.901-15.483-37.38-16.107a18.14 18.14 0 0 0-2.006-.004zm-5.584 11.411c2.284-.03 4.004.094 4.88.418 5.618 2.062 5.327 2.771 4.952 6.66-.043.427.115 1.665-.329 1.635-2.263-.171-8.653.312-16.282.995.171-4.043.444-7.415.837-9.392 2.198-.171 4.243-.295 5.942-.316zm-20.991 2.092c.444 2.006.743 5.136.914 8.85-6.63.64-13.375 1.31-19.488 1.861-.683-3.104-1.178-5.315-1.178-5.891-.103-1.238 9.374-3.27 19.752-4.82zm23.245 16.051c2.489.009 4.009.103 3.983.299-.137 1.038-1.592 6.984-2.297 6.971-3.653-.024-7.306 0-10.958.073-.013-2.391-.009-4.794.017-7.151 3.084-.11 6.169-.172 9.255-.187v-.005zm-22.147.735c.008 2.322-.026 4.7-.086 7.073-5.507.316-11.185.794-16.209 1.558-.555-2.347-2.037-5.788-1.635-6.979.175-.521 8.546-1.162 17.93-1.652zm16.38 14.557c3.475.008 5.874.128 6.087.38.85.99 1.132 10.344.342 10.433-3.1.31-6.206.565-9.315.764a228.134 228.134 0 0 1-.504-11.517c1.106-.013 2.425-.064 3.39-.06zm-16.807.538c-.299 4.892-.734 9.178-1.302 11.846-5.08.188-9.379.256-9.836-.077-1.238-.896-2.719-7.684-2.681-9.788.017-.88 6.421-1.546 13.819-1.981zm19.637 20.021c2.177-.017 4.03.227 4.047.812.039 1.434.056 4.922-.183 5.314-.402.662-2.647.47-5.064.94-2.476.478-5.122 1.605-5.314.858-.154-.594-.444-4.867-.538-6.395-.056-.914 3.859-1.499 7.052-1.529z" fill="#B93C3C"/></g><defs><clipPath id="a"><rect width="300" height="420" rx="40" fill="#fff"/></clipPath></defs></svg>