<svg width="300" height="420" fill="none" xmlns="http://www.w3.org/2000/svg"><g clip-path="url(#a)"><path d="M150 90a120 120 0 1 0 0 239.999A120 120 0 0 0 150 90zm0 18.921a101.081 101.081 0 1 1 0 202.163A101.084 101.084 0 0 1 48.925 210 101.084 101.084 0 0 1 150 108.921z" fill="#1E39CD"/><path d="m169.091 119.529-.333.12a49.296 49.296 0 0 1-9.093 2.8l-.247.043a49.67 49.67 0 0 1-9.23.948l-.184.013-.247-.013a49.475 49.475 0 0 1-18.622-3.812c-.316-.107-.256-.077-.342-.069a92.558 92.558 0 0 0-11.927 3.471c-.086.047-.163.068-.227.107-10.51 3.778-19.749 9.059-28.244 16.308-.299.247.2-.171-.12.085a92.559 92.559 0 0 0-9.059 8.692c-.093.61-.2 1.217-.316 1.823a49.34 49.34 0 0 1-1.707 7.266c-.15.457-.312.909-.478 1.366a49.42 49.42 0 0 1-3.655 8.051l-.017.026a49.462 49.462 0 0 1-12.692 14.349c-.128.068-.18.17-.252.298a92.552 92.552 0 0 0-2.181 8.359 96.974 96.974 0 0 0-.457 2.165 87.498 87.498 0 0 0-.32 1.541l-.021.107A90.852 90.852 0 0 0 57.446 210c.085 5.55.602 10.984 1.678 16.427l.013.056c.09.448.183.897.281 1.34.167.841.342 1.682.53 2.519a91.376 91.376 0 0 0 2.185 8.325l.201.171v.017a49.454 49.454 0 0 1 12.74 14.391 49.479 49.479 0 0 1 3.995 8.837 49.644 49.644 0 0 1 2.117 9.029c.043.235.086.47.12.705a92.519 92.519 0 0 0 8.97 8.597c0-.068-.013.065-.01-.008a90.941 90.941 0 0 0 28.467 16.449c-.307-.111.244.094.128.064a92.71 92.71 0 0 0 12.056 3.5l.158-.055a49.231 49.231 0 0 1 9.273-2.869h.008a49.424 49.424 0 0 1 9.648-.999c3.232 0 6.459.325 9.636.961.042 0 .081.012.123.017a49.716 49.716 0 0 1 9.145 2.8c.102.043.201.077.303.111a92.655 92.655 0 0 0 11.932-3.466l-.026.008c10.49-3.786 20.142-9.276 28.62-16.521 0 .077-.004-.073-.004.004a92.41 92.41 0 0 0 9.055-8.687l.111-.641a49.467 49.467 0 0 1 2.083-9.016l.111-.29a49.177 49.177 0 0 1 3.731-8.325l.107-.218.12-.183a49.46 49.46 0 0 1 12.623-14.234c.116-.098.094-.085.129-.123a96.288 96.288 0 0 0 2.774-10.835c.103-.457.197-.918.291-1.384l.017-.111c1.076-5.438 1.579-10.822 1.669-16.367a91.207 91.207 0 0 0-1.665-16.466l-.021-.068a98.675 98.675 0 0 0-.363-1.717 90.606 90.606 0 0 0-.393-1.878 92.446 92.446 0 0 0-2.241-8.589 68.407 68.407 0 0 1-.393-.333 49.475 49.475 0 0 1-6.813-6.327 46.236 46.236 0 0 1-.291-.363 49.497 49.497 0 0 1-5.251-7.249l-.192-.299-.171-.324a49.462 49.462 0 0 1-5.921-17.726 22.81 22.81 0 0 1-.141-.529 92.548 92.548 0 0 0-8.969-8.598l-.124-.085c-8.495-7.254-17.853-12.594-28.368-16.372l-.098-.047a92.632 92.632 0 0 0-12.052-3.501l.004.004zm-39.514 8.795a58.033 58.033 0 0 0 20.427 3.774 58.135 58.135 0 0 0 20.424-3.774 84.365 84.365 0 0 1 40.078 23.177 58.101 58.101 0 0 0 6.937 19.535 58.106 58.106 0 0 0 13.67 15.954 84.245 84.245 0 0 1 3.253 23.01 84.308 84.308 0 0 1-3.236 22.938 58.097 58.097 0 0 0-13.687 15.975 58.128 58.128 0 0 0-6.946 19.595 84.364 84.364 0 0 1-39.975 23.147A58.095 58.095 0 0 0 150 287.847a58.1 58.1 0 0 0-20.513 3.808 84.363 84.363 0 0 1-39.916-23.079 58.094 58.094 0 0 0-7.01-19.667 58.093 58.093 0 0 0-13.69-15.975A84.368 84.368 0 0 1 65.633 210a84.36 84.36 0 0 1 3.253-23.002 58.097 58.097 0 0 0 13.674-15.966 58.108 58.108 0 0 0 7.001-19.595 84.357 84.357 0 0 1 40.015-23.113z" fill="#006F00"/><path d="m165.928 134.501-.273.103a41.277 41.277 0 0 1-7.796 2.369 41.319 41.319 0 0 1-7.701.794l-.154.013-.209-.013a41.246 41.246 0 0 1-15.54-3.181c-.256-.085-.213-.064-.281-.055a77.178 77.178 0 0 0-9.956 2.894c-.068.043-.132.06-.188.086a74.396 74.396 0 0 0-23.565 13.61c-.252.209.166-.137-.103.076a77.386 77.386 0 0 0-7.556 7.249 40.896 40.896 0 0 1-.264 1.52 41.245 41.245 0 0 1-1.422 6.062c-.128.385-.265.76-.401 1.14a41.27 41.27 0 0 1-3.049 6.724l-.017.017a41.266 41.266 0 0 1-10.587 11.975c-.107.055-.154.141-.213.248a77.136 77.136 0 0 0-1.819 6.975c-.137.602-.26 1.204-.384 1.806l-.265 1.285-.017.09a75.8 75.8 0 0 0-1.396 13.708c.072 4.627.5 9.165 1.4 13.704l.009.051.235 1.118c.14.7.286 1.401.444 2.101.5 2.343 1.11 4.662 1.823 6.945l.166.141v.013a41.273 41.273 0 0 1 10.63 12.013 41.135 41.135 0 0 1 3.287 7.258l.047.115a41.497 41.497 0 0 1 1.768 7.535l.102.585a77.116 77.116 0 0 0 7.484 7.172c0-.055-.013.056-.009-.004a75.894 75.894 0 0 0 23.753 13.725c-.256-.094.201.077.111.055a77.184 77.184 0 0 0 10.054 2.92l.128-.051a41.26 41.26 0 0 1 7.74-2.39h.009a41.163 41.163 0 0 1 8.051-.837c2.698.004 5.392.273 8.039.802l.102.013a41.48 41.48 0 0 1 7.633 2.34l.252.094a77.637 77.637 0 0 0 9.956-2.895l-.021.009a76.63 76.63 0 0 0 23.881-13.785c0-.06 0 .064 0 0a77.174 77.174 0 0 0 7.556-7.245l.09-.538a41.227 41.227 0 0 1 1.737-7.522l.094-.243a41.254 41.254 0 0 1 3.112-6.946c.035-.06.06-.12.09-.184l.103-.149a41.255 41.255 0 0 1 10.531-11.877l.107-.102a80.258 80.258 0 0 0 2.314-9.042l.243-1.153.013-.094c.897-4.542 1.324-9.029 1.392-13.661a76.16 76.16 0 0 0-1.392-13.738l-.013-.055a71.668 71.668 0 0 0-.299-1.435 57.993 57.993 0 0 0-.333-1.566 77.31 77.31 0 0 0-1.869-7.168c-.111-.092-.22-.185-.329-.278a41.27 41.27 0 0 1-5.687-5.281l-.239-.298a41.312 41.312 0 0 1-4.38-6.05l-.162-.247-.141-.274a41.27 41.27 0 0 1-4.943-14.788 13.184 13.184 0 0 1-.12-.444 77.287 77.287 0 0 0-7.484-7.172l-.102-.072a74.95 74.95 0 0 0-23.668-13.661l-.085-.043a77.238 77.238 0 0 0-10.054-2.916zm-32.97 7.343a48.468 48.468 0 0 0 17.046 3.146 48.478 48.478 0 0 0 17.042-3.146 70.397 70.397 0 0 1 33.44 19.339 48.57 48.57 0 0 0 5.793 16.299 48.503 48.503 0 0 0 11.403 13.316 70.393 70.393 0 0 1 2.715 19.198 70.26 70.26 0 0 1-2.702 19.142 48.503 48.503 0 0 0-11.416 13.328 48.493 48.493 0 0 0-5.801 16.351 70.393 70.393 0 0 1-33.355 19.313 48.485 48.485 0 0 0-17.119-3.176 48.464 48.464 0 0 0-17.119 3.176 70.404 70.404 0 0 1-33.307-19.257 48.477 48.477 0 0 0-5.849-16.411 48.486 48.486 0 0 0-11.424-13.328 70.392 70.392 0 0 1-2.702-19.138 70.395 70.395 0 0 1 2.715-19.194 48.476 48.476 0 0 0 11.411-13.32 48.472 48.472 0 0 0 5.836-16.35 70.4 70.4 0 0 1 33.393-19.288z" fill="#006F00"/><path d="M150 150.916A59.09 59.09 0 0 0 90.916 210a59.086 59.086 0 1 0 81.7-54.589 59.097 59.097 0 0 0-22.612-4.5l-.004.005zm0 9.878a49.21 49.21 0 0 1 34.794 14.412 49.21 49.21 0 0 1 0 69.588A49.21 49.21 0 0 1 150 259.206 49.21 49.21 0 0 1 100.799 210 49.206 49.206 0 0 1 150 160.794z" fill="#B93C3C"/></g><defs><clipPath id="a"><path fill="#fff" transform="translate(30 90)" d="M0 0h240v240H0z"/></clipPath></defs></svg>