<svg width="300" height="420" fill="none" xmlns="http://www.w3.org/2000/svg"><g clip-path="url(#a)"><path d="M149.998 47.502a62.476 62.476 0 0 0-44.193 18.318A62.564 62.564 0 0 0 87.5 110.043a62.579 62.579 0 0 0 18.302 44.225 62.487 62.487 0 0 0 44.192 18.321 62.473 62.473 0 0 0 44.197-18.318 62.552 62.552 0 0 0 13.548-20.292 62.588 62.588 0 0 0 4.757-23.936 62.566 62.566 0 0 0-18.305-44.223 62.478 62.478 0 0 0-44.193-18.318zm0 14.684a47.813 47.813 0 0 1 33.818 14.017 47.88 47.88 0 0 1 .001 67.683 47.807 47.807 0 0 1-67.638 0 47.876 47.876 0 0 1 .001-67.683 47.81 47.81 0 0 1 33.818-14.017z" fill="#1E39CD"/><path d="M149.998 68.96a41.042 41.042 0 0 0-29.03 12.034 41.097 41.097 0 0 0-12.024 29.049 41.098 41.098 0 0 0 12.024 29.05 41.045 41.045 0 0 0 29.03 12.033 41.04 41.04 0 0 0 29.029-12.033 41.1 41.1 0 0 0 0-58.1 41.038 41.038 0 0 0-29.029-12.032zm0 11.86a29.191 29.191 0 0 1 20.65 8.559 29.231 29.231 0 0 1 6.33 31.848 29.22 29.22 0 0 1-15.804 15.815 29.184 29.184 0 0 1-31.826-6.334 29.235 29.235 0 0 1 0-41.33 29.194 29.194 0 0 1 20.65-8.559z" fill="#1E39CD"/><path d="M149.998 87.312a22.706 22.706 0 0 0-16.062 6.658 22.74 22.74 0 0 0 0 32.146 22.706 22.706 0 0 0 32.124 0 22.736 22.736 0 0 0-.001-32.143 22.712 22.712 0 0 0-16.061-6.66zm0 10.168a12.542 12.542 0 0 1 8.877 3.68 12.55 12.55 0 0 1 3.677 8.883 12.576 12.576 0 0 1-3.675 8.886 12.56 12.56 0 0 1-8.879 3.681 12.548 12.548 0 0 1-11.604-7.757 12.559 12.559 0 0 1-.954-4.81 12.564 12.564 0 0 1 7.752-11.608 12.55 12.55 0 0 1 4.806-.955z" fill="#1E39CD"/><path d="M149.998 116.677a6.631 6.631 0 0 0 6.629-6.634 6.631 6.631 0 0 0-6.629-6.633 6.631 6.631 0 0 0-6.629 6.633 6.631 6.631 0 0 0 6.629 6.634z" fill="#1E39CD"/><path d="M149.998 247.411a62.475 62.475 0 0 0-44.193 18.318A62.566 62.566 0 0 0 87.5 309.953a62.574 62.574 0 0 0 18.302 44.224 62.457 62.457 0 0 0 68.111 13.561 62.5 62.5 0 0 0 33.826-33.85 62.583 62.583 0 0 0-13.548-68.159 62.477 62.477 0 0 0-44.193-18.318zm0 14.685a47.815 47.815 0 0 1 33.818 14.016 47.88 47.88 0 0 1 .001 67.683 47.808 47.808 0 0 1-33.819 14.019 47.808 47.808 0 0 1-33.819-14.019 47.88 47.88 0 0 1 .001-67.683 47.813 47.813 0 0 1 33.818-14.016z" fill="#006F00"/><path d="M149.998 268.87a41.045 41.045 0 0 0-29.03 12.033 41.096 41.096 0 0 0-12.024 29.05 41.096 41.096 0 0 0 12.024 29.049 41.036 41.036 0 0 0 58.059 0 41.097 41.097 0 0 0 0-58.099 41.04 41.04 0 0 0-29.029-12.033zm0 11.859a29.202 29.202 0 0 1 20.65 8.559 29.22 29.22 0 0 1 8.553 20.665 29.236 29.236 0 0 1-8.553 20.664 29.202 29.202 0 0 1-20.65 8.559 29.196 29.196 0 0 1-20.65-8.559 29.235 29.235 0 0 1 0-41.329 29.196 29.196 0 0 1 20.65-8.559z" fill="#006F00"/><path d="M149.998 287.222a22.705 22.705 0 0 0-16.062 6.657 22.74 22.74 0 0 0 0 32.147 22.706 22.706 0 0 0 32.124 0 22.74 22.74 0 0 0-.001-32.144 22.712 22.712 0 0 0-16.061-6.66zm0 10.168a12.55 12.55 0 0 1 11.599 7.755 12.587 12.587 0 0 1 .001 9.616 12.557 12.557 0 0 1-16.407 6.803 12.556 12.556 0 0 1-7.751-11.611c0-1.651.324-3.285.956-4.809a12.55 12.55 0 0 1 11.602-7.754z" fill="#006F00"/><path d="M149.998 316.586a6.631 6.631 0 0 0 6.629-6.633 6.631 6.631 0 0 0-6.629-6.634 6.631 6.631 0 0 0-6.629 6.634 6.631 6.631 0 0 0 6.629 6.633z" fill="#006F00"/></g><defs><clipPath id="a"><path fill="#fff" transform="translate(87.5 47.5)" d="M0 0h125v325H0z"/></clipPath></defs></svg>