<svg width="300" height="420" fill="none" xmlns="http://www.w3.org/2000/svg"><g clip-path="url(#a)"><path d="M84.99 49.5a52.55 52.55 0 0 0-37.118 15.343 52.327 52.327 0 0 0-15.375 37.04 52.328 52.328 0 0 0 15.374 37.04 52.547 52.547 0 0 0 37.119 15.342 52.547 52.547 0 0 0 37.118-15.342 52.33 52.33 0 0 0 15.375-37.04 52.329 52.329 0 0 0-15.375-37.04A52.549 52.549 0 0 0 84.99 49.5zm0 15.62a36.883 36.883 0 0 1 26.051 10.767 36.725 36.725 0 0 1 10.793 25.996 36.73 36.73 0 0 1-10.791 25.998A36.886 36.886 0 0 1 84.99 138.65a36.888 36.888 0 0 1-26.05-10.771 36.727 36.727 0 0 1-10.79-25.996A36.728 36.728 0 0 1 58.94 75.889 36.884 36.884 0 0 1 84.99 65.12z" fill="#1E39CD"/><path d="M84.99 74.73a27.243 27.243 0 0 0-19.242 7.953 27.129 27.129 0 0 0-7.972 19.2c0 7.202 2.867 14.11 7.97 19.202a27.243 27.243 0 0 0 19.244 7.954c7.217 0 14.14-2.861 19.243-7.954 5.103-5.092 7.97-12 7.97-19.202a27.125 27.125 0 0 0-7.972-19.2A27.242 27.242 0 0 0 84.99 74.73zm0 10.813c4.343 0 8.508 1.722 11.58 4.786a16.326 16.326 0 0 1 4.798 11.554c0 4.334-1.726 8.491-4.797 11.556a16.396 16.396 0 0 1-11.581 4.787c-4.344 0-8.51-1.722-11.581-4.787a16.326 16.326 0 0 1-4.798-11.556 16.327 16.327 0 0 1 4.799-11.554 16.396 16.396 0 0 1 11.58-4.786z" fill="#1E39CD"/><path d="M84.99 109.417c4.17 0 7.55-3.373 7.55-7.534s-3.38-7.534-7.55-7.534-7.55 3.373-7.55 7.534 3.38 7.534 7.55 7.534z" fill="#1E39CD"/><path d="M151.205 158.418a52.55 52.55 0 0 0-37.118 15.342 52.33 52.33 0 0 0-15.375 37.04 52.33 52.33 0 0 0 15.375 37.041 52.55 52.55 0 0 0 37.118 15.342 52.554 52.554 0 0 0 37.119-15.342 52.33 52.33 0 0 0 15.374-37.041 52.33 52.33 0 0 0-15.374-37.04 52.554 52.554 0 0 0-37.119-15.342zm0 15.62a36.887 36.887 0 0 1 26.052 10.767A36.733 36.733 0 0 1 188.05 210.8a36.729 36.729 0 0 1-10.792 25.999 36.884 36.884 0 0 1-26.053 10.768 36.883 36.883 0 0 1-26.05-10.77 36.73 36.73 0 0 1-10.79-25.997 36.725 36.725 0 0 1 10.792-25.993 36.882 36.882 0 0 1 26.048-10.769z" fill="#B93C3C"/><path d="M151.205 183.648a27.242 27.242 0 0 0-19.241 7.953 27.129 27.129 0 0 0-7.973 19.199 27.13 27.13 0 0 0 7.971 19.203 27.244 27.244 0 0 0 19.243 7.954c7.218 0 14.14-2.861 19.244-7.954a27.13 27.13 0 0 0 7.97-19.203 27.124 27.124 0 0 0-7.972-19.199 27.243 27.243 0 0 0-19.242-7.953zm0 10.813c4.343 0 8.509 1.721 11.58 4.786a16.326 16.326 0 0 1 4.798 11.553c0 4.335-1.725 8.492-4.797 11.557a16.394 16.394 0 0 1-11.581 4.787 16.398 16.398 0 0 1-11.581-4.787 16.328 16.328 0 0 1-4.797-11.557 16.323 16.323 0 0 1 4.799-11.553 16.39 16.39 0 0 1 11.579-4.786z" fill="#B93C3C"/><path d="M151.205 218.334c4.17 0 7.55-3.373 7.55-7.534 0-4.16-3.38-7.534-7.55-7.534-4.169 0-7.549 3.374-7.549 7.534 0 4.161 3.38 7.534 7.549 7.534z" fill="#B93C3C"/><path d="M215.01 265.734a52.549 52.549 0 0 0-37.118 15.343 52.328 52.328 0 0 0-15.375 37.04 52.327 52.327 0 0 0 15.375 37.04A52.549 52.549 0 0 0 215.01 370.5a52.55 52.55 0 0 0 37.119-15.343 52.327 52.327 0 0 0 15.375-37.04 52.328 52.328 0 0 0-15.375-37.04 52.55 52.55 0 0 0-37.119-15.343zm0 15.621a36.887 36.887 0 0 1 26.052 10.767 36.73 36.73 0 0 1 10.793 25.995 36.727 36.727 0 0 1-10.792 25.998 36.883 36.883 0 0 1-26.053 10.769 36.885 36.885 0 0 1-26.05-10.77 36.73 36.73 0 0 1-10.79-25.997 36.733 36.733 0 0 1 10.792-25.994 36.882 36.882 0 0 1 26.048-10.768z" fill="#006F00"/><path d="M215.011 290.965a27.242 27.242 0 0 0-19.242 7.952 27.126 27.126 0 0 0-7.972 19.2 27.13 27.13 0 0 0 7.97 19.203 27.244 27.244 0 0 0 19.244 7.954 27.244 27.244 0 0 0 19.243-7.954 27.13 27.13 0 0 0 7.97-19.203 27.126 27.126 0 0 0-7.972-19.2 27.241 27.241 0 0 0-19.241-7.952zm0 10.813c4.343 0 8.508 1.721 11.579 4.785a16.327 16.327 0 0 1 4.799 11.554c0 4.335-1.726 8.492-4.797 11.557a16.398 16.398 0 0 1-11.581 4.787c-4.344 0-8.51-1.722-11.582-4.787a16.328 16.328 0 0 1-4.797-11.557 16.332 16.332 0 0 1 4.799-11.554 16.396 16.396 0 0 1 11.58-4.785z" fill="#006F00"/><path d="M215.01 325.651c4.17 0 7.55-3.373 7.55-7.534s-3.38-7.534-7.55-7.534c-4.169 0-7.55 3.373-7.55 7.534s3.381 7.534 7.55 7.534z" fill="#006F00"/></g><defs><clipPath id="a"><path fill="#fff" transform="translate(32.5 49.5)" d="M0 0h235v321H0z"/></clipPath></defs></svg>