<svg width="300" height="420" fill="none" xmlns="http://www.w3.org/2000/svg"><g clip-path="url(#a)"><path d="M95.654 73a42.74 42.74 0 0 0-16.324 3.24 42.659 42.659 0 0 0-13.838 9.226 42.549 42.549 0 0 0-9.246 13.807 42.474 42.474 0 0 0 0 32.573 42.546 42.546 0 0 0 9.246 13.808 42.662 42.662 0 0 0 13.838 9.226 42.754 42.754 0 0 0 32.648 0 42.667 42.667 0 0 0 13.838-9.226 42.554 42.554 0 0 0 9.246-13.808 42.465 42.465 0 0 0 3.245-16.286 42.47 42.47 0 0 0-3.245-16.287 42.557 42.557 0 0 0-9.246-13.807 42.664 42.664 0 0 0-13.838-9.226A42.743 42.743 0 0 0 95.654 73zm0 10.192a32.48 32.48 0 0 1 22.94 9.48 32.33 32.33 0 0 1 9.502 22.888 32.33 32.33 0 0 1-9.502 22.887 32.48 32.48 0 0 1-22.94 9.48 32.48 32.48 0 0 1-22.94-9.48 32.33 32.33 0 0 1-9.501-22.887 32.329 32.329 0 0 1 9.501-22.887 32.48 32.48 0 0 1 22.94-9.48z" fill="#1E39CD"/><path d="M95.654 89.784a25.865 25.865 0 0 0-18.268 7.55 25.745 25.745 0 0 0-7.567 18.226 25.746 25.746 0 0 0 7.567 18.226 25.864 25.864 0 0 0 18.268 7.549 25.878 25.878 0 0 0 18.268-7.549 25.773 25.773 0 0 0 5.6-8.362 25.715 25.715 0 0 0 0-19.728 25.76 25.76 0 0 0-5.6-8.363 25.843 25.843 0 0 0-8.381-5.587 25.89 25.89 0 0 0-9.887-1.962zm0 12.589c3.505 0 6.867 1.389 9.346 3.862a13.17 13.17 0 0 1 0 18.649 13.234 13.234 0 0 1-18.692 0 13.171 13.171 0 0 1-3.871-9.324c0-3.498 1.392-6.852 3.871-9.325a13.233 13.233 0 0 1 9.346-3.862z" fill="#1E39CD"/><path d="M95.654 122.954c4.093 0 7.412-3.311 7.412-7.394 0-4.084-3.319-7.395-7.412-7.395s-7.411 3.311-7.411 7.395c0 4.083 3.318 7.394 7.411 7.394z" fill="#1E39CD"/><path d="M204.346 73a42.74 42.74 0 0 0-16.324 3.24 42.664 42.664 0 0 0-13.838 9.226 42.557 42.557 0 0 0-9.246 13.807 42.47 42.47 0 0 0-3.245 16.287 42.465 42.465 0 0 0 3.245 16.286 42.554 42.554 0 0 0 9.246 13.808 42.667 42.667 0 0 0 13.838 9.226 42.754 42.754 0 0 0 32.648 0 42.667 42.667 0 0 0 13.838-9.226 42.552 42.552 0 0 0 9.245-13.808 42.448 42.448 0 0 0 3.246-16.286 42.452 42.452 0 0 0-3.246-16.287 42.554 42.554 0 0 0-9.245-13.807 42.664 42.664 0 0 0-13.838-9.226A42.743 42.743 0 0 0 204.346 73zm0 10.192a32.48 32.48 0 0 1 22.94 9.48 32.328 32.328 0 0 1 9.501 22.888 32.329 32.329 0 0 1-9.501 22.887 32.48 32.48 0 0 1-22.94 9.48 32.48 32.48 0 0 1-22.94-9.48 32.33 32.33 0 0 1-9.502-22.887 32.33 32.33 0 0 1 9.502-22.887 32.48 32.48 0 0 1 22.94-9.48z" fill="#006F00"/><path d="M204.346 89.784a25.865 25.865 0 0 0-18.268 7.55 25.745 25.745 0 0 0-7.567 18.226 25.746 25.746 0 0 0 7.567 18.226 25.864 25.864 0 0 0 18.268 7.549 25.877 25.877 0 0 0 18.268-7.549 25.773 25.773 0 0 0 5.6-8.362 25.715 25.715 0 0 0 0-19.728 25.76 25.76 0 0 0-5.6-8.363 25.843 25.843 0 0 0-8.381-5.587 25.89 25.89 0 0 0-9.887-1.962zm0 12.589c3.505 0 6.867 1.389 9.346 3.862a13.17 13.17 0 0 1 0 18.649 13.235 13.235 0 0 1-18.692 0 13.17 13.17 0 0 1 0-18.649 13.234 13.234 0 0 1 9.346-3.862z" fill="#006F00"/><path d="M204.346 122.954c4.093 0 7.411-3.311 7.411-7.394 0-4.084-3.318-7.395-7.411-7.395s-7.412 3.311-7.412 7.395c0 4.083 3.319 7.394 7.412 7.394z" fill="#006F00"/><path d="M204.346 261.881a42.754 42.754 0 0 0-16.324 3.239 42.667 42.667 0 0 0-13.838 9.226 42.554 42.554 0 0 0-9.246 13.808 42.465 42.465 0 0 0-3.245 16.286 42.47 42.47 0 0 0 3.245 16.287 42.56 42.56 0 0 0 9.246 13.807 42.667 42.667 0 0 0 13.838 9.226 42.736 42.736 0 0 0 32.648 0 42.667 42.667 0 0 0 13.838-9.226 42.558 42.558 0 0 0 9.245-13.807 42.453 42.453 0 0 0 3.246-16.287 42.448 42.448 0 0 0-3.246-16.286 42.552 42.552 0 0 0-9.245-13.808 42.667 42.667 0 0 0-13.838-9.226 42.757 42.757 0 0 0-16.324-3.239zm0 10.192a32.48 32.48 0 0 1 22.94 9.48 32.329 32.329 0 0 1 9.501 22.887 32.327 32.327 0 0 1-9.501 22.887 32.481 32.481 0 0 1-22.94 9.481 32.481 32.481 0 0 1-22.94-9.481 32.328 32.328 0 0 1-9.502-22.887 32.33 32.33 0 0 1 9.502-22.887 32.48 32.48 0 0 1 22.94-9.48z" fill="#1E39CD"/><path d="M204.346 278.664a25.865 25.865 0 0 0-18.268 7.55 25.746 25.746 0 0 0-7.567 18.226 25.746 25.746 0 0 0 7.567 18.227 25.864 25.864 0 0 0 18.268 7.549 25.877 25.877 0 0 0 18.268-7.549 25.766 25.766 0 0 0 7.567-18.227c0-3.385-.668-6.736-1.967-9.864a25.773 25.773 0 0 0-5.6-8.362 25.878 25.878 0 0 0-18.268-7.55zm0 12.589c3.505 0 6.867 1.39 9.346 3.863a13.17 13.17 0 0 1 0 18.649 13.234 13.234 0 0 1-9.346 3.862 13.234 13.234 0 0 1-9.346-3.862 13.17 13.17 0 0 1 0-18.649 13.235 13.235 0 0 1 9.346-3.863z" fill="#1E39CD"/><path d="M204.346 311.835c4.093 0 7.411-3.311 7.411-7.395 0-4.083-3.318-7.394-7.411-7.394s-7.412 3.311-7.412 7.394c0 4.084 3.319 7.395 7.412 7.395z" fill="#1E39CD"/><path d="M95.654 261.881a42.754 42.754 0 0 0-16.324 3.239 42.662 42.662 0 0 0-13.838 9.226 42.546 42.546 0 0 0-9.246 13.808 42.474 42.474 0 0 0 0 32.573 42.552 42.552 0 0 0 9.246 13.807 42.662 42.662 0 0 0 13.838 9.226 42.736 42.736 0 0 0 32.648 0 42.667 42.667 0 0 0 13.838-9.226 42.56 42.56 0 0 0 9.246-13.807 42.47 42.47 0 0 0 3.245-16.287 42.465 42.465 0 0 0-3.245-16.286 42.554 42.554 0 0 0-9.246-13.808 42.667 42.667 0 0 0-13.838-9.226 42.757 42.757 0 0 0-16.324-3.239zm0 10.192a32.48 32.48 0 0 1 22.94 9.48 32.33 32.33 0 0 1 9.502 22.887 32.328 32.328 0 0 1-9.502 22.887 32.481 32.481 0 0 1-22.94 9.481 32.48 32.48 0 0 1-22.94-9.481 32.328 32.328 0 0 1-9.501-22.887 32.33 32.33 0 0 1 9.501-22.887 32.48 32.48 0 0 1 22.94-9.48z" fill="#006F00"/><path d="M95.654 278.664a25.865 25.865 0 0 0-18.268 7.55 25.746 25.746 0 0 0-7.567 18.226 25.746 25.746 0 0 0 7.567 18.227 25.864 25.864 0 0 0 18.268 7.549 25.878 25.878 0 0 0 18.268-7.549 25.766 25.766 0 0 0 7.567-18.227c0-3.385-.668-6.736-1.967-9.864a25.773 25.773 0 0 0-5.6-8.362 25.879 25.879 0 0 0-18.268-7.55zm0 12.589c3.505 0 6.867 1.39 9.346 3.863a13.17 13.17 0 0 1 0 18.649 13.233 13.233 0 0 1-9.346 3.862 13.233 13.233 0 0 1-9.346-3.862 13.172 13.172 0 0 1-3.871-9.325c0-3.497 1.392-6.851 3.871-9.324a13.234 13.234 0 0 1 9.346-3.863z" fill="#006F00"/><path d="M95.654 311.835c4.093 0 7.411-3.311 7.411-7.395 0-4.083-3.318-7.394-7.411-7.394s-7.412 3.311-7.412 7.394c0 4.084 3.319 7.395 7.412 7.395z" fill="#006F00"/></g><defs><clipPath id="a"><path fill="#fff" transform="translate(53 73)" d="M0 0h194v274H0z"/></clipPath></defs></svg>