<svg width="300" height="420" fill="none" xmlns="http://www.w3.org/2000/svg"><g clip-path="url(#a)"><path d="M95.64 73.5a42.675 42.675 0 0 0-30.153 12.478A42.558 42.558 0 0 0 53 116.101a42.56 42.56 0 0 0 12.487 30.123 42.675 42.675 0 0 0 60.304 0 42.58 42.58 0 0 0 12.488-30.123 42.563 42.563 0 0 0-12.488-30.123 42.639 42.639 0 0 0-13.833-9.234A42.68 42.68 0 0 0 95.639 73.5zm0 10.203c8.601 0 16.85 3.413 22.932 9.49a32.381 32.381 0 0 1 0 45.818 32.451 32.451 0 0 1-45.865 0 32.383 32.383 0 0 1-9.499-22.91 32.382 32.382 0 0 1 9.5-22.909 32.448 32.448 0 0 1 22.931-9.49z" fill="#1E39CD"/><path d="M95.64 90.3a25.84 25.84 0 0 0-18.263 7.558 25.787 25.787 0 0 0-7.564 18.243 25.786 25.786 0 0 0 7.564 18.244 25.838 25.838 0 0 0 28.146 5.593 25.82 25.82 0 0 0 13.977-13.963 25.775 25.775 0 0 0 0-19.747 25.801 25.801 0 0 0-13.977-13.963 25.852 25.852 0 0 0-9.884-1.964zm0 12.602c3.504 0 6.864 1.39 9.342 3.866a13.192 13.192 0 0 1 0 18.667 13.22 13.22 0 0 1-18.686 0 13.193 13.193 0 0 1 0-18.667 13.217 13.217 0 0 1 9.343-3.866z" fill="#1E39CD"/><path d="M95.64 123.503a7.405 7.405 0 0 0 7.408-7.402c0-4.087-3.317-7.401-7.409-7.401s-7.409 3.314-7.409 7.401c0 4.088 3.317 7.402 7.41 7.402z" fill="#1E39CD"/><path d="M204.361 73.5a42.68 42.68 0 0 0-16.319 3.244 42.639 42.639 0 0 0-13.833 9.234 42.593 42.593 0 0 0-12.488 30.123 42.565 42.565 0 0 0 12.488 30.123 42.64 42.64 0 0 0 13.833 9.235 42.68 42.68 0 0 0 32.637 0 42.644 42.644 0 0 0 13.834-9.235A42.564 42.564 0 0 0 247 116.101a42.56 42.56 0 0 0-12.487-30.123A42.671 42.671 0 0 0 204.361 73.5zm0 10.203c8.601 0 16.85 3.413 22.932 9.49a32.382 32.382 0 0 1 9.499 22.908 32.384 32.384 0 0 1-9.499 22.91 32.451 32.451 0 0 1-45.864 0 32.384 32.384 0 0 1-9.499-22.91 32.382 32.382 0 0 1 9.499-22.909 32.447 32.447 0 0 1 22.932-9.489z" fill="#006F00"/><path d="M204.361 90.3a25.842 25.842 0 0 0-18.263 7.558 25.789 25.789 0 0 0-7.564 18.243 25.788 25.788 0 0 0 7.564 18.244 25.84 25.84 0 0 0 28.146 5.593 25.809 25.809 0 0 0 15.943-23.837 25.801 25.801 0 0 0-15.943-23.836 25.848 25.848 0 0 0-9.883-1.964zm0 12.602c3.504 0 6.865 1.39 9.343 3.866a13.196 13.196 0 0 1 3.87 9.333c0 3.501-1.393 6.859-3.87 9.334a13.222 13.222 0 0 1-18.686 0 13.192 13.192 0 0 1 0-18.667 13.216 13.216 0 0 1 9.343-3.866z" fill="#006F00"/><path d="M204.361 123.503a7.405 7.405 0 0 0 7.409-7.402c0-4.087-3.317-7.401-7.409-7.401s-7.409 3.314-7.409 7.401a7.405 7.405 0 0 0 7.409 7.402z" fill="#006F00"/><path d="M204.361 261.298a42.68 42.68 0 0 0-16.319 3.243 42.64 42.64 0 0 0-23.076 23.055 42.565 42.565 0 0 0 0 32.605 42.6 42.6 0 0 0 23.076 23.055 42.68 42.68 0 0 0 46.471-9.234A42.563 42.563 0 0 0 247 303.899a42.564 42.564 0 0 0-12.487-30.123 42.671 42.671 0 0 0-30.152-12.478zm0 10.202c8.601 0 16.85 3.413 22.932 9.489a32.384 32.384 0 0 1 9.499 22.91 32.383 32.383 0 0 1-9.499 22.909 32.447 32.447 0 0 1-22.932 9.489 32.447 32.447 0 0 1-22.932-9.489 32.383 32.383 0 0 1-9.499-22.909 32.384 32.384 0 0 1 9.499-22.91 32.447 32.447 0 0 1 22.932-9.489z" fill="#1E39CD"/><path d="M204.361 278.098a25.84 25.84 0 0 0-18.263 7.557 25.788 25.788 0 0 0-7.564 18.244 25.787 25.787 0 0 0 7.564 18.243 25.84 25.84 0 0 0 28.146 5.593 25.809 25.809 0 0 0 15.943-23.836 25.775 25.775 0 0 0-7.564-18.244 25.84 25.84 0 0 0-18.262-7.557zm0 12.601c3.504 0 6.865 1.391 9.343 3.866a13.197 13.197 0 0 1 3.87 9.334c0 3.5-1.393 6.858-3.87 9.333a13.218 13.218 0 0 1-9.343 3.866c-3.505 0-6.865-1.39-9.343-3.866a13.192 13.192 0 0 1 0-18.667 13.22 13.22 0 0 1 9.343-3.866z" fill="#1E39CD"/><path d="M204.361 311.3c4.092 0 7.409-3.314 7.409-7.401a7.405 7.405 0 0 0-7.409-7.402 7.405 7.405 0 0 0-7.409 7.402c0 4.087 3.317 7.401 7.409 7.401z" fill="#1E39CD"/><path d="M95.64 261.298a42.675 42.675 0 0 0-30.153 12.478A42.587 42.587 0 0 0 53 303.899a42.56 42.56 0 0 0 3.245 16.302 42.602 42.602 0 0 0 23.076 23.055 42.675 42.675 0 0 0 46.47-9.234 42.585 42.585 0 0 0 12.488-30.123 42.565 42.565 0 0 0-12.488-30.123 42.64 42.64 0 0 0-13.833-9.235 42.68 42.68 0 0 0-16.319-3.243zm0 10.202c8.601 0 16.85 3.413 22.932 9.489a32.382 32.382 0 0 1 0 45.819 32.447 32.447 0 0 1-22.933 9.489 32.447 32.447 0 0 1-22.932-9.489 32.383 32.383 0 0 1-9.499-22.909 32.383 32.383 0 0 1 9.5-22.91 32.447 32.447 0 0 1 22.931-9.489z" fill="#006F00"/><path d="M95.64 278.098a25.838 25.838 0 0 0-18.263 7.557 25.786 25.786 0 0 0-7.564 18.244 25.786 25.786 0 0 0 7.564 18.243 25.838 25.838 0 0 0 28.146 5.593 25.82 25.82 0 0 0 13.977-13.963 25.774 25.774 0 0 0 0-19.747 25.795 25.795 0 0 0-13.977-13.963 25.844 25.844 0 0 0-9.884-1.964zm0 12.601a13.22 13.22 0 0 1 9.342 3.866 13.192 13.192 0 0 1 0 18.667 13.216 13.216 0 0 1-9.343 3.866c-3.504 0-6.865-1.39-9.343-3.866a13.192 13.192 0 0 1 0-18.667 13.221 13.221 0 0 1 9.343-3.866z" fill="#006F00"/><path d="M95.64 311.3c4.091 0 7.408-3.314 7.408-7.401a7.405 7.405 0 0 0-7.409-7.402c-4.092 0-7.409 3.314-7.409 7.402 0 4.087 3.317 7.401 7.41 7.401z" fill="#006F00"/><path d="M150.002 167.399a42.671 42.671 0 0 0-30.152 12.478A42.559 42.559 0 0 0 107.363 210a42.559 42.559 0 0 0 12.487 30.123 42.671 42.671 0 0 0 60.304 0A42.59 42.59 0 0 0 192.642 210a42.59 42.59 0 0 0-12.488-30.123 42.64 42.64 0 0 0-13.833-9.235 42.68 42.68 0 0 0-16.319-3.243zm0 10.203c8.601 0 16.85 3.413 22.932 9.489A32.381 32.381 0 0 1 182.433 210a32.381 32.381 0 0 1-9.499 22.909 32.447 32.447 0 0 1-22.932 9.489 32.447 32.447 0 0 1-22.932-9.489A32.381 32.381 0 0 1 117.571 210a32.381 32.381 0 0 1 9.499-22.909 32.447 32.447 0 0 1 22.932-9.489z" fill="#B93C3C"/><path d="M150.002 184.199a25.842 25.842 0 0 0-18.262 7.557 25.785 25.785 0 0 0 0 36.488 25.842 25.842 0 0 0 42.123-8.37 25.782 25.782 0 0 0-5.598-28.118 25.846 25.846 0 0 0-18.263-7.557zm0 12.601a13.22 13.22 0 0 1 9.343 3.866 13.194 13.194 0 0 1 0 18.668 13.22 13.22 0 0 1-18.686 0 13.194 13.194 0 0 1 0-18.668 13.222 13.222 0 0 1 9.343-3.866z" fill="#B93C3C"/><path d="M150.002 217.402a7.405 7.405 0 0 0 7.409-7.402 7.405 7.405 0 0 0-7.409-7.402 7.405 7.405 0 0 0-7.409 7.402 7.405 7.405 0 0 0 7.409 7.402z" fill="#B93C3C"/></g><defs><clipPath id="a"><path fill="#fff" transform="translate(53 73.5)" d="M0 0h194v273H0z"/></clipPath></defs></svg>