<svg width="300" height="420" fill="none" xmlns="http://www.w3.org/2000/svg"><g clip-path="url(#a)"><path d="M104.672 46.001a42.738 42.738 0 0 0-30.17 12.457 42.462 42.462 0 0 0-12.498 30.074 42.412 42.412 0 0 0 3.247 16.277 42.507 42.507 0 0 0 9.249 13.799 42.682 42.682 0 0 0 13.843 9.221 42.79 42.79 0 0 0 32.66.001 42.665 42.665 0 0 0 13.844-9.22 42.51 42.51 0 0 0 9.25-13.8 42.41 42.41 0 0 0-.001-32.555 42.52 42.52 0 0 0-9.25-13.798 42.686 42.686 0 0 0-13.844-9.22 42.787 42.787 0 0 0-16.33-3.236zm90.66 0c-5.603 0-11.152 1.1-16.33 3.236a42.686 42.686 0 0 0-13.844 9.22 42.536 42.536 0 0 0-9.25 13.798 42.421 42.421 0 0 0-.001 32.555 42.51 42.51 0 0 0 9.25 13.8 42.67 42.67 0 0 0 13.845 9.22 42.782 42.782 0 0 0 16.33 3.237c5.604 0 11.152-1.1 16.329-3.238a42.68 42.68 0 0 0 13.843-9.221 42.493 42.493 0 0 0 9.249-13.799A42.405 42.405 0 0 0 238 88.532a42.46 42.46 0 0 0-12.497-30.074 42.739 42.739 0 0 0-30.171-12.457zm-90.66 10.182a32.506 32.506 0 0 1 22.948 9.475 32.296 32.296 0 0 1 9.505 22.874 32.24 32.24 0 0 1-2.469 12.38 32.33 32.33 0 0 1-7.035 10.496 32.442 32.442 0 0 1-10.529 7.014 32.536 32.536 0 0 1-35.369-7.014 32.33 32.33 0 0 1-7.034-10.496 32.257 32.257 0 0 1-2.47-12.38c0-8.58 3.42-16.807 9.506-22.874a32.506 32.506 0 0 1 22.947-9.475zm90.66 0a32.506 32.506 0 0 1 22.948 9.475 32.296 32.296 0 0 1 9.505 22.874 32.277 32.277 0 0 1-9.504 22.876 32.442 32.442 0 0 1-10.529 7.014 32.54 32.54 0 0 1-24.84 0 32.452 32.452 0 0 1-10.529-7.014 32.277 32.277 0 0 1-9.504-22.876c0-8.58 3.42-16.808 9.506-22.874a32.504 32.504 0 0 1 22.947-9.475zm-90.66 6.592a25.886 25.886 0 0 0-18.27 7.545 25.72 25.72 0 0 0-7.57 18.212 25.719 25.719 0 0 0 7.569 18.214 25.886 25.886 0 0 0 18.271 7.547 25.887 25.887 0 0 0 18.275-7.545 25.72 25.72 0 0 0 7.569-18.216 25.717 25.717 0 0 0-7.571-18.213 25.885 25.885 0 0 0-18.273-7.544zm90.66 0a25.888 25.888 0 0 0-18.273 7.544 25.717 25.717 0 0 0-7.571 18.213 25.72 25.72 0 0 0 7.57 18.216 25.885 25.885 0 0 0 18.274 7.545 25.889 25.889 0 0 0 18.275-7.545 25.724 25.724 0 0 0 7.569-18.216 25.717 25.717 0 0 0-7.571-18.213 25.886 25.886 0 0 0-18.273-7.544zm-90.66 12.578c3.507 0 6.87 1.388 9.35 3.86a13.16 13.16 0 0 1 3.872 9.319 13.16 13.16 0 0 1-3.872 9.319 13.244 13.244 0 0 1-9.35 3.86c-3.506 0-6.87-1.388-9.349-3.86a13.158 13.158 0 0 1-3.872-9.32c0-3.495 1.393-6.847 3.872-9.318a13.244 13.244 0 0 1 9.349-3.86zm90.66 0c3.507 0 6.87 1.388 9.349 3.86a13.157 13.157 0 0 1 3.873 9.319c0 3.495-1.393 6.847-3.873 9.319a13.24 13.24 0 0 1-9.349 3.86 13.24 13.24 0 0 1-9.349-3.86 13.156 13.156 0 0 1-3.873-9.32c0-3.495 1.393-6.847 3.873-9.318a13.241 13.241 0 0 1 9.349-3.86zm-90.66 5.793a7.43 7.43 0 0 0-5.24 2.163 7.385 7.385 0 0 0-2.17 5.223 7.365 7.365 0 0 0 2.17 5.225 7.429 7.429 0 0 0 10.48.002 7.376 7.376 0 0 0-2.403-12.05 7.43 7.43 0 0 0-2.837-.563zm90.66 0a7.43 7.43 0 0 0-5.239 2.163 7.372 7.372 0 0 0-1.608 8.05 7.384 7.384 0 0 0 4.01 4 7.42 7.42 0 0 0 8.076-1.6 7.373 7.373 0 0 0 .002-10.448 7.412 7.412 0 0 0-5.241-2.165z" fill="#006F00"/><path d="M104.672 211.317a42.78 42.78 0 0 0-16.329 3.238 42.682 42.682 0 0 0-13.843 9.221 42.507 42.507 0 0 0-9.249 13.799 42.415 42.415 0 0 0-3.247 16.277 42.432 42.432 0 0 0 6.87 23.125 42.625 42.625 0 0 0 18.38 15.683 42.636 42.636 0 0 0-18.38 15.682 42.43 42.43 0 0 0-6.87 23.122 42.462 42.462 0 0 0 12.497 30.074 42.738 42.738 0 0 0 30.171 12.457 42.8 42.8 0 0 0 16.33-3.236 42.692 42.692 0 0 0 13.844-9.22 42.518 42.518 0 0 0 9.25-13.798 42.406 42.406 0 0 0 3.249-16.277 42.437 42.437 0 0 0-6.864-23.122 42.627 42.627 0 0 0-18.372-15.686 42.632 42.632 0 0 0 18.371-15.684 42.432 42.432 0 0 0 6.865-23.12 42.41 42.41 0 0 0-3.248-16.278 42.51 42.51 0 0 0-9.25-13.8 42.665 42.665 0 0 0-13.844-9.22 42.79 42.79 0 0 0-16.331-3.237zm90.66 0a42.782 42.782 0 0 0-16.33 3.237 42.67 42.67 0 0 0-13.845 9.22 42.51 42.51 0 0 0-9.25 13.8 42.409 42.409 0 0 0-3.247 16.278 42.432 42.432 0 0 0 6.871 23.125 42.626 42.626 0 0 0 18.382 15.683 42.632 42.632 0 0 0-18.381 15.681 42.427 42.427 0 0 0-6.872 23.123 42.424 42.424 0 0 0 3.248 16.277 42.534 42.534 0 0 0 9.25 13.798 42.692 42.692 0 0 0 13.844 9.22 42.807 42.807 0 0 0 32.659-.002 42.68 42.68 0 0 0 13.842-9.219 42.526 42.526 0 0 0 9.249-13.798A42.419 42.419 0 0 0 238 331.464a42.43 42.43 0 0 0-6.86-23.12 42.631 42.631 0 0 0-18.367-15.688 42.63 42.63 0 0 0 18.366-15.686A42.432 42.432 0 0 0 238 253.852a42.408 42.408 0 0 0-3.247-16.277 42.493 42.493 0 0 0-9.249-13.799 42.68 42.68 0 0 0-13.843-9.221 42.778 42.778 0 0 0-16.329-3.238zm-90.66 10.187a32.508 32.508 0 0 1 22.948 9.474 32.298 32.298 0 0 1 9.505 22.874c0 8.58-3.419 16.808-9.505 22.874a32.505 32.505 0 0 1-22.948 9.475 32.504 32.504 0 0 1-22.947-9.475 32.294 32.294 0 0 1-9.506-22.874c0-8.579 3.42-16.807 9.506-22.874a32.508 32.508 0 0 1 22.947-9.474zm90.66 0a32.508 32.508 0 0 1 22.948 9.474 32.298 32.298 0 0 1 9.505 22.874c0 8.58-3.419 16.808-9.505 22.874a32.505 32.505 0 0 1-22.948 9.475 32.503 32.503 0 0 1-22.947-9.475 32.295 32.295 0 0 1-9.506-22.874c0-8.579 3.42-16.807 9.506-22.874a32.506 32.506 0 0 1 22.947-9.474zm-90.66 6.587a25.886 25.886 0 0 0-18.271 7.547 25.72 25.72 0 0 0-7.569 18.214 25.718 25.718 0 0 0 7.569 18.214 25.886 25.886 0 0 0 18.271 7.547 25.887 25.887 0 0 0 18.275-7.545 25.718 25.718 0 0 0 7.569-18.216 25.72 25.72 0 0 0-7.569-18.216 25.887 25.887 0 0 0-18.275-7.545zm90.66 0a25.885 25.885 0 0 0-18.274 7.545 25.72 25.72 0 0 0-7.57 18.216 25.719 25.719 0 0 0 7.57 18.216 25.885 25.885 0 0 0 18.274 7.545 25.889 25.889 0 0 0 18.275-7.545 25.722 25.722 0 0 0 7.569-18.216 25.724 25.724 0 0 0-7.569-18.216 25.889 25.889 0 0 0-18.275-7.545zm-90.66 12.582c3.507 0 6.87 1.388 9.35 3.86a13.16 13.16 0 0 1 3.872 9.319c0 3.496-1.393 6.848-3.872 9.319a13.245 13.245 0 0 1-9.35 3.861c-3.506 0-6.87-1.389-9.349-3.861a13.156 13.156 0 0 1-3.872-9.319c0-3.495 1.393-6.847 3.872-9.319a13.242 13.242 0 0 1 9.349-3.86zm90.66 0a13.24 13.24 0 0 1 9.349 3.86 13.157 13.157 0 0 1 3.873 9.319c0 3.496-1.393 6.848-3.873 9.319a13.24 13.24 0 0 1-9.349 3.861 13.24 13.24 0 0 1-9.349-3.861 13.154 13.154 0 0 1-3.873-9.319c0-3.495 1.393-6.847 3.873-9.319a13.24 13.24 0 0 1 9.349-3.86zm-90.66 5.789a7.418 7.418 0 0 0-6.846 4.562 7.374 7.374 0 0 0 1.607 8.051 7.422 7.422 0 0 0 5.239 2.163c1.966 0 3.85-.778 5.24-2.163a7.377 7.377 0 0 0 2.17-5.223 7.374 7.374 0 0 0-2.17-5.222 7.423 7.423 0 0 0-5.24-2.168zm90.66 0a7.427 7.427 0 0 0-5.241 2.165 7.362 7.362 0 0 0-2.168 5.225c0 1.959.78 3.838 2.17 5.223a7.42 7.42 0 0 0 5.239 2.163 7.42 7.42 0 0 0 5.239-2.163 7.371 7.371 0 0 0 0-10.445 7.42 7.42 0 0 0-5.239-2.168zm-90.66 52.649c4.263 0 8.483.837 12.42 2.463a32.455 32.455 0 0 1 10.529 7.013 32.351 32.351 0 0 1 7.035 10.496 32.247 32.247 0 0 1 2.469 12.381 32.298 32.298 0 0 1-9.505 22.874 32.508 32.508 0 0 1-22.948 9.474 32.508 32.508 0 0 1-22.947-9.474 32.298 32.298 0 0 1-9.506-22.874c0-4.249.839-8.455 2.47-12.381a32.352 32.352 0 0 1 7.034-10.496 32.463 32.463 0 0 1 10.53-7.013 32.541 32.541 0 0 1 12.419-2.463zm90.66 0c4.262 0 8.483.837 12.42 2.463a32.455 32.455 0 0 1 10.529 7.013 32.284 32.284 0 0 1 9.504 22.877 32.298 32.298 0 0 1-9.505 22.874 32.508 32.508 0 0 1-22.948 9.474 32.506 32.506 0 0 1-22.947-9.474 32.299 32.299 0 0 1-9.506-22.874 32.284 32.284 0 0 1 9.504-22.877 32.465 32.465 0 0 1 10.529-7.013 32.544 32.544 0 0 1 12.42-2.463zm-90.66 6.592a25.886 25.886 0 0 0-18.271 7.547 25.718 25.718 0 0 0-7.569 18.214 25.72 25.72 0 0 0 7.569 18.214 25.886 25.886 0 0 0 18.271 7.547 25.887 25.887 0 0 0 18.275-7.545 25.718 25.718 0 0 0 7.569-18.216c0-3.383-.668-6.733-1.967-9.858a25.75 25.75 0 0 0-5.602-8.358 25.906 25.906 0 0 0-18.275-7.545zm90.66 0a25.885 25.885 0 0 0-18.274 7.545 25.719 25.719 0 0 0-7.57 18.216 25.719 25.719 0 0 0 7.57 18.216 25.885 25.885 0 0 0 18.274 7.545 25.889 25.889 0 0 0 18.275-7.545 25.722 25.722 0 0 0 7.569-18.216c0-3.383-.668-6.733-1.967-9.858a25.767 25.767 0 0 0-5.602-8.358 25.906 25.906 0 0 0-18.275-7.545zm-90.66 12.582c3.507 0 6.87 1.388 9.35 3.86a13.159 13.159 0 0 1 3.872 9.319c0 3.495-1.393 6.848-3.872 9.319a13.244 13.244 0 0 1-9.35 3.86c-3.506 0-6.87-1.388-9.349-3.86a13.157 13.157 0 0 1-3.872-9.319c0-3.495 1.393-6.848 3.872-9.319a13.242 13.242 0 0 1 9.349-3.86zm90.66 0a13.24 13.24 0 0 1 9.349 3.86 13.156 13.156 0 0 1 3.873 9.319c0 3.495-1.393 6.848-3.873 9.319a13.24 13.24 0 0 1-9.349 3.86 13.24 13.24 0 0 1-9.349-3.86 13.156 13.156 0 0 1-3.873-9.319c0-3.495 1.393-6.848 3.873-9.319a13.24 13.24 0 0 1 9.349-3.86zm-90.66 5.789a7.422 7.422 0 0 0-5.24 2.163 7.374 7.374 0 0 0 0 10.448 7.418 7.418 0 0 0 5.24 2.165c1.966 0 3.85-.778 5.24-2.163a7.378 7.378 0 0 0 2.17-5.223 7.377 7.377 0 0 0-2.17-5.223 7.426 7.426 0 0 0-5.24-2.167zm90.66 0a7.42 7.42 0 0 0-5.239 2.163 7.372 7.372 0 0 0-.002 10.448 7.408 7.408 0 0 0 5.241 2.165 7.42 7.42 0 0 0 5.239-2.163 7.375 7.375 0 0 0 2.171-5.223 7.373 7.373 0 0 0-2.171-5.223 7.424 7.424 0 0 0-5.239-2.167z" fill="#B93C3C"/></g><defs><clipPath id="a"><path fill="#fff" transform="translate(62 46)" d="M0 0h176v328H0z"/></clipPath></defs></svg>