<svg width="300" height="420" fill="none" xmlns="http://www.w3.org/2000/svg"><g clip-path="url(#a)"><path d="M71.603 42A42.62 42.62 0 0 0 41.48 54.47a42.571 42.571 0 0 0-12.475 30.106c0 11.29 4.488 22.119 12.476 30.102a42.61 42.61 0 0 0 30.122 12.469 42.616 42.616 0 0 0 30.124-12.467 42.561 42.561 0 0 0-13.82-69.44A42.62 42.62 0 0 0 71.603 42zm0 10.192a32.417 32.417 0 0 1 22.911 9.485 32.37 32.37 0 0 1-.001 45.795 32.41 32.41 0 0 1-22.91 9.483 32.41 32.41 0 0 1-22.91-9.483 32.371 32.371 0 0 1 10.51-52.815 32.418 32.418 0 0 1 12.4-2.465zm0 6.598a25.81 25.81 0 0 0-18.242 7.554 25.778 25.778 0 0 0-7.556 18.232 25.778 25.778 0 0 0 7.557 18.229 25.812 25.812 0 0 0 36.484.001 25.776 25.776 0 0 0 7.558-18.23 25.777 25.777 0 0 0-7.557-18.233 25.81 25.81 0 0 0-18.244-7.553zm0 12.594a13.206 13.206 0 0 1 12.195 8.144 13.186 13.186 0 0 1-2.861 14.376 13.205 13.205 0 0 1-18.668 0 13.188 13.188 0 0 1 0-18.656 13.204 13.204 0 0 1 9.334-3.864zm0 5.795a7.4 7.4 0 0 0-5.231 2.165 7.39 7.39 0 0 0-1.605 8.058 7.395 7.395 0 0 0 6.836 4.567 7.4 7.4 0 0 0 6.838-4.563 7.39 7.39 0 0 0-1.603-8.058 7.4 7.4 0 0 0-5.231-2.165l-.004-.004zm78.401 4.397a42.618 42.618 0 0 0-30.123 12.47 42.565 42.565 0 0 0-12.475 30.106 42.556 42.556 0 0 0 12.477 30.102 42.611 42.611 0 0 0 30.121 12.469 42.612 42.612 0 0 0 30.122-12.469 42.559 42.559 0 0 0 .001-60.208 42.598 42.598 0 0 0-30.123-12.47zm0 10.192a32.418 32.418 0 0 1 22.912 9.485 32.373 32.373 0 0 1-.002 45.795 32.41 32.41 0 0 1-22.91 9.483 32.41 32.41 0 0 1-22.91-9.483 32.372 32.372 0 0 1-.001-45.795 32.397 32.397 0 0 1 22.911-9.485zm0 6.598a25.807 25.807 0 0 0-18.244 7.553 25.774 25.774 0 0 0-7.557 18.233 25.774 25.774 0 0 0 7.558 18.23 25.81 25.81 0 0 0 36.486 0 25.775 25.775 0 0 0 7.559-18.23 25.774 25.774 0 0 0-7.557-18.233 25.81 25.81 0 0 0-18.245-7.553zm0 12.594c3.501 0 6.859 1.39 9.334 3.864a13.185 13.185 0 0 1 0 18.656 13.203 13.203 0 0 1-18.668 0 13.189 13.189 0 0 1 0-18.656 13.205 13.205 0 0 1 9.334-3.864zm0 5.794a7.416 7.416 0 0 0-5.231 2.166 7.386 7.386 0 0 0-2.166 5.227 7.391 7.391 0 0 0 7.397 7.398 7.398 7.398 0 0 0 6.836-10.224 7.383 7.383 0 0 0-4.004-4.003 7.4 7.4 0 0 0-2.832-.564zm78.402 4.398a42.602 42.602 0 0 0-39.361 26.282 42.554 42.554 0 0 0 9.237 46.398 42.595 42.595 0 0 0 30.124 12.467 42.61 42.61 0 0 0 30.121-12.469 42.556 42.556 0 0 0 .002-60.208 42.612 42.612 0 0 0-30.123-12.47zm0 10.192a32.422 32.422 0 0 1 22.911 9.485 32.37 32.37 0 0 1-.001 45.794 32.407 32.407 0 0 1-22.91 9.484 32.407 32.407 0 0 1-22.91-9.484 32.369 32.369 0 0 1-.002-45.794 32.418 32.418 0 0 1 22.912-9.485zm0 6.598a25.814 25.814 0 0 0-18.245 7.552 25.778 25.778 0 0 0-7.557 18.234 25.775 25.775 0 0 0 7.559 18.23 25.81 25.81 0 0 0 36.486 0 25.778 25.778 0 0 0 7.558-18.23 25.778 25.778 0 0 0-7.557-18.234 25.81 25.81 0 0 0-18.244-7.552zm0 12.589a13.213 13.213 0 0 1 9.335 3.866 13.18 13.18 0 0 1 3.865 9.331 13.19 13.19 0 0 1-3.866 9.328 13.205 13.205 0 0 1-18.668 0 13.187 13.187 0 0 1-2.863-14.378 13.189 13.189 0 0 1 7.144-7.142 13.215 13.215 0 0 1 5.053-1.005zm0 5.799a7.398 7.398 0 0 0-6.836 10.224 7.383 7.383 0 0 0 4.004 4.003 7.4 7.4 0 0 0 8.063-1.602 7.39 7.39 0 0 0 1.604-8.058 7.39 7.39 0 0 0-4.003-4.003 7.403 7.403 0 0 0-2.832-.564z" fill="#006F00"/><path d="M107.419 202.398a42.605 42.605 0 0 0-39.36 26.282 42.547 42.547 0 0 0-3.242 16.293 42.549 42.549 0 0 0 12.476 30.107 42.605 42.605 0 0 0 30.126 12.469 42.613 42.613 0 0 0 30.029-12.384 42.563 42.563 0 0 0 12.561-29.939 42.556 42.556 0 0 0 12.559 29.938 42.614 42.614 0 0 0 30.026 12.385 42.612 42.612 0 0 0 30.123-12.47 42.57 42.57 0 0 0 9.233-46.398 42.57 42.57 0 0 0-23.054-23.042 42.61 42.61 0 0 0-46.328 9.144 42.556 42.556 0 0 0-12.559 29.938 42.563 42.563 0 0 0-12.561-29.939 42.613 42.613 0 0 0-30.029-12.384zm0 10.196a32.41 32.41 0 0 1 22.907 9.485 32.371 32.371 0 0 1 9.489 22.894 32.372 32.372 0 0 1-9.489 22.895 32.41 32.41 0 0 1-35.307 7.021 32.395 32.395 0 0 1-17.537-17.523 32.366 32.366 0 0 1 7.024-35.29 32.398 32.398 0 0 1 22.913-9.482zm85.175 0a32.407 32.407 0 0 1 22.91 9.484 32.368 32.368 0 0 1 0 45.791 32.407 32.407 0 0 1-22.91 9.484 32.407 32.407 0 0 1-22.91-9.484 32.37 32.37 0 0 1-9.49-22.896 32.369 32.369 0 0 1 9.49-22.895 32.407 32.407 0 0 1 22.91-9.484zm-85.179 6.594a25.807 25.807 0 0 0-18.242 7.554 25.775 25.775 0 0 0 .001 36.465 25.813 25.813 0 0 0 36.487-.002 25.774 25.774 0 0 0 0-36.463 25.818 25.818 0 0 0-18.246-7.554zm85.179 0a25.81 25.81 0 0 0-18.245 7.552 25.778 25.778 0 0 0 0 36.467 25.814 25.814 0 0 0 36.489 0 25.778 25.778 0 0 0 0-36.467 25.806 25.806 0 0 0-18.244-7.552zm-85.179 12.593c3.501 0 6.858 1.39 9.334 3.864a13.187 13.187 0 0 1 .001 18.655 13.202 13.202 0 0 1-14.384 2.862 13.188 13.188 0 0 1 0-24.378 13.212 13.212 0 0 1 5.049-1.003zm85.179 0c3.5.002 6.856 1.392 9.331 3.866a13.19 13.19 0 0 1 0 18.653 13.203 13.203 0 0 1-18.665.002 13.187 13.187 0 0 1 0-18.657 13.203 13.203 0 0 1 9.334-3.864zm-85.179 5.795a7.39 7.39 0 0 0-5.231 2.166 7.389 7.389 0 0 0-1.605 8.058 7.399 7.399 0 0 0 6.836 4.566 7.39 7.39 0 0 0 5.231-12.62 7.403 7.403 0 0 0-5.231-2.17zm85.179 0a7.39 7.39 0 0 0-5.231 2.166 7.389 7.389 0 0 0-1.605 8.058 7.399 7.399 0 0 0 6.836 4.566 7.39 7.39 0 0 0 5.231-12.62 7.403 7.403 0 0 0-5.231-2.17zm-85.179 55.277a42.614 42.614 0 0 0-30.123 12.47 42.571 42.571 0 0 0-12.475 30.105 42.548 42.548 0 0 0 12.478 30.105A42.6 42.6 0 0 0 107.419 378a42.613 42.613 0 0 0 30.029-12.384 42.565 42.565 0 0 0 12.561-29.94 42.554 42.554 0 0 0 12.559 29.938A42.61 42.61 0 0 0 192.594 378a42.61 42.61 0 0 0 30.121-12.469 42.558 42.558 0 0 0 .002-60.208 42.612 42.612 0 0 0-30.123-12.47 42.61 42.61 0 0 0-30.026 12.385 42.556 42.556 0 0 0-12.559 29.938 42.563 42.563 0 0 0-12.561-29.939 42.622 42.622 0 0 0-30.033-12.384zm0 10.192a32.412 32.412 0 0 1 22.911 9.485 32.37 32.37 0 0 1 0 45.793 32.41 32.41 0 0 1-35.307 7.021 32.387 32.387 0 0 1-17.537-17.523 32.366 32.366 0 0 1-.001-24.786 32.391 32.391 0 0 1 29.934-19.99zm85.179 0a32.412 32.412 0 0 1 22.911 9.485 32.37 32.37 0 0 1-.001 45.794 32.407 32.407 0 0 1-22.91 9.484 32.407 32.407 0 0 1-22.91-9.484 32.37 32.37 0 0 1-.002-45.794 32.403 32.403 0 0 1 22.912-9.485zm-85.179 6.598a25.807 25.807 0 0 0-18.242 7.554 25.775 25.775 0 0 0-7.556 18.231 25.78 25.78 0 0 0 7.559 18.231 25.81 25.81 0 0 0 36.483-.002 25.773 25.773 0 0 0 .002-36.46 25.818 25.818 0 0 0-18.246-7.554zm85.179 0a25.81 25.81 0 0 0-23.838 15.918 25.78 25.78 0 0 0-1.964 9.867 25.777 25.777 0 0 0 7.559 18.231 25.81 25.81 0 0 0 36.486 0 25.776 25.776 0 0 0 5.594-28.098 25.775 25.775 0 0 0-13.963-13.955 25.817 25.817 0 0 0-9.874-1.963zm-85.179 12.589a13.21 13.21 0 0 1 9.335 3.866 13.18 13.18 0 0 1 3.865 9.33c0 3.498-1.39 6.853-3.865 9.327a13.202 13.202 0 0 1-14.384 2.862 13.188 13.188 0 0 1-8.151-12.189 13.18 13.18 0 0 1 3.866-9.332 13.21 13.21 0 0 1 9.334-3.864zm85.179 0a13.196 13.196 0 0 1 13.196 13.196c0 3.498-1.391 6.853-3.865 9.327a13.203 13.203 0 0 1-18.665.002 13.187 13.187 0 0 1-2.863-14.378 13.196 13.196 0 0 1 12.197-8.147zm-85.179 5.799a7.39 7.39 0 0 0-5.231 2.166 7.389 7.389 0 0 0 2.4 12.057 7.39 7.39 0 0 0 5.662 0 7.402 7.402 0 0 0 4.003-4.001 7.389 7.389 0 0 0-1.603-8.056 7.4 7.4 0 0 0-5.231-2.166zm85.179 0a7.39 7.39 0 0 0-5.231 2.166 7.389 7.389 0 0 0 2.4 12.057 7.39 7.39 0 0 0 5.662 0 7.402 7.402 0 0 0 4.003-4.001 7.389 7.389 0 0 0-1.603-8.056 7.4 7.4 0 0 0-5.231-2.166z" fill="#B93C3C"/></g><defs><clipPath id="a"><path fill="#fff" transform="translate(29 42)" d="M0 0h242v336H0z"/></clipPath></defs></svg>