<svg width="300" height="420" fill="none" xmlns="http://www.w3.org/2000/svg"><g clip-path="url(#a)"><path d="M104.672 48.501a42.724 42.724 0 0 0-16.33 3.242A42.672 42.672 0 0 0 74.5 60.978a42.6 42.6 0 0 0-9.25 13.822A42.549 42.549 0 0 0 62 91.106a42.556 42.556 0 0 0 7.458 23.98 42.657 42.657 0 0 0 19.688 15.622 42.654 42.654 0 0 0-19.69 15.623A42.56 42.56 0 0 0 62 170.313c.02 8.604 2.647 17 7.538 24.084A42.659 42.659 0 0 0 89.398 210a42.655 42.655 0 0 0-19.86 15.601A42.557 42.557 0 0 0 62 249.683a42.56 42.56 0 0 0 7.458 23.98 42.655 42.655 0 0 0 19.688 15.621 42.66 42.66 0 0 0-19.69 15.623A42.56 42.56 0 0 0 62 328.89a42.544 42.544 0 0 0 3.247 16.306 42.602 42.602 0 0 0 9.25 13.824 42.716 42.716 0 0 0 30.175 12.478 42.731 42.731 0 0 0 16.33-3.243 42.656 42.656 0 0 0 23.091-23.06 42.564 42.564 0 0 0-4.122-40.24 42.647 42.647 0 0 0-19.563-15.666 42.662 42.662 0 0 0 19.564-15.669 42.56 42.56 0 0 0 7.368-23.937 42.563 42.563 0 0 0-7.458-24.044 42.648 42.648 0 0 0-19.748-15.643 42.662 42.662 0 0 0 19.747-15.643 42.559 42.559 0 0 0 7.459-24.04 42.562 42.562 0 0 0-7.369-23.935 42.655 42.655 0 0 0-19.563-15.667 42.655 42.655 0 0 0 19.563-15.667 42.56 42.56 0 0 0-5.127-54.063 42.666 42.666 0 0 0-13.842-9.236 42.726 42.726 0 0 0-16.33-3.244zm90.66 0a42.728 42.728 0 0 0-16.33 3.242 42.665 42.665 0 0 0-13.843 9.235 42.602 42.602 0 0 0-9.251 13.822 42.54 42.54 0 0 0-3.248 16.305 42.558 42.558 0 0 0 7.457 23.98 42.656 42.656 0 0 0 19.689 15.622 42.654 42.654 0 0 0-19.69 15.623 42.562 42.562 0 0 0-7.456 23.983c.019 8.604 2.647 17 7.538 24.084A42.653 42.653 0 0 0 180.059 210a42.65 42.65 0 0 0-19.86 15.601 42.552 42.552 0 0 0-7.539 24.082 42.56 42.56 0 0 0 7.457 23.98 42.654 42.654 0 0 0 19.689 15.621 42.66 42.66 0 0 0-19.69 15.623 42.562 42.562 0 0 0-7.456 23.983 42.54 42.54 0 0 0 3.247 16.306 42.59 42.59 0 0 0 9.25 13.824 42.689 42.689 0 0 0 30.175 12.478 42.726 42.726 0 0 0 16.329-3.243 42.66 42.66 0 0 0 13.843-9.237A42.589 42.589 0 0 0 238 328.89a42.556 42.556 0 0 0-7.371-23.935 42.651 42.651 0 0 0-19.565-15.666 42.654 42.654 0 0 0 19.566-15.668 42.557 42.557 0 0 0 7.37-23.938 42.563 42.563 0 0 0-7.458-24.044 42.658 42.658 0 0 0-19.748-15.643 42.655 42.655 0 0 0 19.746-15.643 42.552 42.552 0 0 0 7.46-24.04 42.557 42.557 0 0 0-7.371-23.936 42.657 42.657 0 0 0-19.565-15.666 42.657 42.657 0 0 0 19.565-15.666 42.556 42.556 0 0 0-5.125-54.064 42.67 42.67 0 0 0-13.843-9.236 42.72 42.72 0 0 0-16.329-3.244zm-90.66 10.2a32.479 32.479 0 0 1 22.948 9.491 32.38 32.38 0 0 1 7.036 35.315 32.443 32.443 0 0 1-17.564 17.54 32.506 32.506 0 0 1-24.84 0 32.453 32.453 0 0 1-10.529-7.026 32.394 32.394 0 0 1-9.504-22.916 32.38 32.38 0 0 1 9.506-22.913 32.477 32.477 0 0 1 22.947-9.49zm90.66 0a32.478 32.478 0 0 1 22.945 9.493 32.38 32.38 0 0 1 7.035 35.312 32.403 32.403 0 0 1-7.034 10.514 32.459 32.459 0 0 1-10.527 7.025 32.503 32.503 0 0 1-24.84.003 32.413 32.413 0 0 1-17.567-17.54 32.365 32.365 0 0 1 .002-24.804 32.398 32.398 0 0 1 7.036-10.513 32.493 32.493 0 0 1 22.95-9.49zm-90.66 6.603a25.863 25.863 0 0 0-18.273 7.557 25.786 25.786 0 0 0-7.57 18.244 25.784 25.784 0 0 0 7.569 18.247 25.861 25.861 0 0 0 18.274 7.558 25.863 25.863 0 0 0 18.275-7.558 25.782 25.782 0 0 0 7.569-18.247 25.783 25.783 0 0 0-7.571-18.244 25.862 25.862 0 0 0-18.273-7.557zm90.66 0a25.864 25.864 0 0 0-18.273 7.557 25.783 25.783 0 0 0-7.571 18.244 25.787 25.787 0 0 0 7.569 18.247 25.866 25.866 0 0 0 36.547-.001 25.79 25.79 0 0 0 7.568-18.246 25.784 25.784 0 0 0-7.57-18.243 25.862 25.862 0 0 0-18.27-7.558zm-90.66 12.6a13.233 13.233 0 0 1 9.347 3.868 13.194 13.194 0 0 1 3.871 9.333c0 3.5-1.393 6.858-3.871 9.334a13.232 13.232 0 0 1-18.696.001 13.19 13.19 0 0 1 0-18.67 13.232 13.232 0 0 1 9.349-3.867zm90.66 0a13.23 13.23 0 0 1 9.346 3.868 13.19 13.19 0 0 1 0 18.667 13.228 13.228 0 0 1-14.407 2.864 13.212 13.212 0 0 1-7.158-7.145 13.18 13.18 0 0 1 0-10.106 13.217 13.217 0 0 1 12.219-8.149zm-90.66 5.803c-1.965 0-3.85.78-5.24 2.167a7.393 7.393 0 0 0 0 10.463 7.414 7.414 0 0 0 10.48 0 7.395 7.395 0 0 0 0-10.463 7.418 7.418 0 0 0-5.24-2.167zm90.66 0a7.42 7.42 0 0 0-5.242 2.165 7.398 7.398 0 0 0-2.172 5.233c0 1.962.781 3.844 2.17 5.232a7.418 7.418 0 0 0 8.077 1.605 7.418 7.418 0 0 0 4.012-4.004 7.383 7.383 0 0 0-1.605-8.064 7.418 7.418 0 0 0-5.24-2.167zm-90.66 54.202a32.478 32.478 0 0 1 22.948 9.491 32.38 32.38 0 0 1 9.505 22.913 32.38 32.38 0 0 1-9.505 22.913 32.478 32.478 0 0 1-22.948 9.491 32.477 32.477 0 0 1-22.947-9.491 32.38 32.38 0 0 1-9.505-22.913 32.38 32.38 0 0 1 9.505-22.913 32.477 32.477 0 0 1 22.947-9.491zm90.66 0a32.476 32.476 0 0 1 22.945 9.492 32.38 32.38 0 0 1 9.504 22.912 32.38 32.38 0 0 1-9.504 22.911 32.477 32.477 0 0 1-35.365 7.027 32.453 32.453 0 0 1-10.53-7.024 32.394 32.394 0 0 1-9.507-22.914 32.368 32.368 0 0 1 9.507-22.915 32.49 32.49 0 0 1 22.95-9.489zm-90.66 6.599a25.861 25.861 0 0 0-18.274 7.558 25.785 25.785 0 0 0-7.57 18.247 25.786 25.786 0 0 0 7.57 18.247 25.865 25.865 0 0 0 18.274 7.558 25.868 25.868 0 0 0 18.275-7.558 25.783 25.783 0 0 0 0-36.494 25.863 25.863 0 0 0-18.275-7.558zm90.66 0a25.863 25.863 0 0 0-18.275 7.558 25.787 25.787 0 0 0-7.569 18.247 25.789 25.789 0 0 0 7.569 18.247 25.868 25.868 0 0 0 36.547-.002 25.787 25.787 0 0 0 7.568-18.245 25.788 25.788 0 0 0-7.568-18.246 25.866 25.866 0 0 0-18.272-7.559zm-90.66 12.603a13.232 13.232 0 0 1 9.347 3.868 13.195 13.195 0 0 1 3.871 9.334c0 3.5-1.393 6.858-3.871 9.333a13.233 13.233 0 0 1-18.696.002 13.192 13.192 0 0 1-2.866-14.387 13.214 13.214 0 0 1 7.155-7.145 13.231 13.231 0 0 1 5.06-1.005zm90.66 0a13.228 13.228 0 0 1 9.346 3.868 13.19 13.19 0 0 1 0 18.667 13.228 13.228 0 0 1-14.407 2.865 13.215 13.215 0 0 1-7.158-7.145 13.18 13.18 0 0 1 0-10.106 13.194 13.194 0 0 1 2.867-4.284 13.23 13.23 0 0 1 9.352-3.865zm-90.66 5.799a7.418 7.418 0 0 0-5.24 2.168 7.404 7.404 0 0 0-2.17 5.235c0 1.962.781 3.844 2.17 5.231a7.416 7.416 0 0 0 10.48 0 7.393 7.393 0 0 0 0-10.463 7.424 7.424 0 0 0-5.24-2.171zm90.66 0a7.408 7.408 0 0 0-7.414 7.403c0 1.962.781 3.844 2.17 5.231a7.416 7.416 0 0 0 5.24 2.167 7.407 7.407 0 0 0 7.414-7.398 7.396 7.396 0 0 0-2.17-5.232 7.424 7.424 0 0 0-5.24-2.171zm-90.66 54.369a32.478 32.478 0 0 1 22.948 9.491 32.38 32.38 0 0 1 7.036 35.314 32.41 32.41 0 0 1-17.564 17.54 32.487 32.487 0 0 1-35.369-7.025 32.408 32.408 0 0 1-7.034-10.515 32.38 32.38 0 0 1 7.036-35.314 32.477 32.477 0 0 1 22.947-9.491zm90.66 0a32.476 32.476 0 0 1 22.945 9.492 32.38 32.38 0 0 1 7.035 35.312 32.392 32.392 0 0 1-7.034 10.514 32.462 32.462 0 0 1-22.946 9.494 32.473 32.473 0 0 1-22.952-9.491 32.391 32.391 0 0 1-9.505-22.917 32.368 32.368 0 0 1 9.507-22.915 32.49 32.49 0 0 1 22.95-9.489zm-90.66 6.598a25.862 25.862 0 0 0-18.274 7.559 25.785 25.785 0 0 0-7.57 18.247 25.786 25.786 0 0 0 7.57 18.247 25.865 25.865 0 0 0 18.274 7.558 25.868 25.868 0 0 0 18.275-7.558 25.783 25.783 0 0 0 0-36.494 25.864 25.864 0 0 0-18.275-7.559zm90.66 0a25.864 25.864 0 0 0-18.275 7.559 25.787 25.787 0 0 0-7.569 18.247 25.789 25.789 0 0 0 7.569 18.247 25.868 25.868 0 0 0 36.547-.002 25.787 25.787 0 0 0 7.568-18.245 25.788 25.788 0 0 0-7.568-18.246 25.87 25.87 0 0 0-18.272-7.56zm-90.66 12.604a13.232 13.232 0 0 1 9.347 3.868 13.195 13.195 0 0 1 3.871 9.334c0 3.5-1.393 6.858-3.871 9.333a13.232 13.232 0 0 1-18.696.002 13.192 13.192 0 0 1 0-18.671 13.235 13.235 0 0 1 9.349-3.866zm90.66 0a13.228 13.228 0 0 1 9.346 3.868 13.19 13.19 0 0 1 0 18.667 13.233 13.233 0 0 1-21.565-4.28 13.18 13.18 0 0 1 0-10.106 13.184 13.184 0 0 1 2.867-4.284 13.23 13.23 0 0 1 9.352-3.865zm-90.66 5.803a7.413 7.413 0 0 0-6.845 4.567 7.392 7.392 0 0 0 1.606 8.063 7.416 7.416 0 0 0 10.48 0 7.393 7.393 0 0 0-2.405-12.067 7.418 7.418 0 0 0-2.836-.563zm90.66 0a7.402 7.402 0 0 0-7.414 7.399c0 1.962.781 3.844 2.17 5.231a7.416 7.416 0 0 0 5.24 2.167 7.407 7.407 0 0 0 7.414-7.398 7.4 7.4 0 0 0-7.41-7.399zm-90.66 54.202a32.478 32.478 0 0 1 22.948 9.491 32.38 32.38 0 0 1 9.505 22.913 32.38 32.38 0 0 1-9.505 22.913 32.478 32.478 0 0 1-22.948 9.491 32.477 32.477 0 0 1-22.947-9.491 32.38 32.38 0 0 1-9.505-22.913 32.38 32.38 0 0 1 9.505-22.913 32.477 32.477 0 0 1 22.947-9.491zm90.66 0a32.477 32.477 0 0 1 22.945 9.493 32.378 32.378 0 0 1 9.504 22.911 32.38 32.38 0 0 1-9.504 22.912 32.476 32.476 0 0 1-22.945 9.492 32.49 32.49 0 0 1-22.95-9.489 32.368 32.368 0 0 1 0-45.829 32.455 32.455 0 0 1 22.95-9.49zm-90.66 6.599a25.865 25.865 0 0 0-18.274 7.558 25.785 25.785 0 0 0-7.57 18.247 25.785 25.785 0 0 0 7.57 18.247 25.861 25.861 0 0 0 18.274 7.558 25.863 25.863 0 0 0 18.275-7.558 25.783 25.783 0 0 0 0-36.494 25.868 25.868 0 0 0-18.275-7.558zm90.66 0a25.868 25.868 0 0 0-18.275 7.558 25.787 25.787 0 0 0-7.569 18.247 25.787 25.787 0 0 0 7.569 18.247 25.866 25.866 0 0 0 36.547-.001 25.792 25.792 0 0 0 7.568-18.246 25.787 25.787 0 0 0-7.568-18.245 25.862 25.862 0 0 0-18.272-7.56zm-90.66 12.603a13.236 13.236 0 0 1 9.347 3.868 13.197 13.197 0 0 1 3.871 9.334c0 3.501-1.393 6.858-3.871 9.334a13.232 13.232 0 0 1-18.696.001 13.19 13.19 0 0 1 4.29-21.532 13.25 13.25 0 0 1 5.059-1.005zm90.66 0a13.232 13.232 0 0 1 9.346 3.868 13.193 13.193 0 0 1 0 18.668 13.228 13.228 0 0 1-14.407 2.864 13.212 13.212 0 0 1-7.158-7.145 13.18 13.18 0 0 1 0-10.106 13.194 13.194 0 0 1 7.158-7.145 13.254 13.254 0 0 1 5.061-1.004zm-90.66 5.799a7.42 7.42 0 0 0-6.847 4.571 7.395 7.395 0 0 0 1.607 8.064 7.417 7.417 0 0 0 10.48 0 7.393 7.393 0 0 0 0-10.463 7.42 7.42 0 0 0-5.24-2.172zm90.66 0a7.428 7.428 0 0 0-5.244 2.167 7.403 7.403 0 0 0 0 10.468 7.42 7.42 0 0 0 12.089-2.4 7.393 7.393 0 0 0-1.605-8.063 7.42 7.42 0 0 0-5.24-2.172z" fill="#1E39CD"/></g><defs><clipPath id="a"><path fill="#fff" transform="translate(62 48.5)" d="M0 0h176v323H0z"/></clipPath></defs></svg>