<svg width="300" height="420" fill="none" xmlns="http://www.w3.org/2000/svg"><g clip-path="url(#a)"><path d="M68.998 165.719a42.515 42.515 0 0 0-30.052 12.444 42.482 42.482 0 0 0-9.212 46.3 42.483 42.483 0 0 0 23 22.993 42.498 42.498 0 0 0 41.393-4.994 42.485 42.485 0 0 0 15.398-21.49 42.476 42.476 0 0 0 15.378 21.476 42.506 42.506 0 0 0 25.101 8.243 42.515 42.515 0 0 0 25.121-8.224 42.487 42.487 0 0 0 15.398-21.478 42.473 42.473 0 0 0 15.38 21.471 42.507 42.507 0 0 0 25.099 8.239 42.497 42.497 0 0 0 39.264-26.227 42.477 42.477 0 0 0-9.213-46.298 42.506 42.506 0 0 0-30.051-12.442 42.508 42.508 0 0 0-25.095 8.236 42.485 42.485 0 0 0-15.38 21.465A42.49 42.49 0 0 0 150 165.719a42.513 42.513 0 0 0-25.098 8.241 42.476 42.476 0 0 0-15.377 21.473 42.492 42.492 0 0 0-40.527-29.714zm0 10.175a32.33 32.33 0 0 1 22.856 9.463 32.306 32.306 0 0 1 0 45.695 32.327 32.327 0 0 1-45.712 0 32.304 32.304 0 0 1 0-45.695 32.331 32.331 0 0 1 22.856-9.463zm81.006 0a32.329 32.329 0 0 1 22.856 9.463 32.304 32.304 0 0 1 0 45.695 32.33 32.33 0 0 1-45.712 0 32.303 32.303 0 0 1 0-45.695 32.332 32.332 0 0 1 22.856-9.463zm80.998.008a32.338 32.338 0 0 1 22.858 9.465 32.325 32.325 0 0 1 9.466 22.851 32.305 32.305 0 0 1-9.468 22.847 32.33 32.33 0 0 1-45.712 0 32.309 32.309 0 0 1 10.486-52.703 32.333 32.333 0 0 1 12.37-2.46zm-162.004 6.572a25.743 25.743 0 0 0-18.2 7.538 25.725 25.725 0 0 0 0 36.386 25.747 25.747 0 0 0 28.05 5.579 25.731 25.731 0 0 0 13.931-33.619 25.727 25.727 0 0 0-13.93-13.926 25.75 25.75 0 0 0-9.851-1.958zm81.006 0a25.749 25.749 0 0 0-18.201 7.536 25.717 25.717 0 0 0 0 36.389 25.75 25.75 0 0 0 36.403 0 25.735 25.735 0 0 0 5.58-28.041 25.737 25.737 0 0 0-23.782-15.884zm81.267 0a25.754 25.754 0 0 0-18.202 7.536 25.718 25.718 0 0 0-5.579 8.348 25.717 25.717 0 0 0 5.579 28.041 25.738 25.738 0 0 0 18.202 7.537 25.755 25.755 0 0 0 18.202-7.537 25.735 25.735 0 0 0 5.58-28.041 25.737 25.737 0 0 0-23.782-15.884zM68.998 195.041a13.163 13.163 0 1 1 0 26.328 13.17 13.17 0 0 1-13.17-13.164 13.162 13.162 0 0 1 13.17-13.164zm81.006 0c3.493 0 6.843 1.387 9.312 3.855a13.16 13.16 0 0 1 0 18.617 13.17 13.17 0 0 1-22.481-9.308 13.165 13.165 0 0 1 13.169-13.164zm81.267 0c3.493 0 6.842 1.387 9.312 3.855a13.16 13.16 0 0 1 0 18.617 13.17 13.17 0 0 1-22.481-9.308 13.16 13.16 0 0 1 3.857-9.309 13.174 13.174 0 0 1 9.312-3.855zm-162.273 5.782a7.38 7.38 0 1 0 2.825 14.199 7.392 7.392 0 0 0 3.997-3.993 7.374 7.374 0 0 0-1.6-8.041 7.384 7.384 0 0 0-5.218-2.161l-.004-.004zm81.006 0a7.376 7.376 0 0 0-5.218 2.161 7.367 7.367 0 0 0-2.162 5.216 7.38 7.38 0 1 0 12.599-5.212 7.388 7.388 0 0 0-5.219-2.165zm81.267 0a7.379 7.379 0 1 0 5.219 12.598 7.374 7.374 0 0 0 0-10.433 7.39 7.39 0 0 0-5.219-2.165z" fill="#B93C3C"/><path d="M68.998 284.52a42.515 42.515 0 0 0-30.052 12.444A42.482 42.482 0 0 0 26.5 327.006a42.475 42.475 0 0 0 12.447 30.039 42.51 42.51 0 0 0 30.05 12.442 42.492 42.492 0 0 0 40.527-29.714 42.473 42.473 0 0 0 15.38 21.474 42.502 42.502 0 0 0 25.1 8.24 42.508 42.508 0 0 0 25.121-8.224 42.488 42.488 0 0 0 15.398-21.477 42.483 42.483 0 0 0 15.379 21.474 42.51 42.51 0 0 0 25.1 8.24 42.497 42.497 0 0 0 39.264-26.228 42.46 42.46 0 0 0-9.213-46.297 42.498 42.498 0 0 0-30.051-12.442 42.513 42.513 0 0 0-25.094 8.234 42.482 42.482 0 0 0-15.381 21.463A42.502 42.502 0 0 0 150 284.52a42.513 42.513 0 0 0-25.098 8.241 42.476 42.476 0 0 0-15.377 21.473 42.492 42.492 0 0 0-40.527-29.714zm0 10.17a32.334 32.334 0 0 1 22.857 9.465 32.32 32.32 0 0 1 9.466 22.851 32.3 32.3 0 0 1-9.467 22.847 32.333 32.333 0 0 1-45.712 0 32.306 32.306 0 0 1-.002-45.698 32.337 32.337 0 0 1 22.858-9.465zm81.006 0a32.338 32.338 0 0 1 22.858 9.465 32.325 32.325 0 0 1 9.466 22.851 32.313 32.313 0 0 1-32.324 32.311 32.333 32.333 0 0 1-22.856-9.464 32.304 32.304 0 0 1-.001-45.698 32.329 32.329 0 0 1 22.857-9.465zm80.998.013a32.338 32.338 0 0 1 22.858 9.465 32.325 32.325 0 0 1 9.466 22.85c0 8.57-3.406 16.788-9.468 22.848a32.33 32.33 0 0 1-45.712 0 32.31 32.31 0 0 1 10.486-52.703 32.333 32.333 0 0 1 12.37-2.46zm-162.004 6.571a25.751 25.751 0 0 0-18.2 7.538 25.729 25.729 0 0 0 18.2 43.925 25.744 25.744 0 0 0 18.201-7.537 25.725 25.725 0 0 0-8.35-41.967 25.751 25.751 0 0 0-9.851-1.959zm81.006 0a25.75 25.75 0 0 0-18.201 7.537 25.717 25.717 0 0 0 0 36.389 25.742 25.742 0 0 0 36.403 0 25.725 25.725 0 0 0-8.351-41.967 25.751 25.751 0 0 0-9.851-1.959zm81.267 0a25.755 25.755 0 0 0-18.202 7.537 25.718 25.718 0 0 0-5.579 8.348 25.717 25.717 0 0 0 5.579 28.041 25.746 25.746 0 0 0 36.404 0 25.725 25.725 0 0 0-8.351-41.967 25.755 25.755 0 0 0-9.851-1.959zM68.998 313.842a13.163 13.163 0 1 1 0 26.328 13.17 13.17 0 0 1-13.17-13.164 13.162 13.162 0 0 1 13.17-13.164zm81.006 0a13.168 13.168 0 0 1 13.169 13.164 13.17 13.17 0 0 1-26.338 0 13.165 13.165 0 0 1 13.169-13.164zm81.267 0a13.17 13.17 0 0 1 9.312 3.855 13.16 13.16 0 0 1 0 18.617 13.17 13.17 0 0 1-22.481-9.308 13.16 13.16 0 0 1 3.857-9.309 13.17 13.17 0 0 1 9.312-3.855zm-162.273 5.782a7.383 7.383 0 0 0-6.82 4.557 7.375 7.375 0 0 0 6.82 10.202 7.382 7.382 0 0 0 6.822-4.553 7.378 7.378 0 0 0-6.818-10.202l-.004-.004zm81.006 0a7.385 7.385 0 0 0-6.819 4.557 7.38 7.38 0 1 0 14.199 2.825 7.388 7.388 0 0 0-7.38-7.382zm81.267 0a7.381 7.381 0 0 0-7.38 7.382 7.379 7.379 0 1 0 7.38-7.382z" fill="#006F00"/><path d="M68.998 50.5a42.506 42.506 0 0 0-30.05 12.443 42.473 42.473 0 0 0-.002 60.08 42.515 42.515 0 0 0 30.052 12.444 42.5 42.5 0 0 0 40.527-29.718 42.498 42.498 0 0 0 40.479 29.718 42.49 42.49 0 0 0 40.519-29.701 42.479 42.479 0 0 0 15.379 21.474 42.502 42.502 0 0 0 25.1 8.24 42.497 42.497 0 0 0 39.264-26.227 42.453 42.453 0 0 0 3.234-16.259 42.478 42.478 0 0 0-26.233-39.252 42.519 42.519 0 0 0-16.265-3.234 42.509 42.509 0 0 0-25.095 8.237 42.484 42.484 0 0 0-15.38 21.465A42.504 42.504 0 0 0 150 50.5a42.51 42.51 0 0 0-25.098 8.242 42.475 42.475 0 0 0-15.377 21.472 42.488 42.488 0 0 0-15.399-21.487A42.508 42.508 0 0 0 68.998 50.5zm0 10.17a32.33 32.33 0 0 1 22.856 9.464 32.305 32.305 0 0 1 .001 45.698 32.32 32.32 0 0 1-22.857 9.465 32.336 32.336 0 0 1-22.858-9.465 32.32 32.32 0 0 1-9.466-22.85c0-8.57 3.406-16.788 9.468-22.848a32.33 32.33 0 0 1 22.856-9.464zm81.006 0a32.328 32.328 0 0 1 22.856 9.464 32.305 32.305 0 0 1 .002 45.698 32.324 32.324 0 0 1-22.858 9.465 32.333 32.333 0 0 1-22.857-9.465 32.311 32.311 0 0 1-9.466-22.85c0-8.57 3.405-16.788 9.467-22.848a32.331 32.331 0 0 1 22.856-9.464zm80.998.013a32.328 32.328 0 0 1 22.856 9.464 32.305 32.305 0 0 1 0 45.695 32.332 32.332 0 0 1-45.712 0 32.309 32.309 0 0 1-9.467-22.848c0-8.57 3.406-16.787 9.467-22.847a32.331 32.331 0 0 1 22.856-9.464zM68.998 67.25a25.746 25.746 0 0 0-18.2 7.538 25.726 25.726 0 0 0 0 36.387 25.744 25.744 0 0 0 36.4.001 25.725 25.725 0 0 0 7.54-18.194 25.727 25.727 0 0 0-7.54-18.192 25.75 25.75 0 0 0-18.2-7.54zm81.006 0a25.744 25.744 0 0 0-18.201 7.537 25.724 25.724 0 0 0 0 36.389 25.742 25.742 0 0 0 36.403 0 25.723 25.723 0 0 0-.002-36.386 25.75 25.75 0 0 0-18.2-7.54zm81.267 0a25.748 25.748 0 0 0-18.202 7.537 25.727 25.727 0 0 0 0 36.389 25.746 25.746 0 0 0 36.404 0 25.726 25.726 0 0 0 7.539-18.194 25.727 25.727 0 0 0-7.541-18.192 25.75 25.75 0 0 0-18.2-7.54zM68.998 79.817c3.492 0 6.842 1.387 9.312 3.856a13.162 13.162 0 0 1-9.312 22.473 13.17 13.17 0 0 1-13.17-13.164 13.171 13.171 0 0 1 13.17-13.164zm81.006 0a13.17 13.17 0 0 1 13.169 13.165 13.17 13.17 0 0 1-26.338 0 13.164 13.164 0 0 1 13.169-13.165zm81.267 0c3.493 0 6.842 1.387 9.312 3.856a13.16 13.16 0 0 1 0 18.617 13.17 13.17 0 0 1-22.481-9.308 13.16 13.16 0 0 1 3.857-9.309 13.171 13.171 0 0 1 9.312-3.856zM68.998 85.605a7.382 7.382 0 0 0-7.38 7.378 7.376 7.376 0 0 0 7.38 7.377 7.375 7.375 0 0 0 5.221-2.16 7.379 7.379 0 0 0 2.163-5.217 7.376 7.376 0 0 0-7.384-7.378zm81.006 0a7.381 7.381 0 0 0-7.38 7.378 7.373 7.373 0 0 0 4.556 6.815 7.383 7.383 0 0 0 8.043-1.599 7.376 7.376 0 0 0-5.219-12.594zm81.267 0a7.38 7.38 0 0 0-7.38 7.378 7.38 7.38 0 0 0 14.76 0 7.376 7.376 0 0 0-7.38-7.378z" fill="#1E39CD"/></g><defs><clipPath id="a"><path fill="#fff" transform="translate(26.5 50.5)" d="M0 0h247v319H0z"/></clipPath></defs></svg>