<svg width="300" height="420" fill="none" xmlns="http://www.w3.org/2000/svg"><g clip-path="url(#a)"><path d="M101.676 198.453h12.487v7.795h-12.487v-7.795z" fill="#1E39CD"/><path d="M232.023 52.362a1.317 1.317 0 0 0-.559.18c-41.678 23.645-63.535 15.171-85.545 4.443-1.806-.88-9.443-4.311-14.702-3.859-11.97 1.025-17.375 6.869-18.207 15.24-.82 8.282 10.284 24.956 10.284 24.956l8.128-10.245c-.393.5-4.551-5.67-5.486-10.83-.448-2.464-.042-6.045 1.635-6.04 8.939.029 14.736 4.149 24.973 8.4 6.489 2.703 15.385 4.918 25.998 7.902 8.943 2.519 32.999-2.28 49.938-19.637 2.262-2.322 5.81-4.38 5.878-6.638.06-1.977-1.05-3.974-2.335-3.872zM125.689 95.568s-34.156.546-32.593 4.742c1.558 4.197 32.994 6.242 32.994 6.242l-.401-10.984zm54.812 105.326s-27.073 6.895-38.753 7.258c-11.68.367-37.673-4.397-37.673-4.397l5.119 15.432-3.172-.124s8.563 12.188 16.742 21.191a944.85 944.85 0 0 0 10.459 30.266c-6.019-.589-12.102-1.255-12.102-1.255l2.518 7.33s6.801 1.814 12.829 2.681a531.699 531.699 0 0 0 2.89 7.47c6.945 17.558 14.74 33.503 21.131 42.604 8.153 21.323 20.55 39.073 29.195 38.267 3.278-.308-14.147-18.886-19.855-59.466-1.276-9.05-1.917-19.099-2.173-29.165.82-.526 2.438-1.81 2.532-3.868.123-2.758-2.498-4.525-2.498-4.525l-.162.013c-.043-8 .124-15.817.397-22.988.769-.555 1.942-1.806 2.211-4.397.286-2.758-.977-4.453-1.75-5.221.568-10.6 1.085-16.828 1.396-20.231 1.947-.427 3.842-.853 5.563-1.25-1.405 8.909-4.91 35.188-2.233 62.441 3.278 33.447 16.119 65.242 25.955 75.474 5.024 5.23-7.185-22.71-10.024-60.576-3.231-43.09 5.631-82.18 5.631-82.18l-9.818.725-4.355-11.509zm-27.022 20.077a822.53 822.53 0 0 0-.555 9.05 18.21 18.21 0 0 1-1.187-.862c-1.848-1.486-3.778-4.389-5.378-7.21 2.13-.214 4.55-.555 7.116-.982l.004.004zm-23.82.824c1.451.102 2.894.205 4.333.277 3.684 5.563 8.268 12.124 10.561 13.909 1.392 1.084 4.44 2.804 7.829 4.601-.06 1.337-.107 2.733-.166 4.12-4.321-1.345-8.88-3.159-11.552-5.392-3.014-2.518-6.433-7.21-9.153-11.355a551.697 551.697 0 0 1-1.852-6.16zm9.775 30.877c4.056 1.972 8.453 3.889 12.333 5.515a590.354 590.354 0 0 0-.17 13.106c-2.028.064-3.962.107-5.559.119a711.7 711.7 0 0 1-6.604-18.74zm12.235 26.834c.043 2.357.103 4.662.188 6.924a411.284 411.284 0 0 1-2.732-6.877l2.544-.047z" fill="#B93C3C"/><path d="M44.801 191.879c-.533 0-1.041.042-1.523.128-10.289 1.925-15.031 13.344-16.124 18.42-1.093 5.076 1.084 6.181 1.421 6.429 1.042.768 4.888 1.174 4.901 1.174 0 0 21.823 1.43 33.464.854 11.637-.572 38.932-3.462 38.932-3.462l-2.894-13.132s-16.597 4.393-28.717 6.276c-4.96-4.197-20.448-16.658-29.46-16.687zm.419 8.443c5.99-.025 12.559 5.123 16.922 9.319-11.582.453-26.254.18-27.005.167.153-.824.362-1.644.683-2.433 1.494-3.693 4.994-7.036 9.4-7.053z" fill="#1E39CD"/><path d="M111.26 112.895c-4.069-.085-8.466.06-12.141.743-8.448 1.562-17.097 9.827-19.526 17.643-4.636 17.396-2.305 36.756 8.568 71.044a387.3 387.3 0 0 0 3.948 11.718c-14.983 11.142-43.927 33.353-46.586 40.559-2.613 7.086 32.298-14.446 51.705-26.822 22.476 57.763 58.095 119.879 58.095 119.879s2.523 2.259 2.737-1.182c.106-1.665-25.78-62.937-44.162-118.548-4.12-12.465-9.72-23.94-14.194-35.158a6.67 6.67 0 0 0 1.921-1.204c3.287-2.912 10.971-21.084 15.568-32.444a308.976 308.976 0 0 0 7.599 5.029l5.789-12.38s-13.119-6.83-19.142-11.654c-3.565-2.86-8.341-8.013-11.675-11.765a47.323 47.323 0 0 1 3.47-.683c3.155 3.159 7.868 7.684 11.338 10.121 5.682 3.988 18.446 8.291 18.446 8.291l-.141-8.052s-8.998-3.769-13.28-6.544c-1.622-1.054-3.637-2.915-5.516-4.824 5.661-.269 10.148-.264 10.135-.862l-.342-11.991s-5.84-.773-12.614-.914zm-21.136 22.16c2.395 2.523 5.763 6.032 9.187 9.434-1.942 3.714-4.354 7.941-6.147 9.802-.811.841-1.793 1.677-2.826 2.467-1.409-8.282-2.177-16.542-.214-21.703zm17.183 18.062c-1.751 8.696-5.208 23.837-8.7 26.745a3.782 3.782 0 0 1-3.108.934 84.969 84.969 0 0 1-2.122-8.379l-.183-.914c2.164-4.026 4.495-8.102 6.24-10.446 2.02-2.707 5.128-5.605 7.873-7.94z" fill="#006F00"/><path d="M151.131 74.932a27.992 27.992 0 0 0-4.491.384c-11.44 1.964-18.552 6.809-24.563 19.513-6.006 12.709 4.598 32.499 3.432 52.252-1.161 19.747-23.462 51.367-23.462 51.367l12.116 6.997s7.953-16.64 15.325-33.02c3.782-8.397 7.628-14.386 8.858-19.974 5.686 2.51 19.466 5.541 33.562-.423 6.096-2.578 12.499-8.051 17.759-13.255.085 7.108-.282 14.22-.483 20.628-1.195.426-2.266.811-3.773 1.323-.094-1.883-.585-3.27-2.139-4.111a5.371 5.371 0 0 0-2.634-.7c-1.528.021-3.138.802-4.662 2.749-1.033 1.323-1.622 3.125-2.194 5.605-.717.184-1.417.359-2.113.521-2.186-2.476-4.107-3.138-6.117-.875-.44.499-.739 1.204-.974 2.083-.081 0-.166 0-.247.009a2.915 2.915 0 0 0-1.503-2.143c-1.746-.995-3.91-.982-5.993 1.357a5.434 5.434 0 0 0-.436.581 115.695 115.695 0 0 1-3.458-.355 3.14 3.14 0 0 0-.947-.9c-1.366-.854-2.98-1.025-4.611.153-1.123-.17-2.19-.341-3.176-.508.115-2.113-.102-3.637-1.575-4.559-1.746-1.093-3.91-1.08-5.998 1.494-2.083 2.583-2.254 7.309-5.131 17.255-2.515 8.696-5.789 17.644-4.312 19.919 2.498 3.863 11.398-16.448 15.146-26.659l1.392.256c-.666 2.745-1.426 6.416-2.864 11.398-2.519 8.691-5.793 17.639-4.321 19.914 2.818 4.346 13.725-21.887 16.286-29.925l1.238.149c-.491 2.118-1.11 4.628-2.083 7.693-2.519 7.91-6.075 15.838-4.602 17.908 2.562 3.599 11.846-15.88 15.428-24.926l.555.013a51.426 51.426 0 0 1-1.814 7.991c-2.519 7.91-5.789 16.051-4.32 18.122 2.266 3.184 9.383-11.676 13.344-21.413l-.072.277c-2.673 10.293-6.263 20.922-4.346 23.509 3.236 4.363 13.08-19.475 17.246-31.688a215.71 215.71 0 0 0 5.712-1.473c.12 3.535.452 6.596 1.178 8.978-7.317 10.134-13.122 17.379-13.122 17.379-2.135 3.568-2.617 10.318.375 13.827 3.586 4.2 16.286 3.043 16.286 3.043s12.969-4.341 25.366-7.231c12.397-2.886 46.907-7.462 49.178-9.149 2.275-1.681 4.79-3.667 4.772-6.578-.051-7.868-6.702-16.55-14.185-18.868-3.829-1.183-9.076-.538-13.144 1.267-3.881 1.721-7.483 4.974-8.623 6.596-1.524 2.16-3.936 8.512-5.157 12.439-4.781.961-9.682 1.96-14.297 2.929-.76.162-1.408.324-2.147.487-2.075-3.01-5.703-8.483-8.452-13.772 4.721-5.182 9.605-10.548 12.994-15.052 9.046-12.03 16.324-37.806 13.776-50.151-2.553-12.346-6.911-14.258-15.244-15.693a8.04 8.04 0 0 0-1.618-.102c-5.042.158-13.016 6.322-18.561 11.184-2.989-9.272-6.984-17.605-14.148-23.491-8.93-7.33-22.335-12.653-33.212-12.555zm2.032 13.515c9.669-.47 23.355 8.376 29.554 18.13 2.655 4.184 4.337 9.161 5.383 14.531-4.884 4.833-13.626 12.747-23.876 18.519-9.336 5.255-20.849-.073-26.181-2.916-2.16-12.132-6.984-24.653-3.185-37.617 1.989-6.77 8.632-10.173 18.305-10.647zm-1.618 7.624a16.575 16.575 0 0 0-16.572 16.568 16.572 16.572 0 0 0 33.144 0 16.57 16.57 0 0 0-16.572-16.568zm0 9.78a6.791 6.791 0 0 1 6.788 6.788 6.789 6.789 0 1 1-6.788-6.788zm68.777 6.873c.747.039 1.263.594 1.468 1.866.683 4.222-.755 8.597-2.962 14.877-3.339 9.503-9.725 20.815-16.508 31.385-.384-11.868 1.741-24.401.235-34.429 5.323-2.134 14.189-13.869 17.767-13.699zm33.472 65.229c.547.009 1.102.052 1.665.128 2.25.291 8.29 5.733 6.971 7.415-1.315 1.682-12.123 3.168-19.312 4.005-2.101.243.999-6.267 2.185-7.599 0 0 2.446-2.63 4.099-3.274 1.237-.483 2.757-.717 4.397-.679l-.005.004zm-55.854 13.281c2.258 2.775 4.32 4.781 5.788 6.087-5.118 1.23-8.781 2.041-9.553 1.546-1.238-.794.563-3.702 3.765-7.633z" fill="#1E39CD"/></g><defs><clipPath id="a"><path fill="#fff" transform="translate(26.85 52.358)" d="M0 0h246.3v315.284H0z"/></clipPath></defs></svg>