<svg width="300" height="420" fill="none" xmlns="http://www.w3.org/2000/svg"><g clip-path="url(#a)"><path d="M150.019 48.148c-13.788 0-24.96 12.517-24.96 27.958.017 11.176 9.933 21.49 9.985 25.622.051 4.137-10.011 14.493-10.024 25.669.017 11.185 10.045 21.503 10.037 25.691-.009 4.184-10.024 14.459-10.037 25.635 0 15.441 11.211 27.988 24.999 27.988 13.785 0 24.957-12.517 24.957-27.954 0-11.176-10.084-21.49-10.092-25.669-.009-4.175 10.075-14.493 10.092-25.656 0-11.177-10.037-21.388-10.105-25.648-.064-4.257 10.092-14.515 10.105-25.678 0-15.441-11.172-27.958-24.957-27.958zm-.021 18.43c2.292 0 4.141 2.048 4.141 4.589v112.53c0 2.54-1.849 4.584-4.141 4.584-2.297 0-4.141-2.049-4.141-4.589V71.167c0-2.54 1.844-4.59 4.141-4.59zM70.531 213.288c-13.789 0-24.96 12.517-24.96 27.958.017 11.176 9.933 21.49 9.985 25.622.05 4.137-10.011 14.493-10.024 25.669.017 11.181 10.05 21.503 10.04 25.691-.008 4.183-10.027 14.459-10.04 25.635 0 15.441 11.215 27.987 25 27.987 13.784 0 24.96-12.516 24.955-27.953 0-11.176-10.083-21.49-10.091-25.669-.009-4.175 10.074-14.493 10.091-25.657 0-11.176-10.036-21.387-10.1-25.648-.068-4.256 10.088-14.514 10.1-25.677 0-15.441-11.171-27.958-24.956-27.958zm158.976 0c-13.788 0-24.96 12.517-24.96 27.958.017 11.176 9.934 21.49 9.985 25.622.051 4.137-10.007 14.493-10.024 25.669.017 11.181 10.05 21.503 10.041 25.691-.009 4.183-10.024 14.459-10.041 25.635 0 15.441 11.215 27.987 24.999 27.987 13.785 0 24.961-12.516 24.957-27.953 0-11.176-10.083-21.49-10.092-25.669-.009-4.175 10.079-14.493 10.092-25.657 0-11.176-10.037-21.387-10.101-25.648-.064-4.256 10.088-14.514 10.101-25.677 0-15.441-11.172-27.958-24.957-27.958zM70.51 231.718c2.292 0 4.14 2.049 4.14 4.589v112.53c0 2.54-1.848 4.585-4.14 4.585-2.297 0-4.141-2.049-4.141-4.589V236.307c0-2.54 1.844-4.589 4.14-4.589zm158.976 0c2.293 0 4.141 2.049 4.141 4.589v112.53c0 2.54-1.848 4.585-4.141 4.585-2.297 0-4.141-2.049-4.141-4.589V236.307c0-2.54 1.844-4.589 4.141-4.589z" fill="#006F00"/></g><defs><clipPath id="a"><path fill="#fff" transform="translate(45.532 48.147)" d="M0 0h208.936v323.705H0z"/></clipPath></defs></svg>