<svg width="300" height="420" fill="none" xmlns="http://www.w3.org/2000/svg"><g clip-path="url(#a)"><path d="M95.376 43.323c-13.78 0-24.957 12.517-24.957 27.958.018 11.176 9.934 21.49 9.986 25.622.05 4.141-10.011 14.494-10.024 25.67.017 11.185 10.05 21.503 10.036 25.691-.008 4.183-10.023 14.459-10.036 25.639 0 15.437 11.215 27.984 25 27.984 13.784 0 24.96-12.517 24.956-27.954 0-11.176-10.084-21.49-10.092-25.669-.009-4.175 10.075-14.493 10.092-25.657 0-11.176-10.037-21.388-10.101-25.648-.068-4.256 10.088-14.515 10.101-25.678 0-15.441-11.172-27.958-24.957-27.958h-.004zm109.286 0c-13.789 0-24.965 12.517-24.965 27.958.017 11.176 9.938 21.49 9.99 25.622.047 4.141-10.011 14.494-10.028 25.67.017 11.185 10.049 21.503 10.04 25.691-.008 4.183-10.023 14.459-10.04 25.639 0 15.437 11.214 27.984 24.999 27.984 13.789 0 24.961-12.517 24.961-27.954-.004-11.176-10.084-21.49-10.096-25.669-.009-4.175 10.079-14.493 10.096-25.657 0-11.176-10.041-21.388-10.105-25.648-.064-4.256 10.088-14.515 10.105-25.678 0-15.441-11.176-27.958-24.961-27.958h.004zM95.355 61.753c2.296 0 4.14 2.049 4.14 4.589v112.531c0 2.54-1.844 4.584-4.14 4.584-2.293 0-4.137-2.049-4.137-4.589V66.342c0-2.54 1.844-4.59 4.14-4.59h-.003zm109.282 0c2.292 0 4.141 2.049 4.141 4.589v112.531c0 2.54-1.849 4.584-4.141 4.584-2.293 0-4.141-2.049-4.141-4.589V66.342c0-2.54 1.848-4.59 4.141-4.59zM95.38 218.117c-13.789 0-24.96 12.513-24.96 27.954.017 11.18 9.933 21.49 9.985 25.627.05 4.132-10.011 14.489-10.024 25.669.017 11.176 10.05 21.499 10.036 25.687-.008 4.188-10.023 14.459-10.036 25.639 0 15.437 11.215 27.988 25 27.983 13.784 0 24.956-12.512 24.956-27.953 0-11.176-10.084-21.49-10.092-25.669-.009-4.175 10.075-14.494 10.092-25.657 0-11.176-10.037-21.388-10.101-25.644-.068-4.26 10.088-14.519 10.101-25.682 0-15.441-11.172-27.958-24.957-27.954zm109.278 0c-13.785 0-24.961 12.513-24.961 27.954.017 11.18 9.938 21.49 9.99 25.627.047 4.132-10.011 14.489-10.028 25.669.017 11.176 10.049 21.499 10.04 25.687-.008 4.188-10.023 14.459-10.04 25.639 0 15.437 11.214 27.988 24.999 27.983 13.789 0 24.961-12.512 24.961-27.953-.004-11.176-10.084-21.49-10.096-25.669-.009-4.175 10.079-14.494 10.096-25.657 0-11.176-10.041-21.388-10.105-25.644-.064-4.26 10.088-14.519 10.105-25.682 0-15.441-11.176-27.958-24.961-27.954zm-109.303 18.43c2.296 0 4.14 2.045 4.14 4.585v112.53c0 2.54-1.844 4.585-4.14 4.585-2.293 0-4.137-2.045-4.137-4.585v-112.53c0-2.54 1.844-4.585 4.14-4.585h-.003zm109.282 0c2.292 0 4.141 2.045 4.141 4.585v112.53c0 2.54-1.849 4.585-4.141 4.585-2.293 0-4.141-2.045-4.141-4.585v-112.53c0-2.54 1.848-4.585 4.141-4.585z" fill="#006F00"/></g><defs><clipPath id="a"><path fill="#fff" transform="translate(70.381 43.323)" d="M0 0h159.238v333.355H0z"/></clipPath></defs></svg>