<svg width="300" height="420" fill="none" xmlns="http://www.w3.org/2000/svg"><g clip-path="url(#a)"><path d="M150.017 130.717c-13.785 0-24.956 12.516-24.956 27.957.017 11.181 9.934 21.49 9.985 25.627.047 4.132-10.011 14.489-10.024 25.669.017 11.176 10.045 21.499 10.037 25.687-.009 4.183-10.024 14.459-10.037 25.639 0 15.437 11.21 27.987 24.999 27.983 13.785 0 24.957-12.512 24.957-27.953 0-11.176-10.084-21.49-10.092-25.669-.009-4.176 10.075-14.494 10.092-25.657 0-11.176-10.037-21.388-10.105-25.644-.064-4.26 10.092-14.518 10.105-25.682 0-15.441-11.172-27.957-24.957-27.957h-.004zM150 149.15c2.292 0 4.141 2.045 4.141 4.585v112.53c0 2.54-1.849 4.585-4.141 4.585-2.297 0-4.141-2.045-4.141-4.585v-112.53c0-2.54 1.844-4.585 4.141-4.585z" fill="#B93C3C"/><path d="M71.255 45.717c-13.79 0-24.961 12.517-24.961 27.953.017 11.185 9.938 21.495 9.99 25.627.046 4.136-10.012 14.493-10.029 25.669.017 11.181 10.05 21.499 10.041 25.687-.008 4.187-10.024 14.463-10.04 25.639 0 15.441 11.214 27.988 24.999 27.988 13.788 0 24.96-12.517 24.96-27.954-.004-11.176-10.087-21.49-10.096-25.669-.008-4.179 10.08-14.497 10.096-25.657 0-11.176-10.04-21.387-10.105-25.648-.064-4.26 10.088-14.514 10.105-25.682 0-15.436-11.176-27.953-24.96-27.953zm154.408 0c-13.784 0-24.956 12.517-24.956 27.953.017 11.185 9.934 21.495 9.985 25.627.047 4.136-10.011 14.493-10.028 25.669.017 11.181 10.054 21.499 10.045 25.687-.008 4.187-10.028 14.463-10.045 25.639 0 15.441 11.215 27.988 24.999 27.988 13.789 0 24.965-12.517 24.965-27.954-.004-11.176-10.087-21.49-10.1-25.669-.009-4.179 10.083-14.497 10.1-25.657-.004-11.176-10.04-21.387-10.104-25.648-.064-4.26 10.087-14.514 10.104-25.682 0-15.436-11.176-27.953-24.965-27.953zm-154.43 18.43c2.297 0 4.141 2.048 4.141 4.588v112.53c0 2.54-1.844 4.585-4.14 4.585-2.293 0-4.142-2.049-4.142-4.589V68.731c0-2.54 1.849-4.585 4.141-4.585zm154.409 0c2.297 0 4.141 2.048 4.141 4.588v112.53c0 2.54-1.844 4.585-4.141 4.585-2.288 0-4.137-2.049-4.137-4.589V68.731c0-2.54 1.849-4.585 4.141-4.585h-.004zM74.375 215.72c-13.789 0-24.96 12.517-24.96 27.954.017 11.18 9.933 21.49 9.985 25.626.05 4.137-10.011 14.493-10.024 25.67.017 11.18 10.05 21.498 10.04 25.686-.008 4.188-10.027 14.463-10.04 25.639 0 15.441 11.215 27.988 25 27.988 13.784 0 24.96-12.517 24.956-27.958 0-11.172-10.084-21.49-10.092-25.665-.009-4.179 10.075-14.497 10.092-25.656 0-11.176-10.037-21.388-10.1-25.648-.07-4.261 10.087-14.519 10.1-25.682 0-15.437-11.172-27.954-24.957-27.954zm154.409 0c-13.785 0-24.961 12.517-24.961 27.954.017 11.18 9.938 21.49 9.99 25.626.047 4.137-10.011 14.493-10.028 25.67.017 11.18 10.049 21.498 10.041 25.686-.009 4.188-10.024 14.463-10.041 25.639 0 15.441 11.214 27.988 24.999 27.988 13.789 0 24.961-12.517 24.961-27.958-.005-11.172-10.084-21.49-10.096-25.665-.009-4.179 10.079-14.497 10.096-25.656 0-11.176-10.041-21.388-10.105-25.648-.064-4.261 10.088-14.519 10.105-25.682 0-15.437-11.176-27.954-24.961-27.954zm-154.43 18.43c2.292 0 4.14 2.049 4.14 4.589v112.526c0 2.54-1.848 4.589-4.14 4.589-2.293 0-4.141-2.049-4.141-4.589V238.734c0-2.54 1.848-4.584 4.14-4.584zm154.409 0c2.296 0 4.141 2.049 4.141 4.589v112.526c0 2.54-1.845 4.589-4.141 4.589-2.293 0-4.137-2.049-4.137-4.589V238.734c0-2.54 1.844-4.584 4.141-4.584h-.004z" fill="#006F00"/></g><defs><clipPath id="a"><path fill="#fff" transform="translate(46.255 45.716)" d="M0 0h207.489v328.568H0z"/></clipPath></defs></svg>