<svg width="300" height="420" fill="none" xmlns="http://www.w3.org/2000/svg"><g clip-path="url(#a)"><path d="M72.228 47.985c-13.788 0-24.96 12.517-24.96 27.957.017 11.176 9.934 21.49 9.989 25.622.043 4.137-10.01 14.494-10.028 25.67.017 11.184 10.05 21.502 10.04 25.69-.008 4.184-10.023 14.459-10.04 25.635 0 15.441 11.215 27.987 25 27.987 13.784 0 24.96-12.516 24.96-27.953-.004-11.176-10.088-21.489-10.096-25.669-.009-4.175 10.079-14.493 10.096-25.656-.004-11.176-10.04-21.388-10.105-25.648-.064-4.256 10.088-14.514 10.105-25.678 0-15.44-11.176-27.957-24.96-27.957zm77.793 0c-13.784 0-24.96 12.517-24.96 27.957.017 11.176 9.938 21.49 9.989 25.622.047 4.137-10.011 14.494-10.028 25.67.017 11.184 10.049 21.502 10.041 25.69-.009 4.184-10.024 14.459-10.041 25.635 0 15.441 11.215 27.987 24.999 27.987 13.789 0 24.961-12.516 24.961-27.953-.004-11.176-10.083-21.489-10.096-25.669-.009-4.175 10.079-14.493 10.096-25.656 0-11.176-10.041-21.388-10.105-25.648-.064-4.256 10.088-14.514 10.105-25.678 0-15.44-11.176-27.957-24.961-27.957zm77.798 0c-13.789 0-24.961 12.517-24.961 27.957.017 11.176 9.934 21.49 9.985 25.622.051 4.137-10.006 14.494-10.023 25.67.017 11.184 10.049 21.502 10.04 25.69-.008 4.184-10.023 14.459-10.04 25.635 0 15.441 11.214 27.987 24.999 27.987 13.784 0 24.96-12.516 24.956-27.953 0-11.176-10.083-21.489-10.092-25.669-.008-4.175 10.079-14.493 10.092-25.656 0-11.176-10.036-21.388-10.101-25.648-.068-4.256 10.088-14.514 10.101-25.678 0-15.44-11.172-27.957-24.956-27.957zM72.207 66.414c2.292 0 4.14 2.05 4.14 4.59v112.529c0 2.54-1.848 4.584-4.14 4.584s-4.14-2.049-4.14-4.589V71.003c0-2.54 1.848-4.59 4.14-4.59zm77.793 0c2.297 0 4.141 2.05 4.141 4.59v112.529c0 2.54-1.844 4.584-4.141 4.584-2.292 0-4.137-2.049-4.137-4.589V71.003c0-2.54 1.845-4.59 4.141-4.59H150zm77.797 0c2.293 0 4.141 2.05 4.141 4.59v112.529c0 2.54-1.848 4.584-4.141 4.584-2.296 0-4.141-2.049-4.141-4.589V71.003c0-2.54 1.845-4.59 4.141-4.59zM72.228 213.458c-13.788 0-24.96 12.516-24.96 27.953.017 11.18 9.934 21.49 9.989 25.626.043 4.133-10.01 14.489-10.032 25.67.021 11.18 10.053 21.498 10.045 25.686-.009 4.188-10.024 14.459-10.04 25.639 0 15.441 11.214 27.987 24.998 27.987 13.785 0 24.96-12.516 24.96-27.957-.004-11.172-10.087-21.49-10.095-25.665-.009-4.179 10.079-14.497 10.096-25.656-.004-11.176-10.04-21.388-10.105-25.648-.064-4.261 10.088-14.519 10.105-25.682 0-15.437-11.176-27.953-24.96-27.953zm77.793 0c-13.784 0-24.96 12.516-24.96 27.953.017 11.18 9.938 21.49 9.989 25.626.047 4.133-10.011 14.489-10.028 25.67.017 11.18 10.049 21.498 10.041 25.686-.009 4.188-10.024 14.459-10.041 25.639 0 15.441 11.215 27.987 24.999 27.987 13.789 0 24.961-12.516 24.961-27.957-.004-11.172-10.083-21.49-10.096-25.665-.009-4.179 10.079-14.497 10.096-25.656 0-11.176-10.041-21.388-10.105-25.648-.064-4.261 10.088-14.519 10.105-25.682 0-15.437-11.176-27.953-24.961-27.953zm77.798 0c-13.789 0-24.961 12.516-24.961 27.953.017 11.18 9.934 21.49 9.985 25.626.051 4.133-10.006 14.489-10.023 25.67.017 11.18 10.049 21.498 10.04 25.686-.008 4.188-10.023 14.459-10.04 25.639 0 15.441 11.214 27.987 24.999 27.987 13.784 0 24.96-12.516 24.956-27.957 0-11.172-10.083-21.49-10.092-25.665-.008-4.179 10.079-14.497 10.092-25.656 0-11.176-10.036-21.388-10.101-25.648-.068-4.261 10.088-14.519 10.101-25.682 0-15.437-11.172-27.953-24.956-27.953zM72.207 231.887c2.292 0 4.14 2.049 4.14 4.589v112.525c0 2.54-1.848 4.589-4.14 4.589s-4.14-2.049-4.14-4.589V236.472c0-2.54 1.848-4.585 4.14-4.585zm77.793 0c2.297 0 4.141 2.049 4.141 4.589v112.525c0 2.54-1.844 4.589-4.141 4.589-2.292 0-4.137-2.049-4.137-4.589V236.472c0-2.54 1.845-4.585 4.141-4.585H150zm77.797 0c2.293 0 4.141 2.049 4.141 4.589v112.525c0 2.54-1.848 4.589-4.141 4.589-2.296 0-4.141-2.049-4.141-4.589V236.472c0-2.54 1.845-4.585 4.141-4.585z" fill="#006F00"/></g><defs><clipPath id="a"><path fill="#fff" transform="translate(47.225 47.982)" d="M0 0h205.55v324.036H0z"/></clipPath></defs></svg>