<svg width="300" height="420" fill="none" xmlns="http://www.w3.org/2000/svg"><g clip-path="url(#a)"><path d="M73.212 157.274c-13.563 0-24.56 8.324-24.56 18.591.218 10.528 6.382 11.095 6.292 17.422-.09 6.143-6.317 9.255-6.33 16.692.115 11.125 6.275 10.245 6.36 16.743.086 6.681-6.147 5.66-6.36 17.387 0 10.271 11.035 18.613 24.598 18.613 13.567 0 24.563-8.325 24.563-18.592-.004-7.428-6.471-11.248-6.506-17.396-.034-6.147 6.289-7.018 6.506-16.734-.303-10.527-6.565-10.267-6.497-17.008.056-5.976 6.48-9.703 6.497-17.127 0-10.271-10.996-18.591-24.563-18.591zm-.022 12.252c2.263 0 4.077 1.366 4.077 3.056v74.836c0 1.686-1.818 3.048-4.077 3.048-2.254 0-4.068-1.362-4.068-3.053v-74.835c0-1.686 1.814-3.052 4.068-3.052z" fill="#006F00"/><path d="M150.019 157.274c-13.562 0-24.559 8.324-24.559 18.591.213 10.528 6.382 11.095 6.288 17.422-.085 6.143-6.314 9.255-6.327 16.692.116 11.125 6.276 10.245 6.361 16.743.086 6.681-6.147 5.66-6.361 17.387 0 10.271 11.036 18.613 24.598 18.613 13.567 0 24.564-8.325 24.56-18.592 0-7.428-6.468-11.248-6.502-17.396-.034-6.147 6.288-7.018 6.502-16.734-.299-10.527-6.562-10.267-6.498-17.008.06-5.976 6.485-9.703 6.498-17.127 0-10.271-10.993-18.591-24.56-18.591zm-.021 12.252c2.258 0 4.077 1.366 4.077 3.056v74.836c0 1.686-1.819 3.048-4.077 3.048-2.254 0-4.073-1.362-4.073-3.053v-74.835c0-1.686 1.819-3.052 4.073-3.052z" fill="#1E39CD"/><path d="M226.827 157.274c-13.567 0-24.564 8.324-24.56 18.591.214 10.528 6.382 11.095 6.289 17.422-.09 6.143-6.314 9.255-6.332 16.692.12 11.125 6.276 10.245 6.361 16.743.086 6.681-6.147 5.66-6.361 17.387 0 10.271 11.036 18.613 24.603 18.613 13.562 0 24.559-8.325 24.559-18.592 0-7.428-6.467-11.248-6.501-17.396-.035-6.147 6.288-7.018 6.501-16.734-.299-10.527-6.566-10.267-6.497-17.008.06-5.976 6.485-9.703 6.497-17.127 0-10.271-10.997-18.591-24.559-18.591zm-.022 12.252c2.254 0 4.073 1.366 4.073 3.056v74.836c0 1.686-1.819 3.048-4.073 3.048-2.258 0-4.072-1.362-4.072-3.053v-74.835c0-1.686 1.814-3.052 4.072-3.052zM73.212 268.707c-13.563 0-24.56 8.325-24.56 18.591.218 10.528 6.382 11.1 6.292 17.426-.09 6.139-6.317 9.256-6.33 16.688.115 11.129 6.275 10.245 6.36 16.743.086 6.681-6.147 5.665-6.36 17.392 0 10.267 11.035 18.612 24.598 18.612 13.567 0 24.563-8.324 24.563-18.591-.004-7.432-6.471-11.253-6.506-17.4-.034-6.148 6.289-7.014 6.506-16.735-.303-10.527-6.565-10.262-6.497-17.007.056-5.977 6.48-9.704 6.497-17.128 0-10.266-10.996-18.591-24.563-18.591zm-.022 12.256c2.263 0 4.077 1.362 4.077 3.053v74.835c0 1.69-1.818 3.052-4.077 3.052-2.254 0-4.068-1.366-4.068-3.052v-74.835c0-1.691 1.814-3.053 4.068-3.053z" fill="#006F00"/><path d="M150.019 268.707c-13.562 0-24.559 8.325-24.559 18.591.213 10.528 6.382 11.1 6.288 17.426-.085 6.139-6.314 9.256-6.327 16.688.116 11.129 6.276 10.245 6.361 16.743.086 6.681-6.147 5.665-6.361 17.392 0 10.267 11.036 18.612 24.598 18.612 13.567 0 24.564-8.324 24.56-18.591 0-7.432-6.468-11.253-6.502-17.4-.034-6.148 6.288-7.014 6.502-16.735-.299-10.527-6.562-10.262-6.498-17.007.06-5.977 6.485-9.704 6.498-17.128 0-10.266-10.993-18.591-24.56-18.591zm-.021 12.256c2.258 0 4.077 1.362 4.077 3.053v74.835c0 1.69-1.819 3.052-4.077 3.052-2.254 0-4.073-1.366-4.073-3.052v-74.835c0-1.691 1.819-3.053 4.073-3.053z" fill="#1E39CD"/><path d="M226.827 268.707c-13.567 0-24.564 8.325-24.56 18.591.214 10.528 6.382 11.1 6.289 17.426-.09 6.139-6.314 9.256-6.332 16.688.12 11.129 6.276 10.245 6.361 16.743.086 6.681-6.147 5.665-6.361 17.392 0 10.267 11.036 18.612 24.603 18.612 13.562 0 24.559-8.324 24.559-18.591 0-7.432-6.467-11.253-6.501-17.4-.035-6.148 6.288-7.014 6.501-16.735-.299-10.527-6.566-10.262-6.497-17.007.06-5.977 6.485-9.704 6.497-17.128 0-10.266-10.997-18.591-24.559-18.591zm-.022 12.256c2.254 0 4.073 1.362 4.073 3.053v74.835c0 1.69-1.819 3.052-4.073 3.052-2.258 0-4.072-1.366-4.072-3.052v-74.835c0-1.691 1.814-3.053 4.072-3.053z" fill="#006F00"/><path d="M150.019 45.84c-13.562 0-24.559 8.325-24.559 18.592.213 10.527 6.382 11.095 6.288 17.426-.085 6.139-6.314 9.25-6.327 16.687.116 11.13 6.276 10.246 6.361 16.743.086 6.681-6.147 5.665-6.361 17.392 0 10.267 11.036 18.613 24.598 18.613 13.567 0 24.564-8.325 24.56-18.592 0-7.432-6.468-11.253-6.502-17.4-.034-6.147 6.288-7.014 6.502-16.734-.299-10.528-6.562-10.267-6.498-17.008.06-5.977 6.485-9.703 6.498-17.127 0-10.267-10.993-18.592-24.56-18.592zm-.021 12.257c2.258 0 4.077 1.362 4.077 3.052v74.835c0 1.691-1.819 3.048-4.077 3.048-2.254 0-4.073-1.357-4.073-3.048V61.149c0-1.69 1.819-3.052 4.073-3.052z" fill="#B93C3C"/></g><defs><clipPath id="a"><path fill="#fff" transform="translate(48.614 45.84)" d="M0 0h202.772v328.319H0z"/></clipPath></defs></svg>