<svg width="300" height="420" fill="none" xmlns="http://www.w3.org/2000/svg"><g clip-path="url(#a)"><path d="M71.554 46.083c-13.789 0-25 12.547-25 27.983.018 11.18 10.033 21.451 10.041 25.64.009 4.187-10.023 14.509-10.04 25.686.017 11.18 10.075 21.536 10.023 25.669-.047 4.141-9.967 14.45-9.985 25.626 0 15.441 11.176 27.957 24.96 27.957 13.79 0 24.961-12.516 24.961-27.957-.004-2.941-.734-5.81-1.771-8.538 1.814-2.198 3.863-5.362 5.464-6.8 3.116-2.788 17.533-2.122 25.87-9.537 8.341-7.441 9.285-21.725 12.423-24.606 1.553-1.43 5.886-1.972 10.868-3.052 5.691 1.366 10.882 1.882 12.615 3.474 3.133 2.882 4.081 17.17 12.423 24.607 8.337 7.415 22.753 6.753 25.869 9.536 1.473 1.324 3.322 4.111 5.025 6.267-1.037 2.758-1.772 5.665-1.776 8.649 0 15.441 11.176 27.957 24.96 27.957 13.789 0 24.961-12.516 24.961-27.957-.017-11.159-10.169-21.421-10.105-25.678.064-4.26 10.101-14.471 10.105-25.647-.013-11.164-10.105-21.482-10.096-25.657.008-4.179 10.092-14.493 10.096-25.669 0-15.436-11.176-27.953-24.961-27.953-13.784 0-24.999 12.547-24.999 27.983.018 11.18 10.033 21.451 10.041 25.64 0 2.689-4.111 7.927-7.078 14.279-8.465-6.425-21.742-5.998-24.657-8.666-3.052-2.783-4.15-17.05-12.483-24.504-.401-.354-.819-.666-1.229-.999-4.546-4.738-10.779-7.116-17.289-7.12-6.779 0-13.857 2.561-19.616 7.697-8.333 7.453-9.43 21.716-12.482 24.503-2.976 2.72-16.726 2.224-25.157 9.063-2.984-6.343-7.12-11.569-7.117-14.258.009-4.175 10.092-14.489 10.096-25.665 0-15.436-11.176-27.953-24.96-27.953zm-.021 18.43c2.292 0 4.14 2.048 4.14 4.588v112.525c0 2.54-1.848 4.589-4.14 4.589-2.293 0-4.141-2.049-4.141-4.589V69.093c0-2.54 1.848-4.585 4.14-4.585v.004zm156.93 0c2.292 0 4.141 2.048 4.141 4.588v112.525c0 2.54-1.849 4.589-4.141 4.589s-4.141-2.049-4.141-4.589V69.093c0-2.54 1.849-4.585 4.141-4.585v.004zm-79.014 28.174c.982-.013 1.955.41 2.771 1.042.171.132.38.273.533.422 20.009 18.814 40.026 37.614 60.039 56.423a3.94 3.94 0 0 1 1.251 2.779 3.931 3.931 0 0 1-1.11 2.839 4.056 4.056 0 0 1-5.695.145l-55.778-52.414s-.816-.854-1.981-.875a3.41 3.41 0 0 0-2.203.866l-55.808 52.423a4.044 4.044 0 0 1-5.694-.141 3.922 3.922 0 0 1-1.115-2.84 3.933 3.933 0 0 1 1.251-2.782l60.508-56.84a4.436 4.436 0 0 1 3.031-1.047zM71.554 215.355c-13.785 0-24.96 12.517-24.956 27.957.017 11.177 9.934 21.49 9.98 25.623.052 4.136-10.006 14.493-10.023 25.669.017 11.18 10.049 21.502 10.04 25.69-.008 4.184-10.023 14.459-10.04 25.635 0 15.441 11.215 27.988 24.999 27.988 13.789 0 24.96-12.517 24.96-27.954-.004-11.176-10.083-21.489-10.096-25.669 0-2.681 4.137-7.91 7.117-14.258 8.431 6.839 22.181 6.348 25.157 9.063 3.052 2.788 4.149 17.054 12.482 24.504 5.763 5.135 12.837 7.701 19.62 7.697 6.506 0 12.739-2.382 17.285-7.117.41-.333.828-.649 1.229-1.003 8.333-7.449 9.435-21.716 12.483-24.504 2.92-2.663 16.192-2.237 24.657-8.661 2.967 6.352 7.087 11.586 7.078 14.279-.008 4.184-10.023 14.459-10.041 25.635 0 15.441 11.215 27.988 24.999 27.988 13.789 0 24.961-12.517 24.961-27.954-.004-11.176-10.083-21.489-10.096-25.669-.009-4.179 10.079-14.493 10.096-25.656 0-11.176-10.041-21.387-10.105-25.648-.064-4.26 10.088-14.514 10.105-25.678 0-15.44-11.176-27.957-24.961-27.957-13.784 0-24.96 12.517-24.956 27.957 0 2.98.735 5.892 1.772 8.649-1.699 2.156-3.552 4.944-5.029 6.263-3.112 2.788-17.524 2.122-25.87 9.541-8.337 7.437-9.285 21.725-12.422 24.606-1.729 1.592-6.916 2.109-12.607 3.475-4.986-1.08-9.319-1.622-10.872-3.052-3.138-2.882-4.077-17.17-12.419-24.606-8.341-7.416-22.753-6.754-25.87-9.537-1.605-1.443-3.65-4.602-5.468-6.805 1.041-2.723 1.767-5.592 1.771-8.538 0-15.436-11.176-27.953-24.96-27.953zm-.021 18.429c2.292 0 4.14 2.049 4.14 4.589v112.53c0 2.54-1.848 4.584-4.14 4.584-2.293 0-4.141-2.049-4.141-4.589V238.373c0-2.54 1.848-4.589 4.14-4.589zm156.93 0c2.292 0 4.141 2.049 4.141 4.589v112.53c0 2.54-1.849 4.584-4.141 4.584s-4.141-2.049-4.141-4.589V238.373c0-2.54 1.849-4.589 4.141-4.589zM88.591 262.565a4.044 4.044 0 0 1 2.878 1.098l55.807 52.422c.608.542 1.389.85 2.203.867 1.165-.022 1.985-.88 1.985-.88l55.774-52.409a4.057 4.057 0 0 1 5.695.14 3.95 3.95 0 0 1 1.113 2.841 3.913 3.913 0 0 1-.347 1.517 3.925 3.925 0 0 1-.907 1.265c-20.013 18.804-40.03 37.609-60.039 56.422-.153.145-.367.29-.533.419-.811.631-1.793 1.054-2.771 1.045a4.436 4.436 0 0 1-3.031-1.045L85.91 269.421a3.926 3.926 0 0 1-.979-4.311 4.041 4.041 0 0 1 3.66-2.545z" fill="#006F00"/></g><defs><clipPath id="a"><path fill="#fff" transform="translate(46.555 46.082)" d="M0 0h206.89v327.837H0z"/></clipPath></defs></svg>