<svg width="300" height="420" fill="none" xmlns="http://www.w3.org/2000/svg"><g clip-path="url(#a)"><path d="M81.21 58.294c-6.35-.02-8.301.353-8.074 1.412.227 1.059 11.072-.726 26.534 5.961-4.978 10.028-15.89 34.127-12.13 46.861 4.005 13.55 22.367 13.742 30.323 24.284-4.252 14.746-8.336 29.017-7.552 39.873.388 5.349 11.358 17.797 6.992 14.275-7.643-6.173-18.707-11.279-29.995-12.13-3.794-.063 15.893 10.542 22.176 16.714 6.283 6.177 14.094 21.319 14.094 21.319l13.2-7.608s-4.578-7.193-5.064-13.809c-.49-6.62 1.658-10.879 4.966-17.875 5.636.114 23.348 4.792 30.355.149 5.938-3.93 10.085-19.295 12.542-25.299 8.846 4.157 18.852 5.349 20.761 4.568 1.195-.486-7.878-4.196-12.981-7.2-8.544-5.032-14.168-16.824-28.525-12.087-14.356 4.738-24.931 14.499-33.197 36.402a62.632 62.632 0 0 1-.137-2.804c-.423-18.652 22.928-57.336 16.755-75.757-6.173-18.42-16.716-26.982-27.984-32.833-7.039-3.655-22.473-4.38-33.06-4.416zm25.162 10.032c9.073 4.369 13.882 9.62 17.899 19.99 3.567 9.188 6.22 16.871 4.582 27.067-3.566-3.043-6.988-6.176-9.191-10.196-4.409-8.052-5.561-13.617-7.921-20.574-.909-2.674-2.947 12.742-.188 21.17 1.454 4.439 4.876 10.463 7.631 15.428-8.105-3.396-15.948-8.047-18.311-15.479-3.077-9.671 2.395-30.566 5.499-37.406zm57.614 80.047c4.115-.102 7.286 1.4 11.358 3.04-2.649 5.474-7.764 12.506-13.012 14.91-3.676 1.687-8.434 2.604-13.937 1.84 4.437-1.298 9.743-3.075 12.13-4.73 4.476-3.106 10.367-11.122 7.859-9.506-3.018 1.941-5.029 3.015-9.642 4.784-3.026 1.169-8.724 2.216-12.844 2.581 4.116-6.365 7.435-9.934 12.072-11.75a17.567 17.567 0 0 1 6.016-1.169zm55.627 14.338c-3.472-.109-14.474.793-17.809 1.808-26.703 8.138-31.77 47.485-31.77 47.485l5.318 14.856s2.603-6.279 6.765-14.432c6.392-.44 30.806 1.357 38.939-5.279 6.956-5.679 10.648-22.903 12.518-30.99 10.508 2.839 19.024 8.506 25.186 10.714 9.19 3.295-14.816-23.385-39.147-24.162zm2.097 11.715c2.305.035 4.621.313 6.918.76-3.645 6.981-9.113 18.605-14.886 21.868-6.243 3.538-18.048 3.126-24.508 2.581a146.91 146.91 0 0 1 2.211-3.534c3.982-2.31 10.563-6.055 14.427-7.851 5.785-2.687 9.038-2.973 13.565-3.487 4.029-.455-6.389-3.345-11.946-2.258-1.964.384-4.754 1.282-7.541 2.282 3.288-3.651 6.698-6.553 10.092-8.087 3.755-1.694 7.694-2.337 11.668-2.274zm-147.586 8.926c-8.023-.2-20.969 6.619-31.089 7.972-8.218 1.099-14.854-1.321-11.68.961 3.54 2.549 5.962 2.522 13.985 2.495 3.99-.016 6.365-.169 10.829-.648-.839 8.134-7.164 19.202 4.217 37.403 6.467 6.784 23.218 4.984 30.704 3.451 1.674 6.298 4.61 8.753 4.61 8.753l8.798-9.451c1.858-1.993-3.045-15.099-5.922-23.562-4.315-12.68-12.193-24.759-24.452-27.374zm-5.676 9.678c3.116.008 5.632 1.385 7.44 2.444 4.036 2.365 7.893 8.161 11.154 17.185-2.442-2.581-4.86-5.236-6.844-6.62-4.773-3.345-9.241-5.255-14.29-5.039-1.634.07 9.337 7.592 13.201 12.471 2.587 3.271 5.997 9.549 7.984 13.373-4.559.89-10.567.596-16.328-4.196-9-7.475-8.948-22.954-8.505-29.296 2.058-.2 4.12-.307 6.188-.322zm121.578 95.088 6.914 6.392s1.771-2.215 1.905-2.463c3.892 3.507 15.168 16.899 27.995 14.629 11.594-2.051 21.886-16.448 25.515-24.97 3.802 4.961 4.382 8.694 6.949 13.44 3.23 5.965 8.956 9.647 10.061 9.169.98-.428-3.68-5.812-5.863-12.244-4.515-13.295-12.158-33.794-32.052-33.261-19.895.53-41.424 29.308-41.424 29.308zm40.557-19.131c7 0 13.409 2.746 18.069 8.087-5.515 6.667-16.089 19.899-25.417 18.809-6.161-.718-11.515-3.636-15.501-6.557 4.942.196 13.09.447 16.72-.902 5.945-2.204 9.821-5.918 12.189-10.805 1.148-2.376-11.743 4.62-17.551 4.957-3.853.224-7.462-.063-10.904-1.49 5.958-6.393 11.417-12.106 22.395-12.099zm-169.558-1.325c-11.456-.039-22.524 8.671-26.89 20.177-6.69 17.625-2.677 40.897.462 42.222 3.316 1.396.847-10.777 4.37-22.985 4.844 1.941 21.349 11 28.721 8.914 8.4-2.377 21.827-11.405 26.804-16.73 16.669 11.369 28.416 21.883 28.858 21.82.761-.11 7.949-10.918 4.66-10.863 0 0-38.354-42.453-66.985-42.555zm2.661 13.671c3.496-.031 5.432.443 9.317 1.875-2.391 2.702-6.385 6.373-9.473 8.267-4.994 3.059-19.334 5.945-13.683 6.71 6.181.839 12.178.059 18.24-2.247 4.531-1.726 10.681-6.856 13.51-9.35a85.911 85.911 0 0 1 4.046 2.212c-4.586 6.04-16.36 15.421-22.854 17.04-6.996 1.741-18.04-.098-22.928-1.686 3.159-9.405 8.564-18.542 18.123-21.88 1.79-.627 3.703-.921 5.702-.941z" fill="#006F00"/><path d="M196.846 294.703c-1.094 1.815-5.256 12.224-4.245 21.491 1.015 9.271 11.018 20.197 11.018 20.197s5.016 7.059 11.287 8.075c6.283 1.012 4.417 16.471.878 17.503-1.787.521-24.343-5.765-47.878-16.762-23.058-10.773-45.516-23.727-46.786-25.958-2.402-4.22 2.677-10.675 5.66-9.942 1.92.475 17.794 11.193 29.669 17.664a3675.747 3675.747 0 0 0 26.385 14.197s-14.603-9.491-19.424-14.338c-4.821-4.844-15.289-16.182-15.289-16.182l15.877-8.443s6.353 12.95 11.484 17.671c5.134 4.722 14.533 14.476 14.533 14.476s-10.446-9.126-10.571-22.433c-.121-13.303 9.403-23.264 10.998-24.197 1.599-.926 7.497 5.165 6.404 6.981z" fill="#1E39CD"/><path d="M240.778 58.008c-5.029.259-20.263 5.153-39.821 6.996-24.758 2.338-54.333 1.894-55.58 4.29-2.238 4.287 13.318 18.888 21.125 20.492 7.812 1.604 42.239-9.373 58.453-8.95 16.215.424 24.03 3.832 36.952 7.005 12.922 3.172-9.74-30.413-21.129-29.833zm-91.603 141.929c-15.932-.62-29.336 9.843-29.932 23.37-.071 1.576.267 3.239.886 4.941-1.584-.671-3.151-1.09-4.672-1.149-13.788-.533-25.523 11.702-26.216 27.331-.69 15.624 9.931 28.727 23.719 29.264 1.596.059 3.277-.271 5.001-.875-.705 1.581-1.156 3.138-1.222 4.652-.596 13.522 11.836 24.989 27.768 25.609 15.936.616 29.336-9.852 29.932-23.378.071-1.576-.266-3.235-.886-4.937 1.584.666 3.151 1.086 4.668 1.145 13.788.533 25.527-11.699 26.221-27.327.689-15.628-9.928-28.731-23.716-29.264-1.595-.063-3.277.266-5.001.87.705-1.576 1.152-3.137 1.215-4.647.599-13.526-11.833-24.99-27.765-25.609v.004zm-2.979 11.789c14.549-.146 24.085 7.384 23.744 14.683-.169 3.588-6.428 9.608-10.022 12.514-.823-.42-3.684-1.302-4.625-1.38-1.321-2.863-4.789-4.432-8.05-4.499-2.908.02-6.048 1.095-7.631 3.444-1.682-.871-4.782.023-5.609 1.431-4.954-4.78-8.43-9.757-8.293-12.73.274-5.745 5.934-13.318 20.486-13.463zm-29.704 22.534c4.538-.471 5.859 2.498 11.381 9.232-.638 1.074-2.167 3.808-2.124 5.098-4.781 2.942-5.017 11.585-.341 14.711-.066 1.125 1.392 3.318 1.842 4.318-4.609 4.769-9.406 9.165-12.259 9.043-5.879-.251-13.679-10.29-13.22-21.75.458-11.459 10.186-20.177 14.721-20.652zm62.819 1.145c4.472 0 13.192 6.393 12.55 22.174-.471 11.581-7.812 21.385-13.832 21.134-2.861-.117-8.407-4.549-13.22-10.392.439-.836 1.662-3.118 1.721-4.083 5.044-2.773 5.495-11.549.807-14.903.012-1.086-.925-3.976-1.391-4.937 4.75-4.887 10.151-8.969 13.365-8.993zm-31.896 4.338c2.454.094 4.355 2.078 4.253 4.431-.102 2.353-2.176 4.185-4.625 4.091-2.458-.094-4.362-2.079-4.256-4.432.101-2.353 2.175-4.184 4.628-4.09zm-7.462 3.882c0 1.518.6 2.989 1.669 4.169a4.627 4.627 0 0 1-3.311 3.216 6.524 6.524 0 0 0-4.5-2.122c-.599-1.8.239-4.302 2.665-5.333 1.317-.557 2.579-.4 3.477.07zm19.15 2.157c1.352 1.671 1.324 3.173 1.074 4.036a6.595 6.595 0 0 0-2.882.438c-.915.36-1.739.92-2.41 1.64a4.607 4.607 0 0 1-2.618-3.294 6.47 6.47 0 0 0 2.462-4.141c.548-.157 3.018-.353 4.374 1.321zm-24.912 5.918a4.245 4.245 0 0 1 4.08 4.444 4.305 4.305 0 0 1-4.456 4.117 4.247 4.247 0 0 1-4.08-4.447 4.305 4.305 0 0 1 4.456-4.114zm12.628.224c2.654.102 4.715 2.235 4.606 4.761-.11 2.521-2.352 4.486-5.009 4.384-2.654-.102-4.715-2.235-4.605-4.757.113-2.525 2.351-4.49 5.008-4.388zm12.585.717a4.384 4.384 0 0 1 4.206 4.585 4.441 4.441 0 0 1-4.594 4.236 4.396 4.396 0 0 1-1.668-.401 4.397 4.397 0 0 1-2.278-2.479 4.439 4.439 0 0 1 4.334-5.941zm-21.329 8.809c2.07.698 2.791 2.525 2.83 2.627-2.112 1.757-2.406 3.981-2.347 4.969-1.999.494-4.226-.666-5.115-2.655a3.944 3.944 0 0 1-.122-2.937c1.76.012 3.461-.706 4.754-2.004zm16.321.384c1.16 1.467 2.825 2.369 4.624 2.51.439 1.949-.764 4.086-2.774 4.941a4.187 4.187 0 0 1-2.869.165c0-.012.423-2.769-2.011-5.075a4.673 4.673 0 0 1 3.03-2.541zm-8.149 2.773c2.383.09 4.233 2.016 4.131 4.302-.102 2.286-2.116 4.063-4.495 3.969-2.379-.09-4.229-2.016-4.127-4.303.098-2.282 2.112-4.062 4.491-3.968zm-8.113 10.416c3.351 4.84 11.954 5.039 15.556.333 1.325.079 4.061-.98 5.232-1.564 5.331 5.235 9.689 11.098 9.536 14.436-.302 6.608-10.841 14.538-23.398 14.067-12.562-.471-22.889-9.687-22.587-16.291.141-3.11 10.762-13.146 10.762-13.146 1.293 1.498 2.94 2.079 4.899 2.165z" fill="#B93C3C"/></g><defs><clipPath id="a"><path fill="#fff" transform="translate(30.5 58)" d="M0 0h239v304H0z"/></clipPath></defs></svg>