<svg width="300" height="420" fill="none" xmlns="http://www.w3.org/2000/svg"><g clip-path="url(#a)"><path d="M156.714 65.276c-2.455-.314-13.35 11.13-22.17 21.31-5.673-1.905-18.361-5.78-25.071-4.708-7.047 1.127-15.503 7.836-18.627 10.486-9.118-7.534-20.663-15.546-20.734-13.08-.098 3.47 19.156 11.298 28.575 39.061 2.502 7.373 4.475 20.022 6.037 34.532a12.725 12.725 0 0 0-1.515-1.747c-3.124-2.866-10.86-5.045-10.86-5.045s2.9 9.933 6.135 13.819c1.613 1.936 4.745 4.083 7.473 5.74.235 2.673.458 5.347.666 8.064a10.366 10.366 0 0 0-.955-1.021c-3.125-2.866-10.86-5.049-10.86-5.049s2.904 9.933 6.134 13.819c1.445 1.728 4.095 3.628 6.593 5.194.157 2.422.313 4.829.45 7.212a9.682 9.682 0 0 0-.763-.793c-3.124-2.866-10.86-5.045-10.86-5.045s2.905 9.933 6.134 13.815c1.359 1.63 3.79 3.408 6.151 4.915.164 3.318.336 6.568.47 9.634-6.182-10.796-16.09-23.005-28.305-29.263-12.77-6.548-38.394-7.388-42.477-4.318-4.087 3.074 20.862 2.913 36.068 14.875 15.21 11.958 15.57 15.044 20.569 24.187.693 1.264 1.331 2.748 1.926 4.334-7.078-2.732-15.566-5.614-20.831-6.003-10.335-.765-22.296 3.494-26.543 7.616-4.244 4.13 18.92-2.971 31.985 2.859 7.3 3.258 14.728 8.876 19.86 13.198.712 4.012 1.073 6.855 1.073 6.855l5.469-.97.141.134.011-.161 10.837-1.924s-.192-1.248-.568-3.259l2.052-.793s-1.136-10.631-2.22-25.353c2.036-1.574 4.15-3.415 5.246-5.009 2.494-3.651 4.048-12.445 4.048-12.445s-6.741 2.658-9.251 5.426a9.224 9.224 0 0 0-.795 1.04c-.105-1.7-.192-3.486-.285-5.241 2.435-1.928 5.105-4.303 6.42-6.329 2.752-4.239 4.463-14.447 4.463-14.447s-7.427 3.082-10.191 6.297a12.6 12.6 0 0 0-1.256 1.842c-.063-1.72-.098-3.443-.141-5.175 2.642-2.135 6.001-5.123 7.477-7.565 2.623-4.318 4.021-14.576 4.021-14.576s-7.325 3.309-9.991 6.607a15.198 15.198 0 0 0-1.676 2.803c.004-3.054.047-6.058.126-9.014 2.76-1.959 6.244-4.687 7.861-7.004 2.889-4.141 4.944-14.29 4.944-14.29s-7.524 2.835-10.398 5.952c-.579.628-1.166 1.507-1.742 2.501.603-7.538 1.566-14.279 3.085-19.386 8.903-29.927 39.275-62.967 36.863-65a.524.524 0 0 0-.278-.118v.004zM109.798 87.35c4.976-.11 13.471 3.757 18.701 6.407a174.578 174.578 0 0 0-2.94 3.678c-.231.299-.454.656-.681.962-4.162-1.696-10.465-3.87-14.141-3.203-3.327.608-7.853 3.105-11.134 5.142-1.593-1.727-3.973-3.933-6.725-6.28 4.008-2.435 11.588-6.588 16.92-6.706zm1.127 13.234c2.702-.071 6.93 1.735 10.238 3.4-6.049 9.881-11.048 21.596-11.048 21.596s-3.03-14.977-8.809-23.143c2.948-.832 6.851-1.783 9.619-1.853zm148.669 75.572c-7.798-.086-18.686 1.257-27.193 5.602-8.245 4.209-20.154 17.337-30.262 29.758-1.507-7.498-3.617-14.702-6.514-18.608-7.772-10.474-29.86-16.736-25.913-12.673 3.946 4.067 12.923 10.836 16.481 21.208 2.357 6.882 1.747 20.74 1.065 29.373-2.752 3.753-4.58 6.336-4.58 6.336l5.958 10.749-.548 1.453-.019.019v.048l-4.483 11.965 5.458 6.784.191 3.667 1.527-1.531.349.432.567-1.335c5.458-5.375 19.187-18.444 27.08-21.847 9.975-4.303 17.096-3.086 23.951-3.895 6.855-.809-10.962-7.895-20.984-7.608-3.703.11-9.258 1.959-14.798 4.24 8.906-14.663 19.418-32.149 25.623-39.789 12.794-15.758 28.062-18.561 35.728-21.34 3.836-1.39-.881-2.913-8.68-3.004l-.004-.004zm-28.152 84.563c-3.202-.02-6.232.255-8.75.942-5.61 1.535-15.088 7.188-22.409 14.836-10.19 10.639-17.656 23.869-17.656 23.869l15.726 7.102s17.794-28.832 27.667-34.504c9.869-5.669 19.328-3.753 28.747-5.324 7.654-1.276-9.447-6.85-23.325-6.925v.004zm-173.016.919c-11.94.173-26.167 5.076-31.155 7.926-6.142 3.506 26.019 2.583 40.833 9.995 9.881 4.947 24.938 17.596 33.974 25.553-.979-.345-15.942-5.586-24.743-4.97-9.102.632-23.415 6.046-27.099 10.651-3.688 4.605 19.567-2.512 28.196-.922 8.628 1.597 22.158 8.083 22.158 8.083l1.656-12.692a459.85 459.85 0 0 1 7.454 6.705l14.974-13.038s-45.847-33.648-58.488-36.569c-2.369-.55-5.004-.761-7.76-.722z" fill="#006F00"/><path d="M98.738 283.003c-1.875-.051-3.774.33-5.254 1.433-3.672 2.736-4.972 9.422-2.69 11.573 2.502 2.364 7.866 6.368 11.119 8.998-3.465-1.099-9.063-3.101-10.66-3.03-2.569.106-4.275 2.61-4.706 3.792-.43 1.178-.298 6.246 1.871 7.074 5.281 2.018 7.008 2.395 19.915 9.674 2.4 1.354 11.757 8.099 16.365 12.287-12.567-2.551-31.28 1.834-37.842 6.651-7.83 5.743 26.551 1.26 37.904 6.615 5.63 2.654 12.54 5.437 17.332 10.341 4.862 4.978 6.107 12.06 6.107 12.06l17.359.031-.039-.188.078.063s16.967-22.456 26.367-27.175c9.396-4.719 18.099-.876 23.254-1.932 5.153-1.056-11.458-12.405-23.606-9.775-2.052.44-13.174 6.843-14.376 7.31 6.577-5.983 21.509-17.521 26.077-20.579 13.311-8.896 26.152-10.769 31.77-12.85 5.614-2.08-10.817-5.123-21.329-4.778-2.235.079-18.208 7.165-17.018 10.019.548-.785 4.424-7.419 4.796-8.134 1.343-2.591-.384-6.839-3.888-9.065-3.421-2.167-8.581-2.363-10.582-.345-.469.475-3.926 2.74-9.732 11.495-.673 1.013-9.686 15.491-10.833 16.783 2.843-8.453 13.284-30.952 13.284-30.952l-22.656-1.295s-6.718 14.918-4.189 19.613c1.499-5.3-2.725-16.198-2.725-16.198l-16.846 6.337s6.417 17.238 8.852 21.78c-6.788-15.994-33.12-33.264-37.325-35.921-1.37-.864-3.739-1.645-6.15-1.712h-.004z" fill="#1E39CD"/><path d="M224.16 49.51c-1.25-.04-2.501.075-3.723.345-6.056 1.358-14.046 9.045-22.714 12.955-10.073 4.546-20.514 5.379-21.391 6.949-1.629 2.929 11.42 11.715 17.809 11.715 3.844 0 18.76-6.812 32.372-11.322 9.001-2.984 18.686-4.013 19.731-4.806 2.377-1.806-10.002-15.475-22.084-15.837zm24.371 53.458c-5.023.255-20.24 5.158-39.776 7.003-24.73 2.34-54.272 1.897-55.517 4.295-2.236 4.291 13.303 18.907 21.101 20.513 7.799 1.605 42.191-9.383 58.387-8.959 16.196.424 24.003 3.836 36.91 7.012 12.908 3.176-9.728-30.445-21.105-29.864zm-102.285 107.45c-17.59 0-31.852 11.511-31.852 25.714.023 2.87.65 5.724 1.84 8.433a27.19 27.19 0 0 0-4.557-.385c-13.518 0-24.472 9.823-24.472 21.942s10.954 21.945 24.468 21.945a27.387 27.387 0 0 0 3.406-.223c1.202 8.271 9.572 14.49 19.516 14.502 8.01-.016 15.209-4.099 18.204-10.321 6.018 5.669 16.502 6.493 25.815 2.029 11.667-5.614 17.594-17.556 13.233-26.672a15.134 15.134 0 0 0-5.888-6.332c6.056-5.693 8.217-13.254 5.52-19.315-2.181-4.884-7.239-8.135-13.632-8.755-1.969-12.877-15.523-22.558-31.601-22.562zm-.337 8.197c12.489 0 22.613 7.813 22.613 17.443 0 3.819-1.633 7.533-4.64 10.568-3.973-5.123-10.37-8.158-17.186-8.162-7.188 0-13.886 3.384-17.786 8.983-3.586-3.153-5.578-7.197-5.617-11.389 0-9.634 10.127-17.443 22.616-17.443zm32.325 20.364c3.191.18 5.873 1.699 7.278 4.188 2.615 4.617.157 11.138-5.481 14.565-4.075 2.434-8.859 2.658-12.179.566l.02-.228c0-2.854-.678-5.677-1.977-8.264 3.069-2.799 5.152-6.089 6.017-9.508a13.923 13.923 0 0 1 3.328-1.107c.987-.19 1.99-.261 2.994-.212zm-30.418 7.16c3.578.195 6.918 1.428 9.405 3.473 2.488 2.046 3.958 4.767 4.14 7.665.203 3.196-1.175 6.359-3.831 8.793-2.655 2.434-6.371 3.939-10.329 4.186-3.959.244-7.835-.791-10.776-2.879-2.941-2.087-4.706-5.055-4.907-8.251-.203-3.196 1.175-6.359 3.831-8.793 2.655-2.434 6.371-3.94 10.329-4.186a18.598 18.598 0 0 1 2.138-.008zm-36.057 6.812c6.037 0 11.51 3.121 14.004 7.981.25 1.492.689 2.956 1.307 4.358.043.412.067.832.071 1.248 0 7.506-6.89 13.591-15.386 13.591-8.495 0-15.377-6.085-15.377-13.591 0-7.502 6.886-13.591 15.381-13.587zm62.016 10.878c5.599-.067 10.066 2.297 11.722 6.203 2.56 6.03-2.271 13.839-10.782 17.439-8.515 3.6-17.492 1.625-20.052-4.405-.846-2.085-.838-4.472.019-6.878 5.309-2.014 9.51-5.936 11.635-10.871a22.131 22.131 0 0 1 7.458-1.488zm-38.029 12.626c6.878 0 12.449 4.357 12.449 9.732 0 5.374-5.571 9.732-12.449 9.732-6.875 0-12.45-4.358-12.45-9.736 0-5.371 5.575-9.728 12.45-9.728z" fill="#B93C3C"/></g><defs><clipPath id="a"><path fill="#fff" transform="translate(26.5 49.5)" d="M0 0h247v321H0z"/></clipPath></defs></svg>