<svg width="300" height="420" fill="none" xmlns="http://www.w3.org/2000/svg"><g clip-path="url(#a)"><path d="M75.81 72.031a2.01 2.01 0 0 0-.526.028c-2.541.569 11.184 13.536 24.25 29.494-3.958 5.548-12.94 20.634-8.482 38.416 4.037 16.126 22.432 25.806 32.541 30.008a828.84 828.84 0 0 1 1.331 28.976c-2.58-4.716-5.49-9.075-8.6-11.92-10.541-9.652-37.494-10.335-39.222-8.695-.911.864 6.138 2.425 14.075 5.301-1.414 4.147-5.038 17.794 4.367 28.003 8.849 9.605 21.247 9.009 26.097 8.33a506.785 506.785 0 0 1 3.409 8.432c-.349 11.943-1.312 20.493-3.142 21.796-5.946 4.229 13.428.706 14.421-.102.365-.295 1.948-13.207 3.154-30.922 1.916-3.787 2.729-5.4 5.427-10.783 5.349.683 24.554 2.15 31.536-10.892 6.543-12.214-.078-27.096-2.945-32.499 6.334-4.626 12.976-8.02 17.641-10.151 9.402-4.3-24.691 1.013-35.852 11.418-4.834 4.512-10.062 13.376-14.437 21.973.436-24.696-.86-50.498-6.601-64.273-12.689-30.436-51.935-51.557-58.446-51.938h.004zm29.399 36.777c7.659 10.197 14.158 20.979 15.533 30.212.722 4.845 1.414 11.515 2.034 19.162-6.554-5.995-15.438-14.98-17.704-21.493-2.635-7.573-1.017-20.819.137-27.881zm65.177 58.607c2.121 3.806 4.615 11.975-2.941 23.691-7.576 11.751-15.953 12.948-20.218 12.646 3.483-6.93 6.908-13.888 10.274-20.874 2.871-6.035 7.643-11.186 12.885-15.463zm-74.641 18.009c5.667 2.413 11.114 5.552 13.824 9.653 3.153 4.763 6.916 12.845 10.211 20.52-3.209-.345-9.571-2.315-17.367-11.398-7.736-9.024-7.556-15.549-6.668-18.775zm124.365 5.835c-4.273-.087-8.263.427-11.554 1.816-17.559 7.416-35.33 50.38-35.33 50.38l11.028 3.892s1.924-4.496 4.964-10.558c5.851 2.118 22.758 6.984 35.856-1.876 13.294-8.989 14.884-27.489 15.033-33.7 8.13 1.122 15.136 2.958 17.791 2.633 4.556-.553-19.275-12.215-37.788-12.587zm8.604 9.134c2.137-.028 4.285.078 6.402.255.18 4.218-1.442 13.592-16.624 23.161-13.22 8.334-22.095 8.801-26.745 8.091 5.588-10.437 13.573-23.13 21.423-27.823 4.442-2.66 9.932-3.61 15.544-3.684zM50.416 226.615c-11.361.223-21.91 2.452-24.427 4.214-2.93 2.056 7.819 2.221 20.225 3.335-.648 5.995-1.28 21.572 8.33 28.831 9.496 7.172 26.525 2.009 33.315-.495a218.852 218.852 0 0 1 11.04 23.829l3.141-20.788s-12.308-26.849-27.02-34.646c-6.432-3.413-15.764-4.457-24.604-4.28zm.024 7.965c5.223.569 10.49 1.342 14.97 2.542 7.16 1.923 14.398 11.41 20.304 21.549-4.645.785-13.588 1.091-23.536-4.916-10.43-6.298-11.793-14.844-11.738-19.171v-.004zM240.26 284.5c-3.841-.059-7.926.628-12.222 2.299-30.539 11.901-29.207 43.129-29.207 43.129l11.939 4.222s.703-4.053 2.49-9.437c4.787 1.99 16.502 5.651 27.439-.517 9.398-5.305 11.884-16.409 12.501-23.291 9.952 4.944 17.457 13.74 20.579 13.058 4.167-.915-10.054-29.106-33.519-29.467v.004zm1.311 13.184c2.737.124 5.437.68 8 1.647-.978 3.842-4.332 9.586-14.492 16.095-11.126 7.13-17.358 6.984-20.551 5.76 3.468-8.911 9.696-19.657 20.174-22.663a21.895 21.895 0 0 1 6.873-.836l-.004-.003zm-175.384.462c-3.197.067-6.372.54-9.449 1.409-24.765 7.125-30.77 44.737-28.394 48.516 1.363 2.173 7.203-9.115 15.34-19.614 4.642 6.254 15.795 18.598 30.7 17.071 15.331-1.569 23.661-16.322 26.673-22.98 11.181 5.724 24.153 10.762 34.627 15.969l5.985-10.327-6.385-2.04-8.483.902-12.403-5.791-3.161-6.914s-22.767-16.777-45.046-16.204l-.004.003zm-1.642 14.094c11.327-.227 22.154 3.386 32.609 8.377-1.261 4.658-6.308 10.971-23.694 13.372-18.564 2.566-24.867-3.943-27.004-8.946 5.396-6.348 11.594-11.794 18.09-12.803z" fill="#006F00"/><path d="M141.199 327.927s15.662 8.502 15.45 6.67c-.208-1.832-6.948-12.65-6.948-12.65l12.395-.349s3.283 10.641 7.21 14.659c3.924 4.021 13.993 7.984 14.233 7.047.243-.942-12.202-23.974-12.202-23.974l12.426-3.319s11.153 34.865 12.779 31.53c1.63-3.335 1.846-18.806 2.246-20.011 1.477-4.41 14.681-2.597 12.148 6.106-.723 2.491-.448 12.112-.158 15.506.299 3.39 8.46 2.915 10.749 4.889 5.016 4.32 6.056 15.565 1.508 15.953-4.547.393-30.106-6.807-45.096-12.497-14.991-5.689-42.317-19.014-42.317-19.014-1.838-3.507-2.419-5.716-1.033-8.031 1.214-2.021 3.712-2.401 6.61-2.515z" fill="#1E39CD"/><path d="M209.264 50.009a14.416 14.416 0 0 0-3.523.319c-5.715 1.272-13.26 8.457-21.44 12.113-9.509 4.248-19.368 5.02-20.196 6.49-1.538 2.74 10.784 10.949 16.812 10.949 3.633-.003 17.708-6.366 30.561-10.58 8.499-2.787 17.645-3.75 18.627-4.49 2.246-1.686-9.433-14.464-20.841-14.801zm-2.39 33.474c-1.074-.02-2.052.655-3.106.873-5.203 1.082-12.161 6.612-19.607 9.726-8.654 3.617-16.385 2.214-17.137 3.468-1.4 2.335 9.446 10.574 14.931 10.571 3.305-.003 14.557-5.561 26.25-9.156 7.733-2.375 16.746-2.233 17.64-2.862 2.044-1.44-8.586-12.332-18.971-12.62zm34.355 27.878c-5.035.258-19.019 5.794-38.618 7.642-24.806 2.338-54.44 1.893-55.693 4.29-2.239 4.288 13.349 18.898 21.169 20.501 7.828 1.605 43.247-8.825 59.493-8.401 16.247.423 23.16 3.282 36.106 6.454 12.947 3.176-11.038-31.066-22.457-30.486zM166.44 233.237c-2.485-.16-5.323 1.193-8.355 1.206-3.47.016-8.865-1.819-10.376-.806-1.515 1.013-.541 7.127-2.53 8.34-3.396 2.076-5.989 3.873-8.024 5.444-2.696-.681-6.077-.481-8.81-.495-2.452.018-8.55 1.748-9.989 2.331-3.999 1.613-9.618 4.934-12.236 7.117-10.294 8.587-12.929 22.143-10.38 38.412 2.939 18.754 18.885 35.62 43.415 32.426 5.231-.888 9.731-1.882 14.026-5.153 2.202.637 4.479.965 6.766.973a24.957 24.957 0 0 0 9.797-2.02c23.166-2.45 39.019-20.384 39.079-37.681.133-18.404-14.607-39.402-38.208-41.351-1.46-.123-.414-7.826-3.134-8.57a5.169 5.169 0 0 0-1.041-.173zm-15.357 9.278c10.386.797 13.481 2.433 15.023 2.916 4.859 1.523 28.07 13.901 27.741 36.851-.323 22.957-16.176 33.537-11.1 27.67 2.927-6.458 7.612-12.474 6.732-23.754-1.975-25.236-20.61-36.696-30.928-38.077-10.314-1.378-16.546.773-16.546.773s6.039-3.074 7.641-3.982c1.128-.641.019-2.506 1.437-2.397zm34.664 9.481c.034.01.359.217 1.055.616 5.559 3.184 14.778 10.976 15.305 28.603.528 17.631-10.859 28.508-12.162 28.236-1.3-.273 10.315-4.922 9.869-28.114-.381-19.964-14.313-29.423-14.067-29.341zm-43.324 4.404c.644.01 1.269.23 1.78.626a2.976 2.976 0 0 1 .764 3.833 2.99 2.99 0 0 1-4.955.354 2.96 2.96 0 0 1-.568-2.414 2.984 2.984 0 0 1 1.634-2.105 3.028 3.028 0 0 1 1.345-.298v.004zm11.806-1.72c14.668 2.613 25.203 17.166 25.202 34.612-.002 16.527-9.889 29.052-23.657 30.584 13.014-11.321 15.915-28.133 13.98-39.393-1.93-11.26-10.569-18.741-15.525-25.803zm-28.063 4.892a4.291 4.291 0 0 1 4.058 3.148 4.283 4.283 0 0 1-2.998 5.264 4.288 4.288 0 0 1-5.269-2.995 4.33 4.33 0 0 1-.066-1.97 4.282 4.282 0 0 1 2.345-3.02c.6-.288 1.26-.434 1.93-.427zm-16.308 5.771a2.981 2.981 0 0 1 2.545 4.457 2.992 2.992 0 0 1-4.954.36 2.98 2.98 0 0 1-.524-1.041 3.025 3.025 0 0 1-.048-1.374 2.972 2.972 0 0 1 1.634-2.108c.419-.201.88-.299 1.347-.294zm37.06 6.025a4.289 4.289 0 0 1 4.059 3.148 4.28 4.28 0 0 1-2.995 5.263 4.288 4.288 0 0 1-5.268-2.998 4.322 4.322 0 0 1-.066-1.968 4.272 4.272 0 0 1 2.344-3.017 4.354 4.354 0 0 1 1.926-.428zm-16.278 4.473a4.28 4.28 0 0 1 1.059 8.408 4.287 4.287 0 0 1-5.268-2.994 4.321 4.321 0 0 1-.067-1.971 4.28 4.28 0 0 1 2.346-3.02c.6-.288 1.26-.434 1.929-.427l.001.004zm-16.28 4.469a4.285 4.285 0 0 1 4.055 3.144 4.288 4.288 0 0 1-8.267 2.274 4.325 4.325 0 0 1-.067-1.972 4.275 4.275 0 0 1 2.349-3.021 4.354 4.354 0 0 1 1.93-.425zm37.036 7.323a4.281 4.281 0 0 1 1.06 8.412 4.286 4.286 0 0 1-5.268-2.995 4.317 4.317 0 0 1-.067-1.97 4.259 4.259 0 0 1 2.345-3.02c.6-.288 1.26-.434 1.93-.427zm-16.283 4.473a4.283 4.283 0 0 1 1.064 8.411 4.293 4.293 0 0 1-5.273-2.997 4.33 4.33 0 0 1-.065-1.97 4.27 4.27 0 0 1 2.346-3.017 4.344 4.344 0 0 1 1.928-.427zm-16.279 4.473a4.28 4.28 0 0 1 1.06 8.408 4.286 4.286 0 0 1-5.268-2.995 4.316 4.316 0 0 1-.067-1.97 4.282 4.282 0 0 1 2.345-3.02c.6-.288 1.26-.434 1.93-.427v.004zm37.014 8.62a2.989 2.989 0 0 1 2.829 2.19 2.997 2.997 0 0 1-.285 2.269 2.99 2.99 0 0 1-4.953.357 2.974 2.974 0 0 1-.571-2.414 2.973 2.973 0 0 1 1.634-2.108 3.028 3.028 0 0 1 1.346-.294zm-16.258 3.172a4.293 4.293 0 0 1 4.059 3.147 4.284 4.284 0 0 1-2.998 5.264 4.29 4.29 0 0 1-5.269-2.994 4.33 4.33 0 0 1-.067-1.97 4.273 4.273 0 0 1 2.346-3.02c.6-.288 1.26-.434 1.929-.427zm-16.308 5.771a2.978 2.978 0 0 1 1.782.624c.512.395.881.945 1.052 1.565a3.002 3.002 0 0 1-.286 2.269 2.994 2.994 0 0 1-2.963 1.486 2.99 2.99 0 0 1-2.513-2.168 3.015 3.015 0 0 1-.048-1.375 2.98 2.98 0 0 1 1.634-2.108 3.032 3.032 0 0 1 1.346-.298l-.004.005z" fill="#B93C3C"/></g><defs><clipPath id="a"><path fill="#fff" transform="translate(25.5 50)" d="M0 0h249v320H0z"/></clipPath></defs></svg>