<svg width="300" height="420" fill="none" xmlns="http://www.w3.org/2000/svg"><g clip-path="url(#a)"><path d="M78.817 78.1c-5.176-.042-8.62 1.134-11.911 4.737-13.176 14.415 20.426 59.476 25.272 73.765 2.113 6.236 5.695 29.64 6.46 46.702-9.217-11.491-28.55-33.92-38.047-32.614-12.732 1.747-28.532 7.404-29.938 15.269-1.414 7.868 7.199 11.999 14.335 13.769 7.136 1.77 27.691-1.664 38.24 3.435 6.233 3.009 12.186 10.834 16.031 16.743.444 15.359 4.583 26.905 4.583 26.905l9.654-5.834s-5.695-18.05-2.365-33.428c3.335-15.375 10.824-17.078 14.186-18.514 5.993-2.565 12.178-4.072 16.29-6.385 4.112-2.309 9.473-8.871 4.214-17.853-5.254-8.978-14.13-18.569-20.382-4.414-2.765 6.243-9.976 16.177-13.711 23.215 4.061-35.997 8.884-77.176 5.263-83.203-5.184-8.615-22.649-22.153-38.174-22.294zm1.022 12.717c.293-.067 6.776 0 7.296.52 4.162.905 9.8 7.216 15.066 13.011 6.755 9.889 4.443 78.257 2.079 64.016-2.361-14.242-6.945-25.507-12.102-42.157-3.88-12.538-10.95-19.238-12.34-22.892-3.322-8.734-1.975-12.038 0-12.498zm155.721 49.281c-10.867-.09-32.274 6.862-38.849 12.842-3.232 2.938-6.849 14.595-10.085 27.837-1.072-4.182-2.584-7.797-4.721-9.882-8.113-7.916-23.842-10.193-25.72-2.085-1.873 8.116 8.421 12.254 15.588 24.981a862.257 862.257 0 0 1 8.687 15.808c-1.94 10.118-3.232 17.766-3.232 17.766l4.626 1.125c.153 3.002 1.112 6.48 5.487.822 6.609-8.552 22.845-4.575 30.083-8.761 7.238-4.182 21.082-13.659 16.436-21.291-4.65-7.632-23.293.429-32.734 4.945-3.174 1.519-6.374 4.434-9.241 7.624 1.665-4.06 3.801-8.131 6.499-11.393 8.652-10.457 34.608-13.911 41.74-25.611 7.136-11.7 5.337-26.842 1.527-32.814-.832-1.307-3.051-1.889-6.091-1.913zm-5.553 9.694c.53-.031.966-.02 1.276.051 5.459 1.196 3.618 8.47 2.884 11.755-2.337 10.449-7.797 12.999-15.801 17.429-11.353 6.282-23.266 13.478-20.568 7.553 2.699-5.929 1.728-7.549 6.755-19.257 3.467-8.077 8.373-13.147 12.469-14.052 1.174-.264 9.278-3.262 12.989-3.475l-.004-.004zM134.413 164.2c1.799.012 5.668 4.416 5.715 7.807.032 2.207-2.247 3.964-5.715 6.246-5.337 3.525-17.503 9.478-15.586 5.725 1.924-3.754 3.896-5.269 7.274-10.93 1.677-2.813 3.825-5.89 5.195-7.286.915-.929 2.037-1.57 3.117-1.562zm34.81 7.287c1.065-.063 6.68 2.818 8.833 6.245 2.654 4.233 3.998 7.857 5.715 14.573 1.865 7.258 1.853 8.273-.31 6.632-2.161-1.648-1.511-4.532-5.925-10.275-4.018-5.237-12.808-13.955-12.989-16.134-.196-2.392 3.612-.978 4.676-1.041zM58.04 179.814c3.26-.079 5.054.524 8.832 2.082 7.548 3.104 23.29 15.88 18.704 15.093-4.583-.787-12.66-5.851-22.34-5.725-9.682.122-15.087 2.393-20.263-1.041-5.18-3.431.755-5.656 5.715-8.327 2.678-1.413 6.325-2.041 9.352-2.082zm166.398 22.145c1.928-.056 3.063.236 3.778 1.337.95 1.476.22 2.841-1.767 4.123-1.987 1.283-8.915 6.365-14.543 8.034-5.624 1.668-12.783.787-19.676 3.607-6.9 2.813 11.978-8.922 17.045-11.7 5.066-2.773 9.626-4.933 12.96-5.248a34.772 34.772 0 0 1 2.203-.153zM51.354 253.012c-6.229.098-11.35.968-13.758 1.416-5.498 1.023 2.942 28.094 16.181 39.782 7.273 6.42 25.633 9.619 39.776 13.663 11.605 3.32 20.029 8.097 20.029 8.097l6.496-9.108s-6.598-4.119-13.102-12.219c-9.465-11.791-20.783-30.447-29.502-35.663-8.274-4.949-18.116-6.098-26.12-5.968zm188.42 3.784c-6.441-.09-12.893.571-18.124 2.443-16.746 6.008-40.785 42.418-40.785 42.418l10.03 6.846s12.041-12.826 22.327-16.646c10.289-3.82 27.703 2.136 37.132-3.859 9.426-6 20.713-20.875 18.965-24.592-1.205-2.558-15.367-6.405-29.545-6.61zm-187.969 3.688c6.166-.04 13.573 4.915 21.302 9.368 10.757 6.192 33.423 36.626 23.899 30.186-9.532-6.444-23.753-6.692-32.212-12.491-4.328-2.97-8.58-7.22-11.95-11.45-4.595-5.775-7.05-11.152-5.715-14.052.652-1.416 2.26-1.549 4.676-1.561zm194.831 4.163c5.722-.027 10.538.329 10.911 2.603.746 4.548-6.068 10.604-12.47 13.531-6.401 2.931-13.745.254-21.301 1.041-7.552.795-30.116 12.899-23.946 6.176 6.165-6.728 8.903-8.636 13.27-12.574 4.363-3.934 9.816-7.425 17.95-9.215 4.068-.897 9.868-1.534 15.586-1.562z" fill="#006F00"/><path d="M180.982 301.421c1.238-1.558 5.251-1.577 7.753.158 2.545 1.762 3.558 5.307 2.254 6.861-1.005 1.196-7.407 10.708-11.416 22.735-2.538 7.601-6.445 15.933-8.075 23.015-2.133 9.26-.825 15.024-1.61 16.326-.358.598-6.307-.85-9.477-.787-3.173.059-9.284 1.708-9.445 1.157-.919-3.171-.079-6.082-4.151-13.396-2.27-4.072-7.391-8.072-10.561-12.691-9.912-14.462-22.967-28.877-23.296-29.349-.974-1.424-1.077-4.882.259-6.727 1.327-1.83 4.076-2.046 5.714-2.254 2.788-.362 11.644 10.268 18.808 20.481 4.728 6.747 3.807 6.058 6.026 7.958 5.577 4.772-14.152-35.568-17.726-42.166-2.187-4.048 15.78 7.888 15.78 7.888s11.209 33.775 13.376 32.717c2.172-1.062 1.517-28.098 1.517-28.098l10.784-2.061s-3.885 32.616-1.91 32.761c1.092.079 2.201-1.178 5.676-12.988 2.797-9.501 7.372-18.581 9.72-21.54z" fill="#1E39CD"/><path d="M221.355 49c-7.835.114-17.885 2.124-26.065 3.95-19.88 4.438-37.098 10.19-42.981 10.386-9.767.327-21.066-3.93-18.395 2.809 2.67 6.739 16.125 32.693 21.384 39.617 2.246 2.954 8.577 11.31 12.175 13.175 4.928 2.557 7.854-.929 9.158-3.246.844-1.499 5.459-3.076 9.7-3.867 1.265 1.853 2.455 2.675 3.492 1.916.652-.48 1.088-1.408 1.355-2.652 5.93-.739 11.927-.971 13.667-.818 3.55.315 2.545 9.804 10.026 12.676 7.478 2.872 16.687-7.853 25.225-15.135 8.542-7.278 16.181-22.617 24.514-26.398 3.229-1.463-1.256-8.537-8.106-15.296-5.875-5.803-14.817-12.782-23.999-15.244-2.961-.795-6.449-1.94-11.15-1.873zm1.316 10.339c3.397-.118 7.395.912 9.3 2.734 5.565 5.323 5.034 5.272 6.374 13.805 1.335 8.533-20.764 36.682-22.527 33.086-1.618-3.297-4.43-6.405-10.604-8.435 2.36-3.163 6.099-5.602 9.237-8.462 7.631-6.952 10.274-13.03 10.274-13.03s.188-7.443-3.751-9.43c-3.102-1.566-12.375-8.407-14.276-4.666-1.896 3.745 3.001 10.15 1.277 12.892-.801 1.279-2.486 5.606-6.944 11.04-3.31 4.032-6.036 8.458-6.959 11.731-.958.212-1.924.44-2.906.696-1.304-12.314-5.73-29.407-5.263-31.846.699-3.651-14.68-.744-13.341 2.494.849 2.053 5.29 19.97 9.866 31.752-3.59.964-6.692 1.629-8.385 1.164-5.019-1.377-12.124-27.117-12.179-30.225-.055-3.108 23.124-10.56 36.854-12.436 9.877-1.354 16.483-2.6 23.953-2.864zm-71.98 144.654c-8.744 0-17.13 2.773-23.313 7.707-6.183 4.934-9.657 11.626-9.657 18.604.024.88.102 1.758.236 2.632-7.533 1.243-14.332 4.732-19.229 9.868-4.897 5.135-7.585 11.595-7.602 18.269.018 7.382 3.304 14.475 9.174 19.804 5.87 5.328 13.873 8.483 22.346 8.808 2.018 5.443 6.186 10.219 11.884 13.616 5.697 3.396 12.619 5.232 19.731 5.233 8.357-.018 16.393-2.566 22.485-7.13 6.092-4.565 9.784-10.805 10.332-17.458 7.936-.934 15.226-4.445 20.511-9.879 5.284-5.434 8.202-12.42 8.209-19.655 0-7.898-3.468-15.474-9.641-21.063-6.174-5.589-14.549-8.734-23.286-8.746-1.624-5.844-5.698-11.073-11.549-14.821-5.85-3.748-13.128-5.791-20.631-5.794v.005zm.228 10.72c10.729 0 19.428 6.531 19.428 14.588-.039 1.495-.353 4.595-1.83 4.13-5.207-1.624-8.184-4.532-16.989-3.556-10.588 1.18-9.041 4.013-15.698 6.621-2.78 1.09-4.3-4.485-4.343-7.195 0-8.057 8.699-14.588 19.432-14.588zm31.89 18.911c12.214 0 22.11 8.164 22.11 18.235s-9.896 18.231-22.11 18.231c-2.003-.028-6.178.133-5.84-1.83.844-4.929 3.075-6.436 3.032-14.93-.051-10.488-4.548-9.088-7.164-16.169-1.241-3.36 6.268-3.509 9.976-3.541l-.004.004zm-28.528 4.721c2.451 0 4.879.433 7.144 1.273a18.925 18.925 0 0 1 6.056 3.624c1.734 1.552 3.109 3.395 4.047 5.423a15.209 15.209 0 0 1 1.419 6.396 15.21 15.21 0 0 1-1.421 6.396c-.938 2.027-2.313 3.87-4.046 5.422a18.92 18.92 0 0 1-6.056 3.622 20.575 20.575 0 0 1-7.143 1.273 20.58 20.58 0 0 1-7.145-1.272 18.935 18.935 0 0 1-6.057-3.622c-1.734-1.552-3.109-3.395-4.047-5.422a15.201 15.201 0 0 1-1.422-6.397c0-2.195.482-4.369 1.42-6.397.938-2.028 2.314-3.871 4.047-5.424a18.96 18.96 0 0 1 6.058-3.623 20.59 20.59 0 0 1 7.146-1.272zm-32.715 3.108c2.836.004 7.71.378 8.016 3.203.455 4.197-2.231 4.268-1.241 12.467 1.143 9.454 3.817 6.829 4.721 13.273.604 4.3-7.133 6.693-11.492 6.716-10.065 0-18.223-7.978-18.223-17.825 0-9.848 8.158-17.83 18.223-17.83l-.004-.004zm49.787 33.834c3.259.118 4.618 6.019 4.622 9.119 0 8.655-9.897 15.669-22.111 15.669s-22.11-7.018-22.11-15.669c.023-3.297 2.662-8.954 6.401-8.222 6.335 1.239 6.865 4.158 15.757 3.945 12.488-.299 10.419-3.54 16.769-4.787a2.97 2.97 0 0 1 .672-.059v.004z" fill="#B93C3C"/></g><defs><clipPath id="a"><path fill="#fff" transform="translate(30.5 49)" d="M0 0h239v322H0z"/></clipPath></defs></svg>