<svg width="300" height="420" fill="none" xmlns="http://www.w3.org/2000/svg"><g clip-path="url(#a)"><path d="M71.03 60.136c1.728-1.867 7.807-1.592 7.807.95 0 19.129.503 81.739.503 83.838 0 2.094 16.817 3.902 16.817 5.815l-.008 5.348c0 .778-.071.766-26.247.951-24.628.173-24.561.377-24.628-.432-.138-1.651.035-3.6.035-5.855 0-2.252 15.257-3.6 15.257-5.839 0-2.236-.216-56.233-.216-58.575 0-2.338-8.77-1.081-15.575-1.226-4.255-.09 5.776-6.869 14.369-13.62 5.14-4.035 9.465-8.738 10.738-10.114l1.148-1.241z" fill="#1E39CD"/><path d="M154.461 57.028c-.844-.189-1.218.715-.95 2.907 1.139 9.25 7.85 21.993 12.31 43.872a13.377 13.377 0 0 0-2.998-1.226c-5.804-1.485-14.798-.079-18.204 1.458-3.407 1.536 11.002 2.381 16.569 5.395 2.043 1.108 4.369 3.017 6.491 4.99 0 .031.008.063.012.09-14.687 3.391-22.683 5.89-22.412 17.517.236 10.197 16.043 14.598 24.565 16.237-.012 6.746-.063 13.159-.141 19.308-2.535-1.956-7.183-5.438-10.373-7.163-4.55-2.464-21.465-.157-16.44 1.493 5.021 1.655 8.251 1.792 11.505 4.37 1.426 1.128 3.988 3.493 6.42 5.796-10.962 3.556-19.752 8.393-19.976 15.89-.405 13.635 17.819 18.126 27.944 19.58-.534 15.478-1.068 24.614-1.068 24.614l16.62 2.444s.059-4.959.098-10.48c4.2-1.906 11.312-5.477 14.243-9.049 4.267-5.199 10.468-24.787 4.641-18.877-5.827 5.906-7.505 8.621-11.945 11.6-1.992 1.336-4.609 2.671-6.907 3.764 0-10.228-.087-22.637-.366-35.718 14.243-3.466 27.658-8.26 27.779-17.026.177-12.641-18.027-17.352-28.722-19.034 2.542-2.436 5.536-5.226 7.607-6.896 4.275-3.446 6.22-2.805 11.434-5.56 5.218-2.75-11.273-2.248-15.901.067-1.415.707-2.9 1.827-4.283 3.041a254.25 254.25 0 0 0-1.002-9.855c-.047-.381-.11-.766-.161-1.151l.196-.051s17.984-7.82 13.344-20.728c-3.328-9.25-13.737-9.108-19.383-8.29 1.175-3.788 2.711-8.35 4.137-11.254 2.798-5.71 6.81-7.234 10.334-11.356 3.529-4.126-12.306.314-16.271 5.43-1.532 1.977-2.821 4.92-3.823 7.788-6.011-13.603-12.459-23.4-14.923-23.937zm25.163 38.9c2.397 0 4.974.857 6.577 3.89 2.707 5.109-3.43 9.447-6.848 11.384a143.664 143.664 0 0 0-3.949-14.515 13.397 13.397 0 0 1 4.22-.758zm-10.982 26.3c.534 5.069.904 10.53 1.084 16.397-6.235-.57-15.265-2.432-15.481-8.551-.165-4.927 7.108-6.404 14.397-7.846zm14.569 26.672c7.839.197 18.546 1.753 18.298 8.849-.133 3.745-8.184 6.154-17.669 8.417a912.282 912.282 0 0 0-.629-17.266zm-13.681 30.154c-.121 6.571-.279 13.141-.472 19.71-7.308-.197-17.261-2.067-16.542-10.963.378-4.731 7.796-6.77 17.014-8.747zM38.598 212.898c-2.483-.118-2.974.841-.303 3.171 10.688 9.328 26.581 18.543 37.363 33.694l.079.122c-2.542-.198-5.08-.434-7.615-.707-5.576-.637-14.377-3.38-17.803-2.574-3.43.809 8.762 7.875 14.333 10.531 2.043.97 5.097 1.886 8.138 2.652-7.874 11.329-14.64 22.842-9.945 29.879 6.668 10.008 22.506 7.859 32.365 5.313.943 2.943 1.614 5.171 1.614 5.171l18.012 2.023s-10.656-32.889-22.624-54.091c5.89-11.313 9.712-21.97 3.937-26.885-9.969-8.488-24.597-1.745-30.526 1.603-10.821-5.706-22.389-9.686-27.025-9.902zm43.96 11.812c2.353.008 4.6 1.076 6.314 4.023 1.387 2.397.243 6.107-2.204 10.57-1.317-1.799-2.633-3.395-3.938-4.695-2.318-2.319-5.218-4.578-8.424-6.712 2.37-1.634 5.383-3.198 8.252-3.186zm.848 39.097c3.261 7.092 6.153 14.743 8.456 21.281-7.69 2.935-16.982 5.022-16.896-2.161.048-4.09 3.87-11.151 8.44-19.124v.004zm133.054 9.741c-.328.007-.656.024-.982.051-10.401.801-14.841 12.609-18 24.653-21.335 1.847-47.661 7.674-47.661 7.674l-.13 14.813s6.57-1.744 15.442-3.772c2.861 7.16 9.941 19.856 23.862 18.213 9.41-1.112 13.269-12.794 16.145-24.523 19.335-.421 43.201 6.059 55.786 5.666 8.153-.255-4.306-6.613-19.587-11.82 1.203-2.349 2.77-5.183 4.252-7.147 2.966-3.933 8.589-6.456 10.656-8.763 2.066-2.302-9.8.283-13.701 2.892-1.548 1.038-3.23 2.68-4.696 4.283-2.746-9.752-8.758-22.539-21.386-22.22zm.711 12.173c6.648.401 9.363 8.527 10.467 14.688-4.503-1.144-8.801-2.008-12.455-2.409a62.575 62.575 0 0 0-6.9-.283c1.839-6.735 4.008-11.756 7.815-11.992a8.015 8.015 0 0 1 1.073-.004zm-23.025 25.832c-1.886 7.025-3.984 12.389-7.638 12.951-5.863.904-8.892-4.484-10.464-9.886a259.554 259.554 0 0 1 18.102-3.065z" fill="#006F00"/><path d="m148.088 283.124-5.501 11.147s-13.162 16.091-23.979 23.467c-.531.361-1.128.707-1.729 1.061.354-2.598.574-5.058.467-6.747-.345-5.521-2.506-9.749-3.618-13.278-1.733-5.489-18.153-5.638-17.265.047.668 4.303 3.968 9.722 3.862 15.345-.067 3.367-1.862 8.841-3.3 12.715-9.316 3.218-17.949 6.185-19.493 9.293-2.88 5.784.904 20.956 3.855 26.28 1.956 3.528 13.72-10.794 27.543-21.51a136.445 136.445 0 0 1 8.145-5.874c3.159 5.961 10.798 17.446 21.957 15.301 8.357-1.607 12.302-11.478 14.16-19.867 1.427 1.729 2.947 3.293 4.358 4.204 4.66 3.022 12.212 4.008 16.046 4.166 3.835.157-8.105-6.723-11.182-10.303-2.196-2.558-4.97-6.975-6.389-9.313 3.187-1.383 4.244-7.752 2.016-11.026-3.088-4.53-9.116-1.257-8.122-3.233 3.34-6.633 12.483-16.512 12.483-16.512l-14.314-5.363zm-2.617 39.05c-.279 5.587-1.76 15.776-8.785 16.947-6.397 1.061-10.035-4.707-11.788-8.786a123.226 123.226 0 0 1 3.796-2.004c2.208-1.104 9.729-3.921 16.777-6.157z" fill="#1E39CD"/><path d="M146.379 209.472c-.81.013-1.62.055-2.428.125-4.216.377-9.418 1.678-12.483 4.047-5.131 3.961-6.302 10.798-5.697 17.49l.035.322c-7.505-1.395-14.738-.283-19.025 5.906-1.587 2.295-2.904 6.323-3.501 9.258-.848 4.145-1.1 9.501.287 13.116 2.208 5.757 7.925 8.821 14.137 10.271-2.778 5.631-3.438 11.592.106 16.924 1.544 2.322 4.802 5.034 7.309 6.68 3.536 2.318 8.416 4.535 12.29 4.582 6.483.078 11.646-4.546 15.332-10.165.125-.189.243-.382.357-.574.287.4.582.793.9 1.175 5.037 6.074 11.54 10.016 18.966 7.811 2.672-.793 6.22-3.108 8.526-5.021 3.262-2.7 6.81-6.716 7.992-10.405 1.847-5.757-.558-11.62-4.365-16.582 6.452-3.23 11.23-8.209 11.135-15.392-.035-2.79-1.296-6.837-2.51-9.576-1.714-3.87-4.609-8.377-7.839-10.519-5.403-3.587-12.251-2.503-18.397.217-.839.372-1.651.801-2.432 1.284.055-.982.04-1.972-.055-2.97-.707-7.859-3.827-14.79-11.198-17.183-1.988-.649-4.868-.865-7.442-.826v.005zm-.852 6.915c7.465 0 13.724 5.116 13.724 11.435 0 3.807-2.565 10.181-6.805 9.485-.817-.133-1.399-.094-1.709-.448-.311-.353-.943-4.094-1.226-6.192a3.108 3.108 0 0 0-3.525-2.653 3.12 3.12 0 0 0-2.056 1.21 3.102 3.102 0 0 0-.596 2.311c.279 2 .869 5.552.617 5.898-.247.353-.739.479-1.3.723-4.55 1.949-10.609-5.262-10.637-10.334 0-6.315 6.047-11.435 13.513-11.435zm30.188 18.04a12.427 12.427 0 0 1 7.284 2.66c5.462 4.314 6.326 12.331 1.925 17.91-3.273 4.134-10.506 5.372-14.317 3.69-2.515-1.112-.955-2.428-1.053-5.03-.099-2.605 3.984-2.578 5.929-3.022a3.104 3.104 0 0 0 2.368-2.528 3.112 3.112 0 0 0-.042-1.216 3.09 3.09 0 0 0-.501-1.11 3.103 3.103 0 0 0-2.027-1.262 3.118 3.118 0 0 0-1.217.042c-2.102.491-4.538 1.67-5.721 1.414-1.178-.263-2.102-2.428-3.241-3.901-.641-.661-.535-1.973.031-2.7a12.984 12.984 0 0 1 10.582-4.943v-.004zm-53.186 3.014c4.774.015 11.552 4.911 9.843 8.978-.511 1.214-.959 2.004-1.548 2.22-.59.216-3.8-.616-5.753-1.151a3.106 3.106 0 0 0-2.367.314 3.111 3.111 0 0 0-1.448 1.898 3.122 3.122 0 0 0 .314 2.364 3.12 3.12 0 0 0 1.894 1.448c2.012.538 4.782.247 5.926 1.953.479.715.204 1.874.2 3.355 0 2.338-4.715 3.828-7.061 3.832-7.108 0-12.868-5.643-12.868-12.606s5.76-12.605 12.868-12.605zm27.497 4.845c3.859 0 7.561 1.506 10.291 4.186a14.17 14.17 0 0 1 4.262 10.109c0 3.791-1.533 7.427-4.262 10.108a14.69 14.69 0 0 1-10.291 4.187c-3.86 0-7.562-1.506-10.291-4.187a14.166 14.166 0 0 1-4.263-10.108c0-3.792 1.533-7.428 4.263-10.109a14.69 14.69 0 0 1 10.291-4.186zm.188 7.874c-.821 0-1.633.16-2.392.469a6.262 6.262 0 0 0-2.027 1.336 6.152 6.152 0 0 0-1.354 1.999 6.062 6.062 0 0 0-.474 2.357 6.115 6.115 0 0 0 1.831 4.352 6.299 6.299 0 0 0 4.416 1.802 6.297 6.297 0 0 0 4.416-1.802 6.08 6.08 0 0 0 1.357-6.709 6.152 6.152 0 0 0-1.354-1.999 6.262 6.262 0 0 0-2.027-1.336 6.34 6.34 0 0 0-2.392-.469zm21.002 14.5c3.068.082 7.343 3.638 8.573 6.723 2.527 6.487-.46 13.713-6.68 16.138-6.215 2.424-13.308-.865-15.838-7.352-.444-1.206-.44-3.843.707-4.413 1.572-.786 2.385-1.619 3.749-1.776 1.363-.153 3.08 3.092 3.08 3.092a3.113 3.113 0 0 0 4.393.366 3.105 3.105 0 0 0 1.096-2.123 3.116 3.116 0 0 0-.731-2.274s-3.112-2.59-2.899-3.725c.212-1.132 1.155-2.118 2.039-3.43.597-.892 1.489-1.254 2.511-1.226zm-39.992 2.475c.598-.02 1.105.173 1.431.648 1.139 1.678 2.695 2.884 2.809 4.024.118 1.139-2.09 3.336-2.09 3.336a3.096 3.096 0 0 0-.58 2.316 3.105 3.105 0 0 0 1.232 2.046 3.115 3.115 0 0 0 4.361-.657s1.647-2.809 2.869-3.229c1.226-.417 2.298.64 3.948 1.123 1.78.523 1.042 4.048.162 5.678-3.266 6.048-10.263 8.323-15.627 5.085-5.367-3.242-7.068-10.767-3.799-16.818.876-1.579 3.489-3.497 5.284-3.552z" fill="#B93C3C"/></g><defs><clipPath id="a"><path fill="#fff" transform="translate(36.5 57)" d="M0 0h227v306H0z"/></clipPath></defs></svg>