<svg width="300" height="420" fill="none" xmlns="http://www.w3.org/2000/svg"><g clip-path="url(#a)"><path d="M40.657 80.127c.075-.864 6.272-11.76 13.464-15.545 7.193-3.784 18.212-8.428 28.175-4.714 9.964 3.714 21.19 14.328 19.932 31.184-1.259 16.862-45.962 45.8-41.576 45.839 3.95.035 38.754.035 41.627.035 1.45 0 3.241 1.608 3.214 10.335-.016 7.529-2.05 9.354-3.39 9.349l-62.744-.097c-1.784 0-4.112-5.06-3.924-9.8.196-5.028 2.99-9.755 3.994-9.755.863 0 6.585-7.57 15.346-15.398 11.12-9.943 26.04-21.337 28.347-29.97 3.818-14.275-5.84-17.036-13.77-16.558-7.925.479-14.7 10.433-14.7 10.433s-4.342 5.843-10.127 3.51c-5.782-2.333-3.946-7.985-3.868-8.848z" fill="#1E39CD"/><path d="M137.979 83.437a2.2 2.2 0 0 0-1.6.33c-3.244 2.34 21.888 46.142 18.485 79.302-2.967 28.938-13.211 57.169-17.072 76.96-1.694-6.942-2.886-20.543-5.814-26.27-8.525-16.676-37.053-35.624-35.752-28.25.353 2.004 16.535 15.006 24.75 44.759 2.148 7.774 4.64 27.165 5.311 40.039-8.192-22.593-21.714-54.594-36.04-58.893-26.286-7.883-55.03-1.758-55.74 2.078-.588 3.145 41.98 7.08 54.903 25.75 3.402 4.914 10.086 13.849 13.508 20.889-7.499-5.848-15.914-10.451-15.914-10.451l-2.72 4.93s6.145 3.183 14.333 10.555c3.567 3.21 7.277 8.332 10.334 13.098 3.802 9.134 6.173 15.398 7.459 18.865-6.103-6.926-16.267-17.591-23.29-20.25-10.584-4.008-30.642-6.938-29.58-4.236 1.96 4.966 15.209 8.199 24.274 17.035 5.7 7.357 11.953 12.116 19.291 17.353 2.792 2.063 4.73 4.358 4.73 4.358l-5.435-3.612-5.2-3.271c-2.904-1.664-6.67-3.613-9.602-4.27-5.433-1.22-17.025-2.126-17.28.674-.105 1.153 9.868 2.781 14.274 5.758 4.405 2.981 12.025 10.982 12.025 10.982l26.713-11.402s24.396.718 29.095 2.283c0 0 28.932-71.892 66.831-68.319 37.892 3.573 31.867 65.016 34.219 63.561 7.365-4.55 23.35-76.772-30.849-85.872-14.698-2.47-36.645 13.192-47.977 21.809 6.695-7.355 21.331-25.196 28.284-34.071 11.176-14.265 17.527-47.795 14.073-46.819-3.453.98-12.144 19.898-23.64 32.413-11.499 12.52-27.029 24.567-37.283 41.864-2.332 3.938-10.58 24.223-12.865 30.2.45-1.835 5.687-18.755 6.181-20.179 7.61-22.023 26.352-44.329 26.71-81.596.332-34.939-32.51-76.943-42.13-78.084z" fill="#006F00"/><path d="M178.757 282.601c-1.881-.134-12.485 8.914-16.162 16.091-3.136 6.12-4.759 19.298-5.24 23.769l-1.34 1.059.751-15.347s-1.637-6.66-6.96-8.014c-5.421-1.377-7.79.684-7.79.684s-3.234 3.224-6.13 2.459c-2.901-.77-4.508-5.793-4.508-5.793s-1.802-4.324-8.825-3.516c-7.02.808-6.127 3.139-6.127 3.139l-1.756-1.945s-4.246-2.907-10.004.521c-3.653 2.176-3.352 5.24-3.467 6.988 3.505 2.772 7.508 5.245 10.637 8.692l-5.436-3.612-1.107-.697c-6.796-.027-7.213 8.733-5.586 9.898l22.672 16.18c-6.35-2.883-11.892-5.032-14.463-5.11-8.075-.26-21.446 2.274-20.854 5.502.353 1.949 12.562.097 21.86 1.74 9.297 1.643 23.511 10.65 31.221 12.203 4.233.855 7.718 1.176 10.038 1.293l26.458 12.713 1.098-10.268-17.494-19.697c4.171-3.695 9.368-8.15 12.78-10.539 6.443-4.507 19.244-10.218 19.244-10.218l-4.144-6.746s-12.504 5.485-19.097 9.744c-.392.251-.81.532-1.254.834 1.152-5.138 2.404-10.603 3.164-13.439 1.682-6.275 10.521-17.094 7.973-18.525a.341.341 0 0 0-.152-.043z" fill="#1E39CD"/><path d="M64.093 231.648c-14.177 0-24.988 3.021-24.988 11.547 0 8.523 10.027 16.67 24.205 16.67 14.177 0 24.8-2.565 24.8-11.092 0-8.527-9.84-17.125-24.017-17.125zm21.311 17.548c0 .294-.023.573-.066.844-1.686-.667-5.41-2.087-7.4-2.558-2.626-.616-5.35-.557-5.35-.557-3.12.157-3.05 1.051-1.353 2.342.392.298 3.034 1.581 5.206 2.49 1.665.699 4.194 2.103 5.68 2.77-3.058 1.721-7.805 1.741-13.29.639-9.65-1.938-13.59-7.244-11.303-11.59 2.92-5.554 11.68-4.417 13.907-4.205 6.553.62 13.97 6.248 13.97 9.825zM203.846 263.288c-1.329.121-1.043 5.436-3.563 9.699-2.517 4.268-10.427 10.661-12.712 14.638-2.28 3.973-7.619 12.182-3.158 24.643 4.455 12.46 21.8 13.005 26.253 13.256 4.453.255 12.661-1.436 17.835-.902 5.178.533 13.825 6.283 14.757 4.522 1.666-3.13-5.741-11.385-10.5-14.052-4.755-2.667-15.993-.898-15.993-.898s11.238-5.538 14.79-11.065c3.555-5.526 6.518-13.743 3.547-17.642-2.658-3.494-12.927-4.679-18.968-3.894-6.036.784-13.935 4.588-13.935 4.588s6.096-4.392 6.793-9.707c.698-5.314-2.912-13.394-5.146-13.186zm9.297 24.153c6.507.031 14.453 1.82 15.295 3.228 1.662 2.777-3.01 12.539-8.294 16.473-5.292 3.942-12.951 5.977-17.701 3.404a12.823 12.823 0 0 1-2.925-2.137c3.015-.824 10.011-2.864 12.524-4.676 3.234-2.329 5.594-5.138 4.692-6.589-.647-1.043-4.684-1.424-8.533-.286-3.007.886-8.977 4.616-11.513 6.248a10.97 10.97 0 0 1 .118-4.264c1.043-4.773 4.508-8.923 10.63-10.766 1.529-.459 3.54-.647 5.707-.635z" fill="#B93C3C"/></g><defs><clipPath id="a"><path fill="#fff" transform="translate(34.502 58.5)" d="M0 0h230.996v302.999H0z"/></clipPath></defs></svg>