<svg width="300" height="420" fill="none" xmlns="http://www.w3.org/2000/svg"><g clip-path="url(#a)"><path d="M42.885 71.884s15.826-19.54 33.062-17.432c17.236 2.11 24.664 14.753 24.884 25.256.094 4.39-1.822 9.3-4.727 13-4.044 5.147-9.49 8.372-9.49 8.372s6.765 2.884 11.688 8.459c4.347 4.921 7.032 12.058 5.548 19.419-3.168 15.698-15.26 25.856-32.234 25.915-16.968.063-30.875-13.878-32.406-15.459-1.531-1.577-4.201-6.584 1.32-12.438 5.52-5.846 9.017-3.896 11.581-2.633 2.56 1.26 9.796 10.912 17.546 11.438 7.746.525 10.617-.134 14.311-6.89 3.69-6.761 1.13-11.182-2.717-14.871-3.851-3.68-16.792-4.708-16.792-4.708s-3.534-1.228-3.612-6.246c-.079-5.019 2.36-5.615 3.596-6.38 1.237-.762 8.936-1.637 11.853-3.893 2.917-2.252 8.622-6.717 7.535-13.097-1.092-6.383-4.406-9.907-12.611-9.907-8.206 0-16.168 11.724-16.168 11.724s-4.75 3.465-9.71-.157c-4.958-3.621-3.042-8.789-2.457-9.472z" fill="#1E39CD"/><path d="M153.013 51.51c-.216.046-.314.262-.267.658.801 7.35 20.711 34.846 18.147 59.149-.679 6.454-3.003 13.544-6.137 20.834.393-2.605.483-5.43-.514-7.05-1.335-2.166-4.774-3.1-7.365-3.912-1.677-.526-2.847-1.538-3.377-1.001-.42.424.738 2.001 1.017 4.167.314 2.492-.145 5.67.84 7.357 1.374 2.346 5.144 4.728 6.981 5.791-5.21 10.986-11.779 22.145-17.236 32.15.491-4.355.326-9.585-2.375-12.967-4.684-5.874-20.707-8.605-25.198-8.671-.64-.004-1.049.039-1.151.137-.612 0 2.662 4.955 4.009 9.852 1.311 4.771.66 10.041 3.172 12.791 3.184 3.48 10.173 5.179 14.967 5.964.078-1.393.016-3.5-.746-5.556-1.622-4.394-5.544-8.867-5.069-9.181.322-.216 4.205 3.5 6.549 7.835 1.288 2.386 1.932 4.999 2.238 6.573-2.195 4.304-4.02 8.29-5.21 11.81a209.804 209.804 0 0 0-2.136 6.697c-.137-3.688-.801-7.549-2.787-9.338-4.355-3.92-9.109-2.542-11.952-3.861-4.436-2.052-4.142-3.276-4.833-2.483-.549.627 1.249 4.08 2.289 8.157.887 3.472.836 7.506 2.501 9.444 2.678 3.115 9.246 5.305 12.485 6.231-3.306 12.516-4.731 21.795-4.731 21.795l15.222 1.433s2.607-16.315 9.219-35.517c.938-2.723 2.296-5.74 3.886-8.946 2.089-1.679 5.866-4.516 9.788-6.368 5.717-2.696 11.563-3.108 11.488-2.39-.043.401-7.263 2.025-12.379 4.944a23.825 23.825 0 0 0-6.651 5.768c4.629 1.726 13.836 4.575 19.945 2.644 4.24-1.338 7.884-7.76 12.521-12.563 4.581-4.748 10.18-7.887 10.121-8.616-.098-1.185-6.937-1.738-13.514-2.456-3.325-.365-6.509-.84-9.371-.856-2.226-.016-4.26.247-6.007 1.048-5.835 2.672-11.453 10.911-14.39 15.788 7.625-14.548 19.521-32.829 25.238-50.136 2.265.063 6.211-.015 8.449-1.165 1.739-.895 3.054-3.159 4.66-5.089.872-1.157 2.081-2.013 3.219-2.888.601-.463-2.434-1.137-4.134-1.593-2.622-.702-5.406-1.883-7.695-.769-.707.342-1.366.958-1.975 1.731.369-2.088.628-4.156.719-6.18 1.134-24.586-29.238-61.876-32.47-61.197zm30.699 141.34c-6.682-.086-17.106 1.177-21.708 4.481-7.357 5.289-9.018 23.871-9.018 23.871s.777.208 1.523.392c.326-1.259 1.633-5.681 5.053-9.436 4.947-5.43 12.595-8.683 11.755-7.369-.432.683-3.797 2.441-6.953 7.126-2.293 3.401-4.331 8.867-4.888 10.413 4.142.287 9.466-.188 13.62-3.555 7.875-6.383 7.047-13.25 9.23-16.298 2.187-3.053 5.575-6.18 7.295-8.162.758-.875-1.9-1.412-5.909-1.463zm-87.789 2.405c-12.234.106-27.726 4.936-27.597 6.898.114 1.687 7.42 2.366 11.523 5.917 4.1 3.55 4.794 12.343 12.034 15.8 3.612 1.726 10.742 2.119 16.989 2.08-.644-2.625-1.916-7.063-3.856-10.17-3.113-4.991-7.57-7.008-7.907-7.769-.699-1.57 6.965 2.562 11.963 8.687 2.685 3.284 4.162 7.109 4.821 9.13 3.856-.157 6.647-.392 6.647-.392s-3.533-23.244-14.162-28.431c-2.654-1.295-6.372-1.785-10.451-1.75h-.004zm117.965 7.337c-3.643 0-7.098.393-9.764 1.35-10.671 3.837-21.15 27.308-21.15 27.308s1.044.114 2.768.228c.903-1.428 5.045-7.663 10.895-11.226 7.762-4.731 17.675-5.661 16.768-4.68-.746.804-3.223.471-9.171 3.456-8.767 4.403-11.92 10.947-12.642 12.674 5.457.074 12.626-.24 18.963-1.896 12.179-3.178 12.03-10.672 15.614-15.341 3.581-4.669 8.795-4.799 9.812-6.219 1.519-2.134-11.158-5.654-22.093-5.654zm-148.29 21.141c-15.093.015-32.737 13.011-32.273 14.627.502 1.727 7.341 2.715 13.046 5.438 5.709 2.723 11.35 10.1 20.267 11.536 5.3.855 14.15-2.119 20.506-4.681-2.147-2.197-6.419-6.298-10.608-8.703-5.784-3.319-11.198-3.413-11.963-3.696-2.332-.847 6.96-2.338 16.415 1.726 5.767 2.476 10.263 6.769 11.747 8.279l1.955-.91s-10.483-21.494-26.117-23.44a24.065 24.065 0 0 0-2.975-.176zm172.256 7.722a31.45 31.45 0 0 0-1.736.078c-18.665 1.389-28.83 23.852-28.83 23.852l1.693.588c1.923-2.032 9.108-9.26 16.921-12.057 8.493-3.033 17.405.341 17.06.734-.621.706-7.884-1.86-15.332 1.451-6.035 2.684-11.936 9.221-13.757 11.343 5.614 1.507 13.796 3.073 20.604 1.727 11.531-2.272 14.751-7.125 20.369-9.013 5.614-1.883 10.271-.98 12.418-2.55 2.227-1.62-11.586-16.487-29.41-16.153zM65.385 274.022a19.85 19.85 0 0 0-1.672.008c-17.817.84-33.125 22.616-31.017 24.515 1.618 1.463 10.087-.314 16.69.914 6.608 1.228 10.77 7.949 21.728 7.67 6.282-.156 14.676-3.562 20.77-6.45-2.423-2.358-7.684-7.031-13.472-9.377-8.158-3.296-17.259-2.205-17.844-2.935-.887-1.099 12.458-1.872 22.827 1.506 6.278 2.048 11.083 6.306 13.23 8.46 1.913-1.005 3.103-1.687 3.103-1.687s-17.08-22.012-34.343-22.624zM218.33 292.18c-3.915.02-7.817.55-11.465 1.801-19.442 6.671-24.216 32.355-24.216 32.355s1.17.294 2.422.584c1.677-2.574 7.177-10.492 14.323-14.831 9.737-5.917 21.598-6.282 21.189-5.619-.475.777-9.501 1.268-17.019 6.894-6.196 4.642-11.033 13.674-11.59 14.741 6.344.812 14.762 1.079 21.703-1.667 12.851-5.089 15.077-12.615 21.335-16.507 6.254-3.892 12.992-4.524 15.069-6.274 2.406-2.025-14.79-11.551-31.751-11.477zm-110.184 19.619c-6.839-.087-14.39.981-21.052 4.614-17.766 9.691-24.801 32.17-22.25 33.292 2.282 1.008 8.854-3.673 16.655-5.14 7.802-1.472 18.85 4.63 29.447-1.044 6.91-3.7 12.418-14.502 15.449-21.623-3.463-.118-11.818-.188-18.194 1.546-9.171 2.503-15.182 8.75-16.152 8.573-1.94-.353 7.483-8.71 17.338-12.222 8.08-2.876 16.097-2.441 18.724-2.201.353-.981.84-2.3.84-2.3s-9.411-3.346-20.809-3.492l.004-.003z" fill="#006F00"/><path d="M156.504 306.427s1.806 18.865 8.088 30.31c-20.946-8.702-24.166-25.449-24.166-25.449l-11.099.589s-.51 22.286 27.452 36.78c27.954 14.49 57.832 19.838 57.832 19.838s3.168.502 4.429-8.408c1.256-8.911-2.678-9.103-2.678-9.103l-3.777-.746c.412-1.232.758-2.848.942-5.026.833-9.793-2.689-9.966-2.689-9.966s-20.09 2.605-30.601-3.904c-10.514-6.513-14.31-24.393-14.31-24.393l-9.423-.522z" fill="#1E39CD"/><path d="M170.449 222.598c-7.919-1.492-16.427-.507-23.125 2.678a35.424 35.424 0 0 0-6.164-1.752c-13.455-2.537-27.601 2.159-32.634 10.832-10.687.926-19.532 5.982-22.512 12.866a12.31 12.31 0 0 0-1.042 5.063 12.322 12.322 0 0 0 1.136 5.044c-3.546 2.207-6.133 5.011-7.487 8.11-3.377 7.907 1.727 16.329 12.402 20.466-.015 8.036 7.986 15.102 19.6 17.317 1.178.222 2.371.389 3.584.504 3.298 4.755 9.549 8.317 17.118 9.758 8.273 1.555 17.158.407 23.95-3.096 1.46.492 2.984.9 4.546 1.207 11.39 2.163 23.569-.855 30.059-7.444 11.315-.533 20.926-5.703 24.079-12.951a12.282 12.282 0 0 0 1.04-5.058 12.329 12.329 0 0 0-1.134-5.041c3.545-2.211 6.133-5.014 7.487-8.121 2.772-6.437-.067-13.362-7.358-17.981 3.828-9.48-4.487-19.257-18.684-21.961a40.025 40.025 0 0 0-7.75-.689c-3.298-4.751-9.545-8.31-17.111-9.751zm-3.871 8.996c1.64.312 3.172.836 4.507 1.541 1.335.706 2.449 1.58 3.276 2.571.828.992 1.354 2.083 1.547 3.21a5.885 5.885 0 0 1-.417 3.358c-.99 2.154-3.204 3.965-6.172 5.048-1.816-1.657-4.408-2.866-7.37-3.437a20.725 20.725 0 0 0-7.161-.029c1.065-3.205.451-6.555-1.739-9.496 1.611-1.282 3.747-2.225 6.148-2.716a19.293 19.293 0 0 1 7.381-.05zm24.861 10.44c1.64.312 3.171.836 4.506 1.541 1.336.706 2.449 1.58 3.277 2.571.827.992 1.353 2.083 1.547 3.21a5.877 5.877 0 0 1-.418 3.358c-.907 2.017-2.89 3.745-5.578 4.858-2.687 1.113-5.893 1.535-9.015 1.186-.33-1.736-1.393-3.374-3.067-4.725-1.673-1.35-3.888-2.357-6.388-2.904 3.588-1.84 6.216-4.383 7.515-7.27.256-.603.453-1.216.589-1.836a19.328 19.328 0 0 1 7.028.007l.004.004zm-54.154-9.515c1.64.313 3.172.836 4.507 1.542 1.335.706 2.449 1.579 3.276 2.571.828.992 1.354 2.083 1.547 3.21a5.886 5.886 0 0 1-.417 3.358 7.61 7.61 0 0 1-1.127 1.708 20.717 20.717 0 0 0-6.885-.064c-2.267.364-4.36 1.1-6.087 2.141-2.009-3.49-5.981-6.324-11.076-7.903a6.22 6.22 0 0 1 .196-.637c.47-1.091 1.258-2.109 2.319-2.997 1.062-.888 2.376-1.629 3.868-2.179 1.492-.55 3.132-.9 4.828-1.028a19.322 19.322 0 0 1 5.051.278zm22.493 16.414c1.533.292 2.829.977 3.602 1.904.774.927.963 2.021.525 3.04-.44 1.02-1.47 1.882-2.864 2.396-1.395.515-3.039.64-4.573.348-1.533-.291-2.83-.976-3.604-1.903-.775-.927-.964-2.021-.526-3.041.218-.505.582-.976 1.074-1.388a6.067 6.067 0 0 1 1.791-1.009 8.321 8.321 0 0 1 2.236-.476 8.913 8.913 0 0 1 2.339.129zm-16.376.122c1.898.362 3.502 1.21 4.46 2.358.958 1.148 1.191 2.502.648 3.764-.544 1.262-1.819 2.329-3.544 2.965-1.726.637-3.761.792-5.659.431-1.897-.361-3.501-1.208-4.46-2.355-.958-1.147-1.193-2.501-.652-3.763.269-.625.72-1.209 1.328-1.719.609-.509 1.362-.934 2.217-1.25a10.305 10.305 0 0 1 2.766-.59 11.07 11.07 0 0 1 2.896.159zm-27.797-5.185c1.64.313 3.171.836 4.507 1.542 1.335.706 2.448 1.579 3.276 2.571.828.992 1.353 2.083 1.547 3.21a5.877 5.877 0 0 1-.418 3.358l-.023.037c-3.451.424-6.533 1.699-8.63 3.57a27.871 27.871 0 0 0-5.269-1.603 32.247 32.247 0 0 0-9.96-.278c-1.624-1.982-2.016-4.309-1.092-6.481.47-1.09 1.257-2.109 2.319-2.996 1.061-.888 2.375-1.629 3.866-2.179 1.492-.55 3.132-.9 4.826-1.028a19.322 19.322 0 0 1 5.051.277zm58.402 11.281c1.897.362 3.501 1.21 4.459 2.358.958 1.148 1.191 2.502.648 3.764-.269.625-.721 1.209-1.329 1.718-.608.509-1.362.933-2.217 1.248a10.25 10.25 0 0 1-2.766.59c-.971.073-1.955.019-2.894-.16-1.897-.362-3.5-1.21-4.458-2.358-.957-1.148-1.189-2.502-.646-3.764s1.818-2.328 3.544-2.965 3.761-.792 5.659-.431zm28.574 5.715c2.277 1.018 4.011 2.489 4.953 4.203.941 1.714 1.042 3.582.289 5.337-.949 2.201-3.173 4.062-6.184 5.174-3.012 1.111-6.563 1.381-9.874.751a16.705 16.705 0 0 1-3.039-.937c.783-1.855.676-3.826-.307-5.639-.982-1.812-2.791-3.375-5.174-4.471.278-.275.533-.559.765-.852 3.3.403 6.695.29 9.918-.328 3.222-.619 6.185-1.728 8.653-3.238zm-49.548 1.814c1.897.362 3.5 1.21 4.457 2.358.957 1.148 1.19 2.502.647 3.764-.544 1.262-1.819 2.329-3.544 2.965-1.726.637-3.761.792-5.659.431-1.896-.361-3.499-1.209-4.457-2.356-.958-1.147-1.192-2.5-.651-3.762.544-1.262 1.819-2.328 3.545-2.965 1.725-.637 3.761-.792 5.658-.431l.004-.004zm-24.46-2.851c.76.144 1.469.387 2.087.714.619.327 1.135.732 1.518 1.191.383.46.626.965.716 1.487.089.522.023 1.05-.195 1.555-.44 1.02-1.471 1.881-2.866 2.395s-3.04.638-4.574.346c-1.532-.293-2.826-.978-3.599-1.905-.773-.927-.961-2.02-.523-3.039.44-1.019 1.471-1.88 2.865-2.394 1.394-.514 3.038-.642 4.571-.35zm48.425 9.218c1.533.292 2.829.976 3.603 1.903.773.928.962 2.021.524 3.04-.218.506-.583.977-1.074 1.389a6.08 6.08 0 0 1-1.791 1.009 8.36 8.36 0 0 1-2.236.476 8.956 8.956 0 0 1-2.339-.129c-1.533-.292-2.829-.977-3.603-1.904-.773-.927-.962-2.021-.524-3.04.218-.505.583-.977 1.074-1.388a6.067 6.067 0 0 1 1.791-1.009 8.322 8.322 0 0 1 2.236-.477 8.956 8.956 0 0 1 2.339.13zm-68.786-6.955c1.815.376 3.484 1.013 4.888 1.866.052 1.222.467 2.424 1.222 3.539.755 1.114 1.834 2.118 3.175 2.953.039.366.043.734.012 1.1-3.589.062-7.099.716-10.213 1.905-3.115 1.188-5.736 2.873-7.627 4.902-2.942-.811-5.333-2.312-6.719-4.218-1.386-1.907-1.67-4.085-.8-6.122.47-1.09 1.257-2.109 2.319-2.997 1.061-.888 2.375-1.628 3.867-2.178 1.491-.55 3.131-.9 4.825-1.028a19.28 19.28 0 0 1 5.051.278zm91.157 20.054c1.614 1.985 1.994 4.311 1.061 6.481-.949 2.201-3.173 4.062-6.184 5.173-3.012 1.112-6.563 1.382-9.874.752-1.64-.312-3.172-.836-4.507-1.542-1.336-.705-2.449-1.579-3.277-2.571-.827-.992-1.353-2.082-1.547-3.209a5.898 5.898 0 0 1 .418-3.359 7.543 7.543 0 0 1 1.174-1.825c2.643-.154 5.164-.807 7.267-1.882a27.719 27.719 0 0 0 5.477 1.704 32.27 32.27 0 0 0 9.992.278zm-35.555-5.211c1.898.361 3.502 1.209 4.46 2.357.958 1.148 1.191 2.502.648 3.764-.544 1.262-1.819 2.329-3.544 2.966-1.726.637-3.761.792-5.659.431-1.897-.362-3.502-1.21-4.459-2.358-.958-1.148-1.191-2.502-.649-3.764.544-1.262 1.819-2.329 3.545-2.966 1.726-.636 3.761-.791 5.658-.43zm-30.227-5.074c1.896.362 3.499 1.209 4.457 2.356.958 1.147 1.192 2.5.651 3.762-.27.625-.721 1.209-1.33 1.718-.608.509-1.361.933-2.216 1.249-.855.315-1.795.515-2.766.589-.972.074-1.955.019-2.895-.16-1.896-.362-3.498-1.209-4.455-2.356-.957-1.148-1.19-2.5-.649-3.762.544-1.262 1.819-2.328 3.544-2.965 1.726-.637 3.761-.792 5.659-.431zm12.709 8.829c1.533.292 2.83.976 3.604 1.903.775.928.964 2.021.526 3.041-.217.505-.582.977-1.074 1.388-.491.411-1.1.754-1.791 1.009a8.283 8.283 0 0 1-2.236.476c-.785.06-1.58.016-2.339-.129-1.533-.292-2.829-.976-3.602-1.904-.774-.927-.963-2.02-.524-3.04.439-1.019 1.469-1.881 2.863-2.396 1.395-.514 3.039-.639 4.573-.348zm-28.543-3.388c.183 1.605.994 3.152 2.352 4.485 1.358 1.334 3.216 2.408 5.39 3.118-3.609 1.851-6.248 4.414-7.538 7.321-.315.752-.537 1.52-.664 2.296a18.941 18.941 0 0 1-2.799-.296c-1.64-.312-3.171-.836-4.507-1.541-1.335-.706-2.449-1.58-3.276-2.572-.828-.991-1.354-2.082-1.547-3.209a5.881 5.881 0 0 1 .418-3.359c.765-1.766 2.358-3.325 4.547-4.448 2.189-1.123 4.86-1.752 7.624-1.795zm49.556 12.869c.796 1.889 2.165 3.65 4.023 5.175 1.857 1.524 4.163 2.78 6.777 3.691-1.519 1.537-3.737 2.712-6.33 3.353a19.24 19.24 0 0 1-8.086.21c-3.311-.631-6.11-2.11-7.781-4.112-1.671-2.002-2.079-4.364-1.132-6.565a7.794 7.794 0 0 1 1.268-1.822c.611.192 1.242.354 1.889.485 3.102.588 6.414.442 9.372-.415zm-34.912-1.389c.859 1.112 2.047 2.097 3.494 2.895 1.447.799 3.122 1.394 4.924 1.749a20.71 20.71 0 0 0 4.9.256c-.188 2.812.868 5.6 3.039 8.018-1.61 1.289-3.749 2.239-6.156 2.734a19.302 19.302 0 0 1-7.402.054c-3.31-.63-6.109-2.109-7.78-4.111-1.672-2.002-2.079-4.364-1.132-6.566.982-2.139 3.173-3.942 6.113-5.029z" fill="#B93C3C"/></g><defs><clipPath id="a"><path fill="#fff" transform="translate(32.5 51.5)" d="M0 0h235v317H0z"/></clipPath></defs></svg>