<svg width="300" height="420" fill="none" xmlns="http://www.w3.org/2000/svg"><g clip-path="url(#a)"><path d="M99.363 47c-6.418-.05-7.885 2.836-7.885 2.836S44.595 125.08 44.07 126.077c-.53.994-.518 3.495.012 3.476.502-.016 45.573-.028 45.573-.028s.173-.039.282.087c.114.125.09.239.09.239l-.046 23.142s-.098 2.214 8.072 2.199c8.167-.016 7.991-2.215 7.991-2.215l.019-23.079s-.039-.153.095-.29c.133-.134.27-.079.27-.079l16.601.043s3.53.797 3.495-7.551c-.039-8.349-3.483-8.365-3.483-8.365l-15.612-.054s-.691-.001-1.114-.393c-.424-.393-.295-1.288-.295-1.288l.016-61.999s-.255-2.866-6.672-2.921zm-9.936 35.166c.345-.027.604.161.6.727-.016 2.839.015 11.211-.106 18.346-.051 2.93.117 11.942.117 11.942s-.054.208-.156.314c-.102.102-.295.099-.295.099s-16.64.031-19.986.011c-3.714-.023 14.605-25.705 18.449-30.559.349-.44.937-.84 1.377-.88z" fill="#1E39CD"/><path d="M218.58 157.87c-6.818-.024-14.71 4.418-20.928 12.413-9.469 12.185-19.409 23.463-17.381 27.536 1.412 2.843 18.978-3.586 29.789-8.192-5.731 13.839-15.589 38.955-20.92 60.428-4.77-3.652-12.152-7.599-12.752-6.519-.954 1.728 8.355 10.316 10.457 17.082l.02.063c-6.276 34.926-9.709 109.091-9.709 109.091s2.585 2.01 9.505 2.218c5.57.169 9.022-2.187 9.022-2.187s.082-13.948.526-32.122c1.247-2.883 2.353-4.976 2.479-4.43.882 3.927-.616 9.307.274 12.539.887 3.235 3.444 6.931 3.444 6.931s1.624-5.533 3.229-8.09c1.604-2.56 5.876-8.337 6.468-7.21.589 1.127-.18 5.537.53 8.168.706 2.632 3.609 7.591 3.609 7.591s3.871-6.161 6.197-8.345c2.327-2.187 7.485-7.092 7.708-6.432.746 2.238-2 8.636-2.416 13.053-.286 3.012-2.84 10.328-2.22 12.182.274.824 4.829-.574 5.405-.986 2.538-1.81 2.57-20.035 6.449-28.942 3.883-8.898 10.383-14.136 15.714-21.48 2.738-3.77-14.937 3.138-21.092 8.828-6.151 5.69-12.709 22.678-13.847 22.344-1.216-.357.047-12.515.832-18.92.784-6.401 3.475-10.461 6.221-17.483 1.808-4.637-10.505 8.938-13.615 14.436-3.111 5.498-7.296 20.785-7.814 19.226-.73-2.203 1.843-13.524 2.997-21.971 1.043-7.658 9.19-27.921 8.08-28.588-.113-.071-.329.071-.659.455-6.876 8.023-13.321 15.598-17.275 25.254.224-5.772.498-11.466.812-17.184 2.212-6.774 5.248-15.825 7.979-22.886 4.785-12.386 15.357-20.318 17.644-27.791.765-2.501-15.181 8.019-22.681 16.513.118-.801.22-1.693.341-2.447 3.138-19.776 11.14-45.749 16.664-62.352.117.758.243 1.516.368 2.274 2.711 15.877 17.181 50.642 22.571 48.855 2.966-.982 6.728-30.556 6.814-47.437 7.767 9.801 21.08 28.996 22.539 27.048 4.547-6.063 2.601-30.331-4.173-42.238 6.794 3.326 13.14 6.126 13.211 4.846.279-4.944-12.913-25.93-22.445-29.091-9.532-3.165-21.904-4.551-23.87 3.244l-.003.039a9.51 9.51 0 0 0-.883.558c-.241-.05-.483-.093-.726-.13-.235-2.03-1.177-4.029-3.059-5.922-2.582-2.591-5.857-3.832-9.43-3.844v.004zm-2.146 4.414a9.196 9.196 0 0 1 6.657 2.713c.953.958 1.557 1.956 1.89 2.973-5.735 1.586-8.065 6.829-8.594 13.658a31.394 31.394 0 0 1-4.472 2.45c-7.382 3.248-18.429 6.205-19.288 3.825-1.012-2.796 2.342-8.246 9.03-16.85 4.39-5.647 9.964-8.785 14.777-8.769zm26.297 1.272c4.696-.031 11.635 2.341 15.377 5.168 5.178 3.915 11.458 13.395 10.897 14.157-.651.887-5.076-.707-8.316-1.622 0 0-15.408-14.993-22.92-15.241.949-1.759 2.746-2.446 4.962-2.462zm-2.957 5.49c7.052.353 15.337 11.969 20.542 19.163 6.367 8.797 7.618 26.052 4.798 25.192-2.303-.699-9.081-7.54-15.957-15.323a111.168 111.168 0 0 0-2.021-2.211c-.874-10.622-3.977-21.402-10.638-26.044a5.967 5.967 0 0 1 3.276-.777zm-9.128 3.762c8.555.349 11.783 13.756 12.152 25.498.392 12.527-3.001 29.789-5.1 30.626-3.581 1.425-12.568-16.78-14.482-29.158-1.914-12.374-2.879-25.513 5.649-26.856a9.244 9.244 0 0 1 1.781-.106v-.004zM86.057 201.95c-2.471-.067-4.652.683-6.198 2.619-1.883 2.348-1.518 4.999-.05 7.748-.78.1-1.552.252-2.311.455a11.653 11.653 0 0 0-3.154 1.359 8.76 8.76 0 0 0-3.452-1.908c-.274-.087-.55-.153-.824-.224a7.32 7.32 0 0 0-1.376-3.448c-5.374-7.63-17.04-5.6-27.706 3.856s-25.387 55.421-17.981 51.612c4.052-2.085 14.046-10.029 22.335-18.288-2.628 18.881-4.26 47.815.6 46.024 4.629-1.712 17.872-28.745 23.634-42.764 3.475 15.252 10.183 34.706 12.878 37.985 3.158 3.848 8.1-16.835 11.129-34.243 6.652 13.014 13.474 28.619 14.949 40.389 1.385 11.038 2.628 27.009 3.581 41.272-1.569-2.647-3.11-5.027-4.511-6.904-6.19-8.266-20.715-20.239-22.877-20.365-.4-.023-.376.361.204 1.249 2.115 3.24 9.717 11.459 11.545 17.337 1.824 5.883.596 13.155.596 13.155s-4.743-7.802-9.893-13.088c-5.15-5.282-24.144-21.111-21.794-17.357 2.797 4.473 11.728 16.666 14.259 22.482 2.53 5.812 2.894 11.058 2.894 11.058s-5.044-6.88-9.563-10.607c-4.515-3.73-21.622-16.611-17.856-10.767 2.84 4.406 11.015 13.19 15.189 20.777 4.17 7.587 7.484 22.454 9.579 24.41.494.459 4.746 1.661 5.029.903.76-2.081-2.585-9.774-3.754-12.931-1.499-4.057-3.617-7.956-4.853-10.474-1.428-2.909 6.496 3.052 8.473 4.748 1.985 1.697 4.488 7.375 5.21 5.902 1.043-2.124 1.698-4.044 1.918-6.934.215-2.891-2.287-7.517-3.217-9.779-1.541-3.75 7.661 4.351 10.07 6.837 2.408 2.49 4.201 9.456 4.695 8.05.988-2.819 2.036-6.302 2.165-9.46.134-3.157-.992-7.272-1.702-9.833-1.161-4.186 5.417 4.08 8.716 9.629.832 13.273 1.373 23.892 1.373 23.892s2.836 2.25 8.535 2.297c5.084.039 8.348-2.297 8.348-2.297s-6.355-65.671-14.341-89.731c-4.739-14.266-13.847-30.3-20.531-41.099.157-1.72.239-3.15.196-3.986l-.047-.558c5.601 5.31 12.011 10.328 14.176 9.464 3.546-1.402-.686-24.178-7.394-30.127-4.61-4.092-11.454-8.188-16.891-8.337zm1.647 3.895c3.433.083 7.756 2.415 10.662 4.744 4.233 3.385 7.685 16.859 5.445 17.66-1.365.487-5.786-2.616-9.552-5.785-1.796-4.641-4.946-8.91-10.026-9.998-1.294-1.822-1.804-3.589-.44-5.128.981-1.1 2.35-1.532 3.911-1.493zm-29.631 2.631c2.393.036 4.432.931 5.817 2.777.102.133.196.271.275.404-8.497 1.363-13.737 11.066-16.573 21.689-.138.51-.275 1.17-.416 1.782-4.798 4.249-9.983 8.051-12.243 9.142-4.695 2.27 4.637-25.093 11.395-30.72 4.017-3.346 8.254-5.129 11.745-5.074zm6.896 7.972c.87.012 1.793.169 2.765.487 1.134.369 1.962.97 2.554 1.728-1.883 3.64-2.691 8.788-2.88 15.417-.038 1.39.08 3.11.326 5.05-2.91 8.262-12.336 29.374-15.459 30.607-3.832 1.516-1.157-30.026 1.024-38.779 1.906-7.657 5.57-14.6 11.67-14.51zm17.048 1.63c7.159.235 9.72 8.183 9.979 12.849.294 5.317-6.253 40.903-9.732 36.921-2.664-3.051-10.885-27.135-10.638-35.209.243-8.078 1.933-12.881 7.139-14.18a12.336 12.336 0 0 1 3.252-.381z" fill="#006F00"/><path d="M230.347 110.02c-3.237 0-6.443.592-9.434 1.74a24.858 24.858 0 0 0-7.997 4.956c-2.289 2.122-4.105 4.642-5.343 7.416a21.4 21.4 0 0 0-1.875 8.747 21.4 21.4 0 0 0 1.875 8.747c1.238 2.774 3.054 5.293 5.343 7.416a24.838 24.838 0 0 0 7.997 4.955 26.338 26.338 0 0 0 9.434 1.741c6.538 0 12.808-2.408 17.431-6.694 4.622-4.287 7.219-10.1 7.219-16.161a21.411 21.411 0 0 0-1.874-8.749 22.812 22.812 0 0 0-5.342-7.417 24.862 24.862 0 0 0-7.998-4.956 26.349 26.349 0 0 0-9.436-1.741zm.259 13.509c2.615.001 5.122.932 6.971 2.588 1.849 1.656 2.887 3.902 2.887 6.243 0 2.342-1.038 4.588-2.887 6.244-1.849 1.656-4.356 2.587-6.971 2.588a10.84 10.84 0 0 1-3.774-.673 10.004 10.004 0 0 1-3.2-1.915 8.846 8.846 0 0 1-2.138-2.866 8.037 8.037 0 0 1-.749-3.381c.001-2.342 1.04-4.587 2.89-6.243 1.849-1.655 4.357-2.585 6.971-2.585zm-163.75 35.244c-5.888.001-11.534 2.111-15.697 5.865-4.163 3.754-6.502 8.846-6.502 14.155 0 5.309 2.34 10.401 6.503 14.156 4.164 3.754 9.811 5.863 15.7 5.863 5.887-.001 11.534-2.11 15.696-5.865 4.163-3.754 6.502-8.846 6.502-14.154 0-5.31-2.34-10.402-6.503-14.156-4.164-3.755-9.81-5.864-15.7-5.864zm.549 11.757c2.433 0 4.766.851 6.486 2.366 1.72 1.515 2.688 3.569 2.689 5.712a7.253 7.253 0 0 1-.697 3.093 8.096 8.096 0 0 1-1.987 2.623 9.329 9.329 0 0 1-2.976 1.753 10.266 10.266 0 0 1-3.511.617c-1.206 0-2.4-.209-3.514-.615a9.357 9.357 0 0 1-2.978-1.752 8.102 8.102 0 0 1-1.99-2.624 7.254 7.254 0 0 1-.697-3.095c.001-2.143.969-4.198 2.69-5.713 1.721-1.515 4.052-2.365 6.485-2.365z" fill="#B93C3C"/><path d="M182.978 76.201a1.045 1.045 0 0 0-.483.032c-3.13.864-12.082 13.018-19.201 27.602-5.974 12.233-10.364 31.777-11.395 37.389-1.318 7.186-.126 53.304 1.569 102.214l-12.408.522c-.361-5.368-.784-9.601-1.278-12.181-3.876-20.118-26.314-60.785-25.988-50.029.216 7.198 13.588 28.313 16.514 59.595.094 1.048.181 2.356.275 3.55a7.747 7.747 0 0 0-4.754 7.492l.431 10.242a7.748 7.748 0 0 0 5.504 7.108c.164 5.022.302 10.19.419 15.637a7.755 7.755 0 0 0-5.099 7.634l.431 10.241a7.764 7.764 0 0 0 1.488 4.269 7.745 7.745 0 0 0 3.612 2.713c.157 12.617.212 23.35.251 33.477a7.759 7.759 0 0 0-3.707 6.967l.432 10.241a7.754 7.754 0 0 0 3.342 6.064v3.981s.106 2.034 5.174 2.038c5.068 0 4.966-1.983 4.966-1.983l.004-2.886 15.337-.648.141 3.338s.11 1.885 5.174 1.881c5.06-.004 5.123-1.889 5.123-1.889s-.255-4.225-.325-5.301a7.756 7.756 0 0 0 2.863-6.358l-.435-10.245a7.763 7.763 0 0 0-3.786-6.358c-.588-10.057-1.227-20.978-1.922-33.897a7.746 7.746 0 0 0 4.064-7.163l-.431-10.245a7.746 7.746 0 0 0-4.888-6.896c-.271-5.439-.502-10.642-.745-15.971a7.759 7.759 0 0 0 4.809-7.512l-.432-10.242a7.757 7.757 0 0 0-1.575-4.381 7.737 7.737 0 0 0-3.799-2.687c-.411-11.746-.706-22.486-.674-29.892.184-39.062-1.326-45.286 3.224-75.865 4.48-30.084 18.848-59.269 18.841-60.247-.004-.832-.24-1.272-.663-1.35zm-29.64 175.252a3.027 3.027 0 0 1 3.127 2.87l.196 3.927a2.918 2.918 0 0 1-2.825 3.083l-13.29.467a3.03 3.03 0 0 1-3.13-2.874l-.196-3.927a2.912 2.912 0 0 1 2.824-3.079l13.294-.467zm1.059 17.769c.204 5.435.381 9.531.589 14.824l-12.47.527c-.098-5.212-.247-9.975-.385-14.832l12.266-.519zm.506 23.609a2.618 2.618 0 0 1 2.683 2.458l.197 3.338a2.462 2.462 0 0 1-.635 1.82 2.421 2.421 0 0 1-.796.578 2.418 2.418 0 0 1-.958.217l-13.898.421a2.618 2.618 0 0 1-2.683-2.459l-.196-3.337a2.44 2.44 0 0 1 .634-1.818 2.438 2.438 0 0 1 1.75-.798l13.902-.42zm1.107 17.004c.494 12.173.894 22.756 1.282 31.867l-14.227.6c-.02-9.581-.071-20.286-.185-31.914l13.13-.553zm1.431 41.327a2.26 2.26 0 0 1 2.299 2.093l.196 2.827a2.037 2.037 0 0 1-2 2.203l-14.828.377a2.26 2.26 0 0 1-2.299-2.089l-.196-2.831a2.032 2.032 0 0 1 2.001-2.203l14.827-.377z" fill="#1E39CD"/></g><defs><clipPath id="a"><path fill="#fff" transform="translate(21 47)" d="M0 0h258v326H0z"/></clipPath></defs></svg>